%TF.GenerationSoftware,KiCad,Pcbnew,9.0.6*%
%TF.CreationDate,2026-05-07T22:02:24+03:00*%
%TF.ProjectId,takavalo,74616b61-7661-46c6-9f2e-6b696361645f,rev?*%
%TF.SameCoordinates,Original*%
%TF.FileFunction,Copper,L1,Top*%
%TF.FilePolarity,Positive*%
%FSLAX46Y46*%
G04 Gerber Fmt 4.6, Leading zero omitted, Abs format (unit mm)*
G04 Created by KiCad (PCBNEW 9.0.6) date 2026-05-07 22:02:24*
%MOMM*%
%LPD*%
G01*
G04 APERTURE LIST*
G04 Aperture macros list*
%AMRoundRect*
0 Rectangle with rounded corners*
0 $1 Rounding radius*
0 $2 $3 $4 $5 $6 $7 $8 $9 X,Y pos of 4 corners*
0 Add a 4 corners polygon primitive as box body*
4,1,4,$2,$3,$4,$5,$6,$7,$8,$9,$2,$3,0*
0 Add four circle primitives for the rounded corners*
1,1,$1+$1,$2,$3*
1,1,$1+$1,$4,$5*
1,1,$1+$1,$6,$7*
1,1,$1+$1,$8,$9*
0 Add four rect primitives between the rounded corners*
20,1,$1+$1,$2,$3,$4,$5,0*
20,1,$1+$1,$4,$5,$6,$7,0*
20,1,$1+$1,$6,$7,$8,$9,0*
20,1,$1+$1,$8,$9,$2,$3,0*%
G04 Aperture macros list end*
%ADD10C,0.300000*%
%TA.AperFunction,NonConductor*%
%ADD11C,0.300000*%
%TD*%
%TA.AperFunction,SMDPad,CuDef*%
%ADD12RoundRect,0.375000X-0.375000X0.625000X-0.375000X-0.625000X0.375000X-0.625000X0.375000X0.625000X0*%
%TD*%
%TA.AperFunction,SMDPad,CuDef*%
%ADD13RoundRect,0.500000X-1.400000X0.500000X-1.400000X-0.500000X1.400000X-0.500000X1.400000X0.500000X0*%
%TD*%
%TA.AperFunction,SMDPad,CuDef*%
%ADD14RoundRect,0.127000X1.208000X1.143000X-1.208000X1.143000X-1.208000X-1.143000X1.208000X-1.143000X0*%
%TD*%
%TA.AperFunction,SMDPad,CuDef*%
%ADD15RoundRect,0.076200X0.304800X0.558800X-0.304800X0.558800X-0.304800X-0.558800X0.304800X-0.558800X0*%
%TD*%
%TA.AperFunction,SMDPad,CuDef*%
%ADD16RoundRect,0.250000X0.400000X0.625000X-0.400000X0.625000X-0.400000X-0.625000X0.400000X-0.625000X0*%
%TD*%
%TA.AperFunction,SMDPad,CuDef*%
%ADD17RoundRect,0.250000X0.625000X-0.400000X0.625000X0.400000X-0.625000X0.400000X-0.625000X-0.400000X0*%
%TD*%
%TA.AperFunction,SMDPad,CuDef*%
%ADD18RoundRect,0.225000X0.250000X-0.225000X0.250000X0.225000X-0.250000X0.225000X-0.250000X-0.225000X0*%
%TD*%
%TA.AperFunction,SMDPad,CuDef*%
%ADD19RoundRect,0.250000X-0.625000X0.400000X-0.625000X-0.400000X0.625000X-0.400000X0.625000X0.400000X0*%
%TD*%
%TA.AperFunction,SMDPad,CuDef*%
%ADD20RoundRect,0.150000X0.825000X0.150000X-0.825000X0.150000X-0.825000X-0.150000X0.825000X-0.150000X0*%
%TD*%
%TA.AperFunction,ComponentPad*%
%ADD21RoundRect,0.250000X-0.600000X-0.750000X0.600000X-0.750000X0.600000X0.750000X-0.600000X0.750000X0*%
%TD*%
%TA.AperFunction,ComponentPad*%
%ADD22O,1.700000X2.000000*%
%TD*%
%TA.AperFunction,ComponentPad*%
%ADD23RoundRect,0.250000X0.550000X-0.550000X0.550000X0.550000X-0.550000X0.550000X-0.550000X-0.550000X0*%
%TD*%
%TA.AperFunction,ComponentPad*%
%ADD24C,1.600000*%
%TD*%
%TA.AperFunction,ComponentPad*%
%ADD25RoundRect,0.250000X-0.550000X0.550000X-0.550000X-0.550000X0.550000X-0.550000X0.550000X0.550000X0*%
%TD*%
%TA.AperFunction,ComponentPad*%
%ADD26RoundRect,0.249999X-1.250001X1.250001X-1.250001X-1.250001X1.250001X-1.250001X1.250001X1.250001X0*%
%TD*%
%TA.AperFunction,ComponentPad*%
%ADD27C,3.000000*%
%TD*%
%TA.AperFunction,ComponentPad*%
%ADD28R,1.905000X2.000000*%
%TD*%
%TA.AperFunction,ComponentPad*%
%ADD29O,1.905000X2.000000*%
%TD*%
%TA.AperFunction,ViaPad*%
%ADD30C,4.000000*%
%TD*%
%TA.AperFunction,Conductor*%
%ADD31C,0.700000*%
%TD*%
%TA.AperFunction,Conductor*%
%ADD32C,1.000000*%
%TD*%
G04 APERTURE END LIST*
D10*
D11*
X112911653Y-109885912D02*
X112411653Y-109171626D01*
X112054510Y-109885912D02*
X112054510Y-108385912D01*
X112054510Y-108385912D02*
X112625939Y-108385912D01*
X112625939Y-108385912D02*
X112768796Y-108457341D01*
X112768796Y-108457341D02*
X112840225Y-108528769D01*
X112840225Y-108528769D02*
X112911653Y-108671626D01*
X112911653Y-108671626D02*
X112911653Y-108885912D01*
X112911653Y-108885912D02*
X112840225Y-109028769D01*
X112840225Y-109028769D02*
X112768796Y-109100198D01*
X112768796Y-109100198D02*
X112625939Y-109171626D01*
X112625939Y-109171626D02*
X112054510Y-109171626D01*
X114125939Y-109814484D02*
X113983082Y-109885912D01*
X113983082Y-109885912D02*
X113697368Y-109885912D01*
X113697368Y-109885912D02*
X113554510Y-109814484D01*
X113554510Y-109814484D02*
X113483082Y-109671626D01*
X113483082Y-109671626D02*
X113483082Y-109100198D01*
X113483082Y-109100198D02*
X113554510Y-108957341D01*
X113554510Y-108957341D02*
X113697368Y-108885912D01*
X113697368Y-108885912D02*
X113983082Y-108885912D01*
X113983082Y-108885912D02*
X114125939Y-108957341D01*
X114125939Y-108957341D02*
X114197368Y-109100198D01*
X114197368Y-109100198D02*
X114197368Y-109243055D01*
X114197368Y-109243055D02*
X113483082Y-109385912D01*
X115483082Y-109885912D02*
X115483082Y-109100198D01*
X115483082Y-109100198D02*
X115411653Y-108957341D01*
X115411653Y-108957341D02*
X115268796Y-108885912D01*
X115268796Y-108885912D02*
X114983082Y-108885912D01*
X114983082Y-108885912D02*
X114840224Y-108957341D01*
X115483082Y-109814484D02*
X115340224Y-109885912D01*
X115340224Y-109885912D02*
X114983082Y-109885912D01*
X114983082Y-109885912D02*
X114840224Y-109814484D01*
X114840224Y-109814484D02*
X114768796Y-109671626D01*
X114768796Y-109671626D02*
X114768796Y-109528769D01*
X114768796Y-109528769D02*
X114840224Y-109385912D01*
X114840224Y-109385912D02*
X114983082Y-109314484D01*
X114983082Y-109314484D02*
X115340224Y-109314484D01*
X115340224Y-109314484D02*
X115483082Y-109243055D01*
X116197367Y-109885912D02*
X116197367Y-108885912D01*
X116197367Y-109171626D02*
X116268796Y-109028769D01*
X116268796Y-109028769D02*
X116340225Y-108957341D01*
X116340225Y-108957341D02*
X116483082Y-108885912D01*
X116483082Y-108885912D02*
X116625939Y-108885912D01*
X116768796Y-110028769D02*
X117911653Y-110028769D01*
X118268795Y-109885912D02*
X118268795Y-108385912D01*
X118268795Y-109100198D02*
X119125938Y-109100198D01*
X119125938Y-109885912D02*
X119125938Y-108385912D01*
X120483082Y-108885912D02*
X120483082Y-109885912D01*
X119840224Y-108885912D02*
X119840224Y-109671626D01*
X119840224Y-109671626D02*
X119911653Y-109814484D01*
X119911653Y-109814484D02*
X120054510Y-109885912D01*
X120054510Y-109885912D02*
X120268796Y-109885912D01*
X120268796Y-109885912D02*
X120411653Y-109814484D01*
X120411653Y-109814484D02*
X120483082Y-109743055D01*
X121197367Y-109885912D02*
X121197367Y-108385912D01*
X121197367Y-108957341D02*
X121340225Y-108885912D01*
X121340225Y-108885912D02*
X121625939Y-108885912D01*
X121625939Y-108885912D02*
X121768796Y-108957341D01*
X121768796Y-108957341D02*
X121840225Y-109028769D01*
X121840225Y-109028769D02*
X121911653Y-109171626D01*
X121911653Y-109171626D02*
X121911653Y-109600198D01*
X121911653Y-109600198D02*
X121840225Y-109743055D01*
X121840225Y-109743055D02*
X121768796Y-109814484D01*
X121768796Y-109814484D02*
X121625939Y-109885912D01*
X121625939Y-109885912D02*
X121340225Y-109885912D01*
X121340225Y-109885912D02*
X121197367Y-109814484D01*
X112483082Y-110800828D02*
X112483082Y-111872257D01*
X112483082Y-111872257D02*
X112411653Y-112086542D01*
X112411653Y-112086542D02*
X112268796Y-112229400D01*
X112268796Y-112229400D02*
X112054510Y-112300828D01*
X112054510Y-112300828D02*
X111911653Y-112300828D01*
X114054510Y-112300828D02*
X113554510Y-111586542D01*
X113197367Y-112300828D02*
X113197367Y-110800828D01*
X113197367Y-110800828D02*
X113768796Y-110800828D01*
X113768796Y-110800828D02*
X113911653Y-110872257D01*
X113911653Y-110872257D02*
X113983082Y-110943685D01*
X113983082Y-110943685D02*
X114054510Y-111086542D01*
X114054510Y-111086542D02*
X114054510Y-111300828D01*
X114054510Y-111300828D02*
X113983082Y-111443685D01*
X113983082Y-111443685D02*
X113911653Y-111515114D01*
X113911653Y-111515114D02*
X113768796Y-111586542D01*
X113768796Y-111586542D02*
X113197367Y-111586542D01*
D12*
%TO.P,U3,1,GND*%
%TO.N,GND*%
X99050000Y-79200000D03*
%TO.P,U3,2,VO*%
%TO.N,+5V*%
X96750000Y-79200000D03*
D13*
X96750000Y-85500000D03*
D12*
%TO.P,U3,3,VI*%
%TO.N,Net-(D1-K)*%
X94450000Y-79200000D03*
%TD*%
D14*
%TO.P,D1,1,K*%
%TO.N,Net-(D1-K)*%
X81448500Y-80250000D03*
D15*
%TO.P,D1,2,A*%
%TO.N,Vin*%
X79097500Y-80250000D03*
%TD*%
D16*
%TO.P,R1,1*%
%TO.N,CLK*%
X110500000Y-88000000D03*
%TO.P,R1,2*%
%TO.N,Net-(U1-CP)*%
X107400000Y-88000000D03*
%TD*%
D17*
%TO.P,R4,1*%
%TO.N,Net-(Q1-G)*%
X85250000Y-106100000D03*
%TO.P,R4,2*%
%TO.N,Horn_sng*%
X85250000Y-103000000D03*
%TD*%
D16*
%TO.P,R3,1*%
%TO.N,GND*%
X93250000Y-108250000D03*
%TO.P,R3,2*%
%TO.N,Net-(Q1-G)*%
X90150000Y-108250000D03*
%TD*%
D18*
%TO.P,C2,1*%
%TO.N,+5V*%
X106250000Y-82450000D03*
%TO.P,C2,2*%
%TO.N,GND*%
X106250000Y-80900000D03*
%TD*%
D19*
%TO.P,R2,1*%
%TO.N,DATA*%
X126000000Y-84650000D03*
%TO.P,R2,2*%
%TO.N,Net-(U1-DSA)*%
X126000000Y-87750000D03*
%TD*%
D20*
%TO.P,U2,1,I1*%
%TO.N,Net-(U1-Q1)*%
X95700000Y-100890000D03*
%TO.P,U2,2,I2*%
%TO.N,Net-(U1-Q2)*%
X95700000Y-99620000D03*
%TO.P,U2,3,I3*%
%TO.N,Net-(U1-Q3)*%
X95700000Y-98350000D03*
%TO.P,U2,4,I4*%
%TO.N,Net-(U1-Q7)*%
X95700000Y-97080000D03*
%TO.P,U2,5,I5*%
%TO.N,Net-(U1-Q6)*%
X95700000Y-95810000D03*
%TO.P,U2,6,I6*%
%TO.N,Net-(U1-Q5)*%
X95700000Y-94540000D03*
%TO.P,U2,7,I7*%
%TO.N,Net-(U1-Q4)*%
X95700000Y-93270000D03*
%TO.P,U2,8,GND*%
%TO.N,GND*%
X95700000Y-92000000D03*
%TO.P,U2,9,COM*%
%TO.N,unconnected-(U2-COM-Pad9)*%
X90750000Y-92000000D03*
%TO.P,U2,10,O7*%
%TO.N,unconnected-(U2-O7-Pad10)*%
X90750000Y-93270000D03*
%TO.P,U2,11,O6*%
%TO.N,unconnected-(U2-O6-Pad11)*%
X90750000Y-94540000D03*
%TO.P,U2,12,O5*%
%TO.N,unconnected-(U2-O5-Pad12)*%
X90750000Y-95810000D03*
%TO.P,U2,13,O4*%
%TO.N,Drive*%
X90750000Y-97080000D03*
%TO.P,U2,14,O3*%
%TO.N,Blinker_right*%
X90750000Y-98350000D03*
%TO.P,U2,15,O2*%
%TO.N,Blinker_left*%
X90750000Y-99620000D03*
%TO.P,U2,16,O1*%
%TO.N,Horn_sng*%
X90750000Y-100890000D03*
%TD*%
D18*
%TO.P,C3,1*%
%TO.N,+5V*%
X110250000Y-82500000D03*
%TO.P,C3,2*%
%TO.N,GND*%
X110250000Y-80950000D03*
%TD*%
D21*
%TO.P,J1,1,Pin_1*%
%TO.N,CLK*%
X117500000Y-84000000D03*
D22*
%TO.P,J1,2,Pin_2*%
%TO.N,DATA*%
X120000000Y-84000000D03*
%TD*%
D23*
%TO.P,U1,1,DSA*%
%TO.N,Net-(U1-DSA)*%
X121500000Y-100250000D03*
D24*
%TO.P,U1,2,DSB*%
X118960000Y-100250000D03*
%TO.P,U1,3,Q0*%
%TO.N,unconnected-(U1-Q0-Pad3)*%
X116420000Y-100250000D03*
%TO.P,U1,4,Q1*%
%TO.N,Net-(U1-Q1)*%
X113880000Y-100250000D03*
%TO.P,U1,5,Q2*%
%TO.N,Net-(U1-Q2)*%
X111340000Y-100250000D03*
%TO.P,U1,6,Q3*%
%TO.N,Net-(U1-Q3)*%
X108800000Y-100250000D03*
%TO.P,U1,7,GND*%
%TO.N,GND*%
X106260000Y-100250000D03*
%TO.P,U1,8,CP*%
%TO.N,Net-(U1-CP)*%
X106260000Y-92630000D03*
%TO.P,U1,9,~{MR}*%
%TO.N,+5V*%
X108800000Y-92630000D03*
%TO.P,U1,10,Q4*%
%TO.N,Net-(U1-Q4)*%
X111340000Y-92630000D03*
%TO.P,U1,11,Q5*%
%TO.N,Net-(U1-Q5)*%
X113880000Y-92630000D03*
%TO.P,U1,12,Q6*%
%TO.N,Net-(U1-Q6)*%
X116420000Y-92630000D03*
%TO.P,U1,13,Q7*%
%TO.N,Net-(U1-Q7)*%
X118960000Y-92630000D03*
%TO.P,U1,14,VCC*%
%TO.N,+5V*%
X121500000Y-92630000D03*
%TD*%
D25*
%TO.P,C1,1*%
%TO.N,Net-(D1-K)*%
X88250000Y-80000000D03*
D24*
%TO.P,C1,2*%
%TO.N,GND*%
X88250000Y-82500000D03*
%TD*%
D26*
%TO.P,J2,1,Pin_1*%
%TO.N,Vin*%
X73000000Y-80250000D03*
D27*
%TO.P,J2,2,Pin_2*%
%TO.N,Drive*%
X73000000Y-85250000D03*
%TO.P,J2,3,Pin_3*%
%TO.N,Blinker_right*%
X73000000Y-90250000D03*
%TO.P,J2,4,Pin_4*%
%TO.N,Blinker_left*%
X73000000Y-95250000D03*
%TO.P,J2,5,Pin_5*%
%TO.N,Horn*%
X73000000Y-100250000D03*
%TO.P,J2,6,Pin_6*%
%TO.N,GND*%
X73000000Y-105250000D03*
%TD*%
D28*
%TO.P,Q1,1,G*%
%TO.N,Net-(Q1-G)*%
X85000000Y-109750000D03*
D29*
%TO.P,Q1,2,D*%
%TO.N,Horn*%
X82460000Y-109750000D03*
%TO.P,Q1,3,S*%
%TO.N,GND*%
X79920000Y-109750000D03*
%TD*%
D30*
%TO.N,GND*%
X126250000Y-104250000D03*
X126250000Y-96250000D03*
%TD*%
D31*
%TO.N,GND*%
X123250000Y-96250000D02*
X120750000Y-98750000D01*
X107760000Y-98750000D02*
X106260000Y-100250000D01*
X126250000Y-96250000D02*
X123250000Y-96250000D01*
X120750000Y-98750000D02*
X107760000Y-98750000D01*
D32*
%TO.N,Net-(D1-K)*%
X90550000Y-79200000D02*
X94450000Y-79200000D01*
X82750000Y-80250000D02*
X88000000Y-80250000D01*
X88000000Y-80250000D02*
X88250000Y-80000000D01*
X88250000Y-80000000D02*
X89750000Y-80000000D01*
X89750000Y-80000000D02*
X90550000Y-79200000D01*
%TO.N,+5V*%
X108300000Y-85500000D02*
X108800000Y-86000000D01*
D31*
X108800000Y-92630000D02*
X108800000Y-86000000D01*
D32*
X106250000Y-82450000D02*
X106250000Y-85500000D01*
X108300000Y-85450000D02*
X110250000Y-83500000D01*
X106250000Y-85500000D02*
X108300000Y-85500000D01*
D31*
X108800000Y-85300000D02*
X108750000Y-85250000D01*
X108800000Y-86000000D02*
X108800000Y-85300000D01*
D32*
X96750000Y-85500000D02*
X106250000Y-85500000D01*
X108300000Y-85500000D02*
X108300000Y-85450000D01*
X110250000Y-83500000D02*
X110250000Y-82500000D01*
%TO.N,Vin*%
X73000000Y-80250000D02*
X78750000Y-80250000D01*
%TO.N,CLK*%
X110500000Y-88000000D02*
X113500000Y-88000000D01*
X113500000Y-88000000D02*
X117500000Y-84000000D01*
%TO.N,DATA*%
X126100000Y-84000000D02*
X120000000Y-84000000D01*
D31*
%TO.N,Blinker_left*%
X85620000Y-99620000D02*
X81250000Y-95250000D01*
X81250000Y-95250000D02*
X73000000Y-95250000D01*
X90750000Y-99620000D02*
X85620000Y-99620000D01*
%TO.N,Blinker_right*%
X87850000Y-98350000D02*
X90750000Y-98350000D01*
X73000000Y-90250000D02*
X79750000Y-90250000D01*
X79750000Y-90250000D02*
X87850000Y-98350000D01*
%TO.N,Drive*%
X90750000Y-97080000D02*
X89080000Y-97080000D01*
X77250000Y-85250000D02*
X73000000Y-85250000D01*
X89080000Y-97080000D02*
X77250000Y-85250000D01*
D32*
%TO.N,Horn*%
X82460000Y-106710000D02*
X76000000Y-100250000D01*
X76000000Y-100250000D02*
X73000000Y-100250000D01*
X82460000Y-109750000D02*
X82460000Y-106710000D01*
%TO.N,Net-(Q1-G)*%
X90250000Y-108150000D02*
X85600000Y-108150000D01*
X85250000Y-109500000D02*
X85250000Y-108500000D01*
X85600000Y-108150000D02*
X85250000Y-108500000D01*
X85250000Y-108500000D02*
X85250000Y-106100000D01*
%TO.N,Net-(U1-CP)*%
X107400000Y-88000000D02*
X106750000Y-88000000D01*
X106750000Y-88000000D02*
X106260000Y-88490000D01*
X106260000Y-88490000D02*
X106260000Y-92630000D01*
%TO.N,Net-(U1-DSA)*%
X129750000Y-97750000D02*
X127250000Y-100250000D01*
X129750000Y-88750000D02*
X129750000Y-97750000D01*
X118960000Y-100250000D02*
X121500000Y-100250000D01*
X127250000Y-100250000D02*
X121500000Y-100250000D01*
X128750000Y-87750000D02*
X129750000Y-88750000D01*
X121750000Y-100000000D02*
X121500000Y-100250000D01*
X126000000Y-87750000D02*
X128750000Y-87750000D01*
D31*
%TO.N,Horn_sng*%
X85860000Y-100890000D02*
X90750000Y-100890000D01*
X85250000Y-103000000D02*
X85250000Y-101500000D01*
X85250000Y-101500000D02*
X85860000Y-100890000D01*
%TO.N,Net-(U1-Q6)*%
X101060000Y-95810000D02*
X95700000Y-95810000D01*
X115250000Y-96250000D02*
X101500000Y-96250000D01*
X116420000Y-92630000D02*
X116420000Y-95080000D01*
X116420000Y-95080000D02*
X115250000Y-96250000D01*
X101500000Y-96250000D02*
X101060000Y-95810000D01*
%TO.N,Net-(U1-Q1)*%
X113880000Y-103370000D02*
X113880000Y-100250000D01*
X96890000Y-100890000D02*
X101250000Y-105250000D01*
X95700000Y-100890000D02*
X96890000Y-100890000D01*
X112000000Y-105250000D02*
X113880000Y-103370000D01*
X101250000Y-105250000D02*
X112000000Y-105250000D01*
%TO.N,Net-(U1-Q3)*%
X108000000Y-102750000D02*
X108800000Y-101950000D01*
X103500000Y-102750000D02*
X108000000Y-102750000D01*
X99100000Y-98350000D02*
X103500000Y-102750000D01*
X95700000Y-98350000D02*
X99100000Y-98350000D01*
X108800000Y-101950000D02*
X108800000Y-100250000D01*
%TO.N,Net-(U1-Q4)*%
X103270000Y-93270000D02*
X95700000Y-93270000D01*
X104250000Y-94250000D02*
X103270000Y-93270000D01*
X111180000Y-94250000D02*
X111340000Y-94090000D01*
X111340000Y-94090000D02*
X111340000Y-92630000D01*
X111180000Y-94250000D02*
X104250000Y-94250000D01*
%TO.N,Net-(U1-Q2)*%
X102000000Y-104000000D02*
X97620000Y-99620000D01*
X111340000Y-100250000D02*
X111340000Y-103160000D01*
X110500000Y-104000000D02*
X102000000Y-104000000D01*
X97620000Y-99620000D02*
X95700000Y-99620000D01*
X111340000Y-103160000D02*
X110500000Y-104000000D01*
%TO.N,Net-(U1-Q7)*%
X100330000Y-97080000D02*
X100750000Y-97500000D01*
X118960000Y-95790000D02*
X118960000Y-92630000D01*
X95700000Y-97080000D02*
X100330000Y-97080000D01*
X100750000Y-97500000D02*
X117250000Y-97500000D01*
X117250000Y-97500000D02*
X118960000Y-95790000D01*
%TO.N,Net-(U1-Q5)*%
X113880000Y-92630000D02*
X113880000Y-94370000D01*
X113880000Y-94370000D02*
X113000000Y-95250000D01*
X102250000Y-95250000D02*
X101540000Y-94540000D01*
X101540000Y-94540000D02*
X95700000Y-94540000D01*
X113000000Y-95250000D02*
X102250000Y-95250000D01*
%TD*%
%TA.AperFunction,Conductor*%
%TO.N,GND*%
G36*
X130886843Y-76270207D02*
G01*
X130956084Y-76325426D01*
X130994511Y-76405218D01*
X130999500Y-76449500D01*
X130999500Y-88163140D01*
X130979793Y-88249483D01*
X130924574Y-88318724D01*
X130844782Y-88357151D01*
X130756218Y-88357151D01*
X130676426Y-88318724D01*
X130635038Y-88273699D01*
X130561164Y-88163140D01*
X130527140Y-88112219D01*
X129538483Y-87123563D01*
X129538482Y-87123561D01*
X129387785Y-86972864D01*
X129387782Y-86972861D01*
X129288228Y-86906341D01*
X129223916Y-86863369D01*
X129223909Y-86863365D01*
X129066944Y-86798349D01*
X129066942Y-86798348D01*
X129051461Y-86791936D01*
X129041836Y-86787949D01*
X128887663Y-86757282D01*
X128884888Y-86756730D01*
X128884853Y-86756722D01*
X128848541Y-86749500D01*
X127137465Y-86749500D01*
X127051122Y-86729793D01*
X127033000Y-86719875D01*
X126944334Y-86665186D01*
X126881190Y-86644262D01*
X126777801Y-86610002D01*
X126777799Y-86610001D01*
X126777797Y-86610001D01*
X126675009Y-86599500D01*
X126675000Y-86599500D01*
X125324992Y-86599500D01*
X125324986Y-86599501D01*
X125222204Y-86610000D01*
X125055665Y-86665186D01*
X125055663Y-86665187D01*
X124906347Y-86757286D01*
X124906340Y-86757291D01*
X124782291Y-86881340D01*
X124782286Y-86881347D01*
X124690187Y-87030663D01*
X124690186Y-87030665D01*
X124635002Y-87197198D01*
X124635001Y-87197200D01*
X124635001Y-87197203D01*
X124624500Y-87299991D01*
X124624500Y-87299998D01*
X124624500Y-87299999D01*
X124624500Y-88200007D01*
X124624501Y-88200013D01*
X124635000Y-88302795D01*
X124653012Y-88357151D01*
X124690186Y-88469334D01*
X124782288Y-88618656D01*
X124906344Y-88742712D01*
X125055666Y-88834814D01*
X125222203Y-88889999D01*
X125324991Y-88900500D01*
X126675008Y-88900499D01*
X126777797Y-88889999D01*
X126944334Y-88834814D01*
X127032997Y-88780126D01*
X127116829Y-88751573D01*
X127137465Y-88750500D01*
X128253152Y-88750500D01*
X128339495Y-88770207D01*
X128393866Y-88808786D01*
X128691214Y-89106134D01*
X128738333Y-89181122D01*
X128749500Y-89246848D01*
X128749500Y-97253152D01*
X128729793Y-97339495D01*
X128691214Y-97393866D01*
X126893866Y-99191214D01*
X126818878Y-99238333D01*
X126753152Y-99249500D01*
X122743297Y-99249500D01*
X122656954Y-99229793D01*
X122602584Y-99191215D01*
X122518660Y-99107292D01*
X122518656Y-99107288D01*
X122369334Y-99015186D01*
X122202801Y-98960002D01*
X122202799Y-98960001D01*
X122202797Y-98960001D01*
X122100009Y-98949500D01*
X122100000Y-98949500D01*
X120899992Y-98949500D01*
X120899986Y-98949501D01*
X120797204Y-98960000D01*
X120630665Y-99015186D01*
X120630663Y-99015187D01*
X120481347Y-99107286D01*
X120481339Y-99107292D01*
X120397416Y-99191215D01*
X120369147Y-99208976D01*
X120343046Y-99229793D01*
X120332010Y-99232311D01*
X120322428Y-99238333D01*
X120256703Y-99249500D01*
X119860132Y-99249500D01*
X119773789Y-99229793D01*
X119743166Y-99211497D01*
X119641610Y-99137713D01*
X119641604Y-99137710D01*
X119641600Y-99137707D01*
X119641599Y-99137706D01*
X119459231Y-99044785D01*
X119459212Y-99044777D01*
X119264536Y-98981523D01*
X119264529Y-98981522D01*
X119128658Y-98960002D01*
X119062352Y-98949500D01*
X118857648Y-98949500D01*
X118796635Y-98959163D01*
X118655470Y-98981522D01*
X118655463Y-98981523D01*
X118460787Y-99044777D01*
X118460768Y-99044785D01*
X118278400Y-99137706D01*
X118278390Y-99137712D01*
X118112783Y-99258032D01*
X118112779Y-99258035D01*
X117968035Y-99402779D01*
X117968032Y-99402783D01*
X117850995Y-99563873D01*
X117784301Y-99622143D01*
X117698929Y-99645705D01*
X117611789Y-99629891D01*
X117540139Y-99577836D01*
X117529005Y-99563873D01*
X117462884Y-99472864D01*
X117411966Y-99402781D01*
X117267219Y-99258034D01*
X117175250Y-99191215D01*
X117101609Y-99137712D01*
X117101599Y-99137706D01*
X116919231Y-99044785D01*
X116919212Y-99044777D01*
X116724536Y-98981523D01*
X116724529Y-98981522D01*
X116588658Y-98960002D01*
X116522352Y-98949500D01*
X116317648Y-98949500D01*
X116256635Y-98959163D01*
X116115470Y-98981522D01*
X116115463Y-98981523D01*
X115920787Y-99044777D01*
X115920768Y-99044785D01*
X115738400Y-99137706D01*
X115738390Y-99137712D01*
X115572783Y-99258032D01*
X115572779Y-99258035D01*
X115428035Y-99402779D01*
X115428032Y-99402783D01*
X115310995Y-99563873D01*
X115244301Y-99622143D01*
X115158929Y-99645705D01*
X115071789Y-99629891D01*
X115000139Y-99577836D01*
X114989005Y-99563873D01*
X114922884Y-99472864D01*
X114871966Y-99402781D01*
X114727219Y-99258034D01*
X114635250Y-99191215D01*
X114561609Y-99137712D01*
X114561599Y-99137706D01*
X114379231Y-99044785D01*
X114379212Y-99044777D01*
X114184536Y-98981523D01*
X114184529Y-98981522D01*
X114048658Y-98960002D01*
X113982352Y-98949500D01*
X113777648Y-98949500D01*
X113716635Y-98959163D01*
X113575470Y-98981522D01*
X113575463Y-98981523D01*
X113380787Y-99044777D01*
X113380768Y-99044785D01*
X113198400Y-99137706D01*
X113198390Y-99137712D01*
X113032783Y-99258032D01*
X113032779Y-99258035D01*
X112888035Y-99402779D01*
X112888032Y-99402783D01*
X112770995Y-99563873D01*
X112704301Y-99622143D01*
X112618929Y-99645705D01*
X112531789Y-99629891D01*
X112460139Y-99577836D01*
X112449005Y-99563873D01*
X112382884Y-99472864D01*
X112331966Y-99402781D01*
X112187219Y-99258034D01*
X112095250Y-99191215D01*
X112021609Y-99137712D01*
X112021599Y-99137706D01*
X111839231Y-99044785D01*
X111839212Y-99044777D01*
X111644536Y-98981523D01*
X111644529Y-98981522D01*
X111508658Y-98960002D01*
X111442352Y-98949500D01*
X111237648Y-98949500D01*
X111176635Y-98959163D01*
X111035470Y-98981522D01*
X111035463Y-98981523D01*
X110840787Y-99044777D01*
X110840768Y-99044785D01*
X110658400Y-99137706D01*
X110658390Y-99137712D01*
X110492783Y-99258032D01*
X110492779Y-99258035D01*
X110348035Y-99402779D01*
X110348032Y-99402783D01*
X110230995Y-99563873D01*
X110164301Y-99622143D01*
X110078929Y-99645705D01*
X109991789Y-99629891D01*
X109920139Y-99577836D01*
X109909005Y-99563873D01*
X109842884Y-99472864D01*
X109791966Y-99402781D01*
X109647219Y-99258034D01*
X109555250Y-99191215D01*
X109481609Y-99137712D01*
X109481599Y-99137706D01*
X109299231Y-99044785D01*
X109299212Y-99044777D01*
X109104536Y-98981523D01*
X109104529Y-98981522D01*
X108968658Y-98960002D01*
X108902352Y-98949500D01*
X108697648Y-98949500D01*
X108636635Y-98959163D01*
X108495470Y-98981522D01*
X108495463Y-98981523D01*
X108300787Y-99044777D01*
X108300768Y-99044785D01*
X108118400Y-99137706D01*
X108118390Y-99137712D01*
X107952783Y-99258032D01*
X107952779Y-99258035D01*
X107808035Y-99402779D01*
X107808032Y-99402783D01*
X107690687Y-99564297D01*
X107623993Y-99622567D01*
X107538621Y-99646129D01*
X107451481Y-99630315D01*
X107379831Y-99578260D01*
X107368697Y-99564298D01*
X107339474Y-99524077D01*
X106660000Y-100203551D01*
X106660000Y-100197339D01*
X106632741Y-100095606D01*
X106580080Y-100004394D01*
X106505606Y-99929920D01*
X106414394Y-99877259D01*
X106312661Y-99850000D01*
X106306447Y-99850000D01*
X106985922Y-99170524D01*
X106941348Y-99138139D01*
X106759026Y-99045242D01*
X106759023Y-99045241D01*
X106564421Y-98982011D01*
X106564409Y-98982008D01*
X106362312Y-98950000D01*
X106157688Y-98950000D01*
X105955590Y-98982008D01*
X105955578Y-98982011D01*
X105760976Y-99045241D01*
X105760973Y-99045242D01*
X105578657Y-99138136D01*
X105578645Y-99138144D01*
X105534076Y-99170524D01*
X106213554Y-99850000D01*
X106207339Y-99850000D01*
X106105606Y-99877259D01*
X106014394Y-99929920D01*
X105939920Y-100004394D01*
X105887259Y-100095606D01*
X105860000Y-100197339D01*
X105860000Y-100203552D01*
X105180524Y-99524076D01*
X105148144Y-99568645D01*
X105148136Y-99568657D01*
X105055242Y-99750973D01*
X105055241Y-99750976D01*
X104992011Y-99945578D01*
X104992008Y-99945590D01*
X104960000Y-100147688D01*
X104960000Y-100352311D01*
X104992008Y-100554409D01*
X104992011Y-100554421D01*
X105055241Y-100749023D01*
X105055242Y-100749026D01*
X105148139Y-100931348D01*
X105180524Y-100975921D01*
X105180524Y-100975922D01*
X105860000Y-100296446D01*
X105860000Y-100302661D01*
X105887259Y-100404394D01*
X105939920Y-100495606D01*
X106014394Y-100570080D01*
X106105606Y-100622741D01*
X106207339Y-100650000D01*
X106213553Y-100650000D01*
X105534077Y-101329474D01*
X105534077Y-101329475D01*
X105578651Y-101361860D01*
X105760973Y-101454757D01*
X105760976Y-101454758D01*
X105934809Y-101511240D01*
X106010836Y-101556664D01*
X106059625Y-101630577D01*
X106071513Y-101718338D01*
X106044145Y-101802567D01*
X105982942Y-101866580D01*
X105900026Y-101897699D01*
X105873314Y-101899500D01*
X103934717Y-101899500D01*
X103848374Y-101879793D01*
X103794003Y-101841214D01*
X100643003Y-98690214D01*
X100595884Y-98615226D01*
X100585968Y-98527219D01*
X100615219Y-98443626D01*
X100677843Y-98381002D01*
X100761436Y-98351751D01*
X100783717Y-98350500D01*
X117333770Y-98350500D01*
X117457848Y-98325818D01*
X117498082Y-98317816D01*
X117543415Y-98299037D01*
X117652863Y-98253704D01*
X117792162Y-98160627D01*
X119620626Y-96332162D01*
X119713704Y-96192863D01*
X119767673Y-96062569D01*
X119777816Y-96038082D01*
X119806392Y-95894421D01*
X119810500Y-95873770D01*
X119810500Y-93701113D01*
X119815821Y-93677796D01*
X119816186Y-93653881D01*
X119824756Y-93638648D01*
X119830207Y-93614770D01*
X119855824Y-93574683D01*
X119861958Y-93567226D01*
X119951966Y-93477219D01*
X120072287Y-93311610D01*
X120072339Y-93311507D01*
X120076324Y-93306664D01*
X120106743Y-93283153D01*
X120135699Y-93257856D01*
X120141575Y-93256234D01*
X120146398Y-93252507D01*
X120184001Y-93244524D01*
X120221070Y-93234294D01*
X120227068Y-93235382D01*
X120233031Y-93234117D01*
X120270375Y-93243241D01*
X120308211Y-93250107D01*
X120313143Y-93253690D01*
X120319064Y-93255137D01*
X120348752Y-93279561D01*
X120379860Y-93302163D01*
X120386797Y-93310861D01*
X120387456Y-93311404D01*
X120387769Y-93312081D01*
X120390984Y-93316112D01*
X120508034Y-93477219D01*
X120652781Y-93621966D01*
X120818390Y-93742287D01*
X120818400Y-93742293D01*
X121000768Y-93835214D01*
X121000775Y-93835216D01*
X121000781Y-93835220D01*
X121195466Y-93898477D01*
X121397648Y-93930500D01*
X121397649Y-93930500D01*
X121602351Y-93930500D01*
X121602352Y-93930500D01*
X121804534Y-93898477D01*
X121999219Y-93835220D01*
X121999231Y-93835214D01*
X122181599Y-93742293D01*
X122181603Y-93742290D01*
X122181610Y-93742287D01*
X122347219Y-93621966D01*
X122491966Y-93477219D01*
X122612287Y-93311610D01*
X122614808Y-93306664D01*
X122705214Y-93129231D01*
X122705214Y-93129229D01*
X122705220Y-93129219D01*
X122768477Y-92934534D01*
X122800500Y-92732352D01*
X122800500Y-92527648D01*
X122768477Y-92325466D01*
X122710944Y-92148398D01*
X122705222Y-92130787D01*
X122705221Y-92130786D01*
X122705220Y-92130781D01*
X122705216Y-92130775D01*
X122705214Y-92130768D01*
X122612293Y-91948400D01*
X122612287Y-91948390D01*
X122516254Y-91816211D01*
X122491966Y-91782781D01*
X122347219Y-91638034D01*
X122181610Y-91517713D01*
X122181611Y-91517713D01*
X122181609Y-91517712D01*
X122181599Y-91517706D01*
X121999231Y-91424785D01*
X121999212Y-91424777D01*
X121804536Y-91361523D01*
X121804529Y-91361522D01*
X121689735Y-91343340D01*
X121602352Y-91329500D01*
X121397648Y-91329500D01*
X121336635Y-91339163D01*
X121195470Y-91361522D01*
X121195463Y-91361523D01*
X121000787Y-91424777D01*
X121000768Y-91424785D01*
X120818400Y-91517706D01*
X120818390Y-91517712D01*
X120652783Y-91638032D01*
X120652779Y-91638035D01*
X120508035Y-91782779D01*
X120508032Y-91782783D01*
X120390995Y-91943873D01*
X120324301Y-92002143D01*
X120238929Y-92025705D01*
X120151789Y-92009891D01*
X120080139Y-91957836D01*
X120069005Y-91943873D01*
X119976254Y-91816211D01*
X119951966Y-91782781D01*
X119807219Y-91638034D01*
X119641610Y-91517713D01*
X119641611Y-91517713D01*
X119641609Y-91517712D01*
X119641599Y-91517706D01*
X119459231Y-91424785D01*
X119459212Y-91424777D01*
X119264536Y-91361523D01*
X119264529Y-91361522D01*
X119149735Y-91343340D01*
X119062352Y-91329500D01*
X118857648Y-91329500D01*
X118796635Y-91339163D01*
X118655470Y-91361522D01*
X118655463Y-91361523D01*
X118460787Y-91424777D01*
X118460768Y-91424785D01*
X118278400Y-91517706D01*
X118278390Y-91517712D01*
X118112783Y-91638032D01*
X118112779Y-91638035D01*
X117968035Y-91782779D01*
X117968032Y-91782783D01*
X117850995Y-91943873D01*
X117784301Y-92002143D01*
X117698929Y-92025705D01*
X117611789Y-92009891D01*
X117540139Y-91957836D01*
X117529005Y-91943873D01*
X117436254Y-91816211D01*
X117411966Y-91782781D01*
X117267219Y-91638034D01*
X117101610Y-91517713D01*
X117101611Y-91517713D01*
X117101609Y-91517712D01*
X117101599Y-91517706D01*
X116919231Y-91424785D01*
X116919212Y-91424777D01*
X116724536Y-91361523D01*
X116724529Y-91361522D01*
X116609735Y-91343340D01*
X116522352Y-91329500D01*
X116317648Y-91329500D01*
X116256635Y-91339163D01*
X116115470Y-91361522D01*
X116115463Y-91361523D01*
X115920787Y-91424777D01*
X115920768Y-91424785D01*
X115738400Y-91517706D01*
X115738390Y-91517712D01*
X115572783Y-91638032D01*
X115572779Y-91638035D01*
X115428035Y-91782779D01*
X115428032Y-91782783D01*
X115310995Y-91943873D01*
X115244301Y-92002143D01*
X115158929Y-92025705D01*
X115071789Y-92009891D01*
X115000139Y-91957836D01*
X114989005Y-91943873D01*
X114896254Y-91816211D01*
X114871966Y-91782781D01*
X114727219Y-91638034D01*
X114561610Y-91517713D01*
X114561611Y-91517713D01*
X114561609Y-91517712D01*
X114561599Y-91517706D01*
X114379231Y-91424785D01*
X114379212Y-91424777D01*
X114184536Y-91361523D01*
X114184529Y-91361522D01*
X114069735Y-91343340D01*
X113982352Y-91329500D01*
X113777648Y-91329500D01*
X113716635Y-91339163D01*
X113575470Y-91361522D01*
X113575463Y-91361523D01*
X113380787Y-91424777D01*
X113380768Y-91424785D01*
X113198400Y-91517706D01*
X113198390Y-91517712D01*
X113032783Y-91638032D01*
X113032779Y-91638035D01*
X112888035Y-91782779D01*
X112888032Y-91782783D01*
X112770995Y-91943873D01*
X112704301Y-92002143D01*
X112618929Y-92025705D01*
X112531789Y-92009891D01*
X112460139Y-91957836D01*
X112449005Y-91943873D01*
X112356254Y-91816211D01*
X112331966Y-91782781D01*
X112187219Y-91638034D01*
X112021610Y-91517713D01*
X112021611Y-91517713D01*
X112021609Y-91517712D01*
X112021599Y-91517706D01*
X111839231Y-91424785D01*
X111839212Y-91424777D01*
X111644536Y-91361523D01*
X111644529Y-91361522D01*
X111529735Y-91343340D01*
X111442352Y-91329500D01*
X111237648Y-91329500D01*
X111176635Y-91339163D01*
X111035470Y-91361522D01*
X111035463Y-91361523D01*
X110840787Y-91424777D01*
X110840768Y-91424785D01*
X110658400Y-91517706D01*
X110658390Y-91517712D01*
X110492783Y-91638032D01*
X110492779Y-91638035D01*
X110348035Y-91782779D01*
X110348032Y-91782783D01*
X110230995Y-91943873D01*
X110228724Y-91945856D01*
X110227457Y-91948595D01*
X110195473Y-91974908D01*
X110164301Y-92002143D01*
X110161393Y-92002945D01*
X110159064Y-92004862D01*
X110118841Y-92014689D01*
X110078929Y-92025705D01*
X110075960Y-92025166D01*
X110073032Y-92025882D01*
X110032534Y-92017285D01*
X109991789Y-92009891D01*
X109989348Y-92008118D01*
X109986399Y-92007492D01*
X109970514Y-91994434D01*
X109920139Y-91957836D01*
X109916324Y-91953335D01*
X109912337Y-91948489D01*
X109912287Y-91948390D01*
X109791966Y-91782781D01*
X109701958Y-91692773D01*
X109695824Y-91685317D01*
X109680219Y-91654137D01*
X109661667Y-91624613D01*
X109659726Y-91613193D01*
X109656186Y-91606119D01*
X109655955Y-91590997D01*
X109650500Y-91558887D01*
X109650500Y-89542264D01*
X109670207Y-89455921D01*
X109725426Y-89386680D01*
X109805218Y-89348253D01*
X109893782Y-89348253D01*
X109912086Y-89353362D01*
X109947203Y-89364999D01*
X110049991Y-89375500D01*
X110950008Y-89375499D01*
X111052797Y-89364999D01*
X111219334Y-89309814D01*
X111368656Y-89217712D01*
X111492712Y-89093656D01*
X111492717Y-89093647D01*
X111499904Y-89084560D01*
X111501174Y-89085564D01*
X111553961Y-89031891D01*
X111637308Y-89001944D01*
X111661237Y-89000500D01*
X113598540Y-89000500D01*
X113598541Y-89000500D01*
X113695188Y-88981275D01*
X113791836Y-88962051D01*
X113873682Y-88928149D01*
X113973914Y-88886632D01*
X114137782Y-88777139D01*
X114277139Y-88637782D01*
X114277139Y-88637780D01*
X114293518Y-88621402D01*
X114293521Y-88621397D01*
X117356135Y-85558785D01*
X117431124Y-85511666D01*
X117496849Y-85500499D01*
X118150006Y-85500499D01*
X118150008Y-85500499D01*
X118252797Y-85489999D01*
X118419334Y-85434814D01*
X118568656Y-85342712D01*
X118692712Y-85218656D01*
X118738384Y-85144608D01*
X118800481Y-85081469D01*
X118883828Y-85051523D01*
X118971914Y-85060705D01*
X119047292Y-85107198D01*
X119048469Y-85108365D01*
X119120210Y-85180106D01*
X119151441Y-85202796D01*
X119292184Y-85305051D01*
X119366090Y-85342708D01*
X119481581Y-85401554D01*
X119481584Y-85401555D01*
X119481588Y-85401557D01*
X119683757Y-85467246D01*
X119893713Y-85500500D01*
X120106287Y-85500500D01*
X120316243Y-85467246D01*
X120518412Y-85401557D01*
X120707816Y-85305051D01*
X120879792Y-85180104D01*
X121001111Y-85058785D01*
X121076100Y-85011667D01*
X121141825Y-85000500D01*
X124434628Y-85000500D01*
X124520971Y-85020207D01*
X124590212Y-85075426D01*
X124628639Y-85155218D01*
X124632598Y-85179276D01*
X124635000Y-85202796D01*
X124690186Y-85369334D01*
X124690187Y-85369336D01*
X124697459Y-85381125D01*
X124782288Y-85518656D01*
X124906344Y-85642712D01*
X125055666Y-85734814D01*
X125222203Y-85789999D01*
X125324991Y-85800500D01*
X126675008Y-85800499D01*
X126777797Y-85789999D01*
X126944334Y-85734814D01*
X127093656Y-85642712D01*
X127217712Y-85518656D01*
X127309814Y-85369334D01*
X127364999Y-85202797D01*
X127375500Y-85100009D01*
X127375499Y-84199992D01*
X127364999Y-84097203D01*
X127309814Y-83930666D01*
X127217712Y-83781344D01*
X127093656Y-83657288D01*
X127077658Y-83647420D01*
X127014518Y-83585320D01*
X126998279Y-83554204D01*
X126986632Y-83526087D01*
X126986630Y-83526083D01*
X126965156Y-83493945D01*
X126877139Y-83362218D01*
X126737782Y-83222861D01*
X126617040Y-83142184D01*
X126573916Y-83113369D01*
X126573909Y-83113365D01*
X126391836Y-83037949D01*
X126391832Y-83037948D01*
X126262389Y-83012200D01*
X126198541Y-82999500D01*
X126198540Y-82999500D01*
X121141825Y-82999500D01*
X121055482Y-82979793D01*
X121001111Y-82941215D01*
X120951531Y-82891635D01*
X120879792Y-82819896D01*
X120707816Y-82694949D01*
X120701223Y-82691590D01*
X120518418Y-82598445D01*
X120518407Y-82598441D01*
X120316251Y-82532756D01*
X120316234Y-82532752D01*
X120106287Y-82499500D01*
X119893713Y-82499500D01*
X119683765Y-82532752D01*
X119683748Y-82532756D01*
X119481592Y-82598441D01*
X119481581Y-82598445D01*
X119292187Y-82694947D01*
X119120210Y-82819893D01*
X119048468Y-82891635D01*
X118973479Y-82938753D01*
X118885473Y-82948669D01*
X118801880Y-82919417D01*
X118739256Y-82856793D01*
X118738530Y-82855627D01*
X118692712Y-82781344D01*
X118568656Y-82657288D01*
X118419334Y-82565186D01*
X118321455Y-82532752D01*
X118252801Y-82510002D01*
X118252799Y-82510001D01*
X118252797Y-82510001D01*
X118150009Y-82499500D01*
X118150000Y-82499500D01*
X116849992Y-82499500D01*
X116849986Y-82499501D01*
X116747204Y-82510000D01*
X116580665Y-82565186D01*
X116580663Y-82565187D01*
X116431347Y-82657286D01*
X116431340Y-82657291D01*
X116307291Y-82781340D01*
X116307286Y-82781347D01*
X116215187Y-82930663D01*
X116215186Y-82930665D01*
X116160002Y-83097198D01*
X116160001Y-83097200D01*
X116160001Y-83097203D01*
X116149500Y-83199991D01*
X116149500Y-83199999D01*
X116149500Y-83853150D01*
X116129793Y-83939493D01*
X116091214Y-83993864D01*
X113143866Y-86941214D01*
X113068878Y-86988333D01*
X113003152Y-86999500D01*
X111661237Y-86999500D01*
X111574894Y-86979793D01*
X111505653Y-86924574D01*
X111493794Y-86907714D01*
X111492714Y-86906347D01*
X111492712Y-86906344D01*
X111368656Y-86782288D01*
X111219334Y-86690186D01*
X111052801Y-86635002D01*
X111052799Y-86635001D01*
X111052797Y-86635001D01*
X110950009Y-86624500D01*
X110950000Y-86624500D01*
X110049992Y-86624500D01*
X110049983Y-86624501D01*
X109937099Y-86636032D01*
X109849200Y-86625201D01*
X109774706Y-86577304D01*
X109728370Y-86501829D01*
X109719371Y-86413724D01*
X109733024Y-86361910D01*
X109762051Y-86291836D01*
X109784811Y-86177415D01*
X109800500Y-86098544D01*
X109800500Y-85901455D01*
X109767352Y-85734813D01*
X109762051Y-85708164D01*
X109723515Y-85615132D01*
X109708680Y-85527823D01*
X109733197Y-85442721D01*
X109766649Y-85398269D01*
X111027139Y-84137782D01*
X111100986Y-84027262D01*
X111136551Y-83974035D01*
X111136557Y-83974025D01*
X111136631Y-83973915D01*
X111136632Y-83973914D01*
X111212051Y-83791835D01*
X111250500Y-83598541D01*
X111250500Y-82401459D01*
X111229323Y-82294996D01*
X111225499Y-82256173D01*
X111225499Y-82226657D01*
X111225498Y-82226650D01*
X111225408Y-82225772D01*
X111215349Y-82127292D01*
X111215349Y-82127291D01*
X111215348Y-82127287D01*
X111162005Y-81966306D01*
X111131164Y-81916306D01*
X111077308Y-81828992D01*
X111048754Y-81745162D01*
X111059401Y-81657241D01*
X111077309Y-81620053D01*
X111161548Y-81483480D01*
X111214854Y-81322612D01*
X111225000Y-81223306D01*
X111225000Y-81200000D01*
X109275001Y-81200000D01*
X109275001Y-81223319D01*
X109285143Y-81322605D01*
X109285144Y-81322610D01*
X109338451Y-81483482D01*
X109422690Y-81620051D01*
X109451246Y-81703885D01*
X109440600Y-81791806D01*
X109422691Y-81828994D01*
X109337995Y-81966305D01*
X109284652Y-82127285D01*
X109284651Y-82127290D01*
X109284651Y-82127292D01*
X109274500Y-82226655D01*
X109274500Y-82226663D01*
X109274500Y-82256176D01*
X109270676Y-82295000D01*
X109249500Y-82401456D01*
X109249500Y-83003151D01*
X109229793Y-83089494D01*
X109191214Y-83143865D01*
X107893866Y-84441214D01*
X107865596Y-84458977D01*
X107839495Y-84479793D01*
X107828461Y-84482311D01*
X107818878Y-84488333D01*
X107753152Y-84499500D01*
X107449500Y-84499500D01*
X107363157Y-84479793D01*
X107293916Y-84424574D01*
X107255489Y-84344782D01*
X107250500Y-84300500D01*
X107250500Y-82351459D01*
X107229323Y-82244996D01*
X107225499Y-82206173D01*
X107225499Y-82176657D01*
X107225498Y-82176650D01*
X107215349Y-82077291D01*
X107215348Y-82077287D01*
X107162005Y-81916306D01*
X107108150Y-81828995D01*
X107077308Y-81778992D01*
X107048754Y-81695162D01*
X107059401Y-81607241D01*
X107077309Y-81570053D01*
X107161548Y-81433480D01*
X107214854Y-81272612D01*
X107225000Y-81173306D01*
X107225000Y-81150000D01*
X105275001Y-81150000D01*
X105275001Y-81173319D01*
X105285143Y-81272605D01*
X105285144Y-81272610D01*
X105338451Y-81433482D01*
X105422690Y-81570051D01*
X105451246Y-81653885D01*
X105440600Y-81741806D01*
X105422691Y-81778994D01*
X105337995Y-81916305D01*
X105284652Y-82077285D01*
X105284651Y-82077290D01*
X105284651Y-82077292D01*
X105274500Y-82176655D01*
X105274500Y-82176663D01*
X105274500Y-82206176D01*
X105270676Y-82245000D01*
X105249500Y-82351456D01*
X105249500Y-84300500D01*
X105229793Y-84386843D01*
X105174574Y-84456084D01*
X105094782Y-84494511D01*
X105050500Y-84499500D01*
X99127344Y-84499500D01*
X99041001Y-84479793D01*
X98973116Y-84426257D01*
X98971744Y-84424574D01*
X98861109Y-84288891D01*
X98703407Y-84160302D01*
X98523049Y-84066091D01*
X98523046Y-84066090D01*
X98523044Y-84066089D01*
X98327418Y-84010114D01*
X98327419Y-84010114D01*
X98208038Y-83999500D01*
X95291973Y-83999500D01*
X95291945Y-83999502D01*
X95172584Y-84010113D01*
X94976954Y-84066089D01*
X94796591Y-84160303D01*
X94638891Y-84288891D01*
X94510303Y-84446591D01*
X94416089Y-84626955D01*
X94360114Y-84822581D01*
X94349500Y-84941951D01*
X94349500Y-86058026D01*
X94349502Y-86058054D01*
X94360113Y-86177415D01*
X94416089Y-86373045D01*
X94416090Y-86373048D01*
X94416091Y-86373049D01*
X94510302Y-86553407D01*
X94638891Y-86711109D01*
X94796593Y-86839698D01*
X94976951Y-86933909D01*
X95172582Y-86989886D01*
X95291963Y-87000500D01*
X98208036Y-87000499D01*
X98327418Y-86989886D01*
X98523049Y-86933909D01*
X98703407Y-86839698D01*
X98861109Y-86711109D01*
X98973116Y-86573742D01*
X99042953Y-86519280D01*
X99127344Y-86500500D01*
X106151459Y-86500500D01*
X106332704Y-86500500D01*
X106419047Y-86520207D01*
X106488288Y-86575426D01*
X106526715Y-86655218D01*
X106526715Y-86743782D01*
X106493298Y-86817018D01*
X106484251Y-86829380D01*
X106407288Y-86906344D01*
X106315186Y-87055666D01*
X106312308Y-87064350D01*
X106297557Y-87084509D01*
X106278465Y-87101074D01*
X106262950Y-87121031D01*
X106247522Y-87132453D01*
X106112223Y-87222857D01*
X106112215Y-87222863D01*
X105482864Y-87852214D01*
X105482858Y-87852222D01*
X105373369Y-88016083D01*
X105373365Y-88016090D01*
X105297949Y-88198163D01*
X105297948Y-88198167D01*
X105259500Y-88391459D01*
X105259500Y-91729868D01*
X105239793Y-91816211D01*
X105221497Y-91846833D01*
X105147713Y-91948390D01*
X105147711Y-91948392D01*
X105147707Y-91948399D01*
X105147706Y-91948400D01*
X105054785Y-92130768D01*
X105054777Y-92130787D01*
X104991523Y-92325463D01*
X104991522Y-92325470D01*
X104969163Y-92466635D01*
X104961299Y-92516293D01*
X104959500Y-92527649D01*
X104959500Y-92732350D01*
X104991522Y-92934529D01*
X104991523Y-92934536D01*
X105057196Y-93136655D01*
X105054974Y-93137376D01*
X105055588Y-93140992D01*
X105062921Y-93156218D01*
X105062921Y-93184129D01*
X105067598Y-93211645D01*
X105062921Y-93227883D01*
X105062921Y-93244782D01*
X105050810Y-93269928D01*
X105043086Y-93296748D01*
X105031825Y-93309349D01*
X105024494Y-93324574D01*
X105002673Y-93341975D01*
X104984076Y-93362789D01*
X104968465Y-93369256D01*
X104955253Y-93379793D01*
X104928040Y-93386003D01*
X104902257Y-93396686D01*
X104868910Y-93399500D01*
X104684716Y-93399500D01*
X104598373Y-93379793D01*
X104544002Y-93341214D01*
X103812168Y-92609378D01*
X103812161Y-92609372D01*
X103672865Y-92516297D01*
X103672858Y-92516293D01*
X103559888Y-92469500D01*
X103559888Y-92469501D01*
X103559886Y-92469500D01*
X103518082Y-92452184D01*
X103518077Y-92452183D01*
X103353770Y-92419500D01*
X103353767Y-92419500D01*
X97374232Y-92419500D01*
X97287889Y-92399793D01*
X97218648Y-92344574D01*
X97180221Y-92264782D01*
X97179728Y-92258040D01*
X97172296Y-92250000D01*
X94227704Y-92250000D01*
X94227900Y-92252490D01*
X94227901Y-92252495D01*
X94273718Y-92410199D01*
X94346466Y-92533208D01*
X94373456Y-92617559D01*
X94361174Y-92705266D01*
X94346467Y-92735806D01*
X94273257Y-92859598D01*
X94227402Y-93017430D01*
X94224500Y-93054311D01*
X94224500Y-93485688D01*
X94227402Y-93522569D01*
X94273257Y-93680401D01*
X94346176Y-93803702D01*
X94373165Y-93888053D01*
X94360883Y-93975760D01*
X94346176Y-94006298D01*
X94273257Y-94129598D01*
X94258325Y-94180996D01*
X94227402Y-94287431D01*
X94224500Y-94324306D01*
X94224500Y-94755694D01*
X94227402Y-94792569D01*
X94246668Y-94858884D01*
X94273257Y-94950401D01*
X94346176Y-95073702D01*
X94373165Y-95158053D01*
X94360883Y-95245760D01*
X94346176Y-95276298D01*
X94273257Y-95399598D01*
X94273256Y-95399602D01*
X94227402Y-95557431D01*
X94224500Y-95594306D01*
X94224500Y-96025694D01*
X94227402Y-96062569D01*
X94265255Y-96192860D01*
X94273257Y-96220401D01*
X94346176Y-96343702D01*
X94373165Y-96428053D01*
X94360883Y-96515760D01*
X94346176Y-96546298D01*
X94273257Y-96669598D01*
X94227402Y-96827430D01*
X94224500Y-96864311D01*
X94224500Y-97295688D01*
X94227402Y-97332569D01*
X94273257Y-97490401D01*
X94346176Y-97613702D01*
X94373165Y-97698053D01*
X94360883Y-97785760D01*
X94346176Y-97816298D01*
X94273257Y-97939598D01*
X94273256Y-97939602D01*
X94227402Y-98097431D01*
X94224500Y-98134306D01*
X94224500Y-98565694D01*
X94227402Y-98602569D01*
X94268121Y-98742725D01*
X94273257Y-98760401D01*
X94346176Y-98883702D01*
X94373165Y-98968053D01*
X94360883Y-99055760D01*
X94346176Y-99086298D01*
X94273257Y-99209598D01*
X94228583Y-99363367D01*
X94227402Y-99367431D01*
X94224621Y-99402779D01*
X94224500Y-99404311D01*
X94224500Y-99835688D01*
X94227402Y-99872569D01*
X94273257Y-100030401D01*
X94346176Y-100153702D01*
X94373165Y-100238053D01*
X94360883Y-100325760D01*
X94346176Y-100356298D01*
X94273257Y-100479598D01*
X94237245Y-100603553D01*
X94227402Y-100637431D01*
X94224500Y-100674306D01*
X94224500Y-101105694D01*
X94226940Y-101136697D01*
X94227402Y-101142568D01*
X94273256Y-101300399D01*
X94356917Y-101441863D01*
X94473136Y-101558082D01*
X94614600Y-101641743D01*
X94614602Y-101641744D01*
X94772431Y-101687598D01*
X94809306Y-101690500D01*
X95370530Y-101690500D01*
X95446681Y-101705646D01*
X95451918Y-101707816D01*
X95492996Y-101715987D01*
X95616230Y-101740500D01*
X95616233Y-101740500D01*
X96455283Y-101740500D01*
X96541626Y-101760207D01*
X96595997Y-101798786D01*
X100707830Y-105910619D01*
X100707835Y-105910623D01*
X100707838Y-105910626D01*
X100707841Y-105910628D01*
X100847132Y-106003701D01*
X100847133Y-106003701D01*
X100847137Y-106003704D01*
X100956579Y-106049035D01*
X100956583Y-106049038D01*
X101001910Y-106067813D01*
X101001912Y-106067813D01*
X101001918Y-106067816D01*
X101024054Y-106072219D01*
X101166230Y-106100500D01*
X101166233Y-106100500D01*
X112083770Y-106100500D01*
X112225946Y-106072219D01*
X112248082Y-106067816D01*
X112293415Y-106049037D01*
X112402863Y-106003704D01*
X112542162Y-105910627D01*
X114540626Y-103912162D01*
X114633703Y-103772863D01*
X114642379Y-103751918D01*
X114697816Y-103618082D01*
X114719276Y-103510194D01*
X114730500Y-103453770D01*
X114730500Y-101321113D01*
X114735821Y-101297796D01*
X114736186Y-101273881D01*
X114744756Y-101258648D01*
X114750207Y-101234770D01*
X114775824Y-101194683D01*
X114781958Y-101187226D01*
X114871966Y-101097219D01*
X114992287Y-100931610D01*
X114992339Y-100931507D01*
X114996324Y-100926664D01*
X115026743Y-100903153D01*
X115055699Y-100877856D01*
X115061575Y-100876234D01*
X115066398Y-100872507D01*
X115104001Y-100864524D01*
X115141070Y-100854294D01*
X115147068Y-100855382D01*
X115153031Y-100854117D01*
X115190375Y-100863241D01*
X115228211Y-100870107D01*
X115233143Y-100873690D01*
X115239064Y-100875137D01*
X115268752Y-100899561D01*
X115299860Y-100922163D01*
X115306797Y-100930861D01*
X115307456Y-100931404D01*
X115307769Y-100932081D01*
X115310984Y-100936112D01*
X115428034Y-101097219D01*
X115572781Y-101241966D01*
X115693228Y-101329475D01*
X115738390Y-101362287D01*
X115738400Y-101362293D01*
X115920768Y-101455214D01*
X115920775Y-101455216D01*
X115920781Y-101455220D01*
X116115466Y-101518477D01*
X116317648Y-101550500D01*
X116317649Y-101550500D01*
X116522351Y-101550500D01*
X116522352Y-101550500D01*
X116724534Y-101518477D01*
X116919219Y-101455220D01*
X116945434Y-101441863D01*
X117101599Y-101362293D01*
X117101603Y-101362290D01*
X117101610Y-101362287D01*
X117267219Y-101241966D01*
X117411966Y-101097219D01*
X117529007Y-100936123D01*
X117595699Y-100877856D01*
X117681070Y-100854294D01*
X117768211Y-100870107D01*
X117839860Y-100922163D01*
X117850984Y-100936112D01*
X117968034Y-101097219D01*
X118112781Y-101241966D01*
X118233228Y-101329475D01*
X118278390Y-101362287D01*
X118278400Y-101362293D01*
X118460768Y-101455214D01*
X118460775Y-101455216D01*
X118460781Y-101455220D01*
X118655466Y-101518477D01*
X118857648Y-101550500D01*
X118857649Y-101550500D01*
X119062351Y-101550500D01*
X119062352Y-101550500D01*
X119264534Y-101518477D01*
X119459219Y-101455220D01*
X119485434Y-101441863D01*
X119641599Y-101362293D01*
X119641600Y-101362292D01*
X119641599Y-101362292D01*
X119641610Y-101362287D01*
X119743165Y-101288503D01*
X119759716Y-101281429D01*
X119773789Y-101270207D01*
X119799938Y-101264238D01*
X119824601Y-101253698D01*
X119860132Y-101250500D01*
X120256703Y-101250500D01*
X120343046Y-101270207D01*
X120397416Y-101308785D01*
X120450492Y-101361860D01*
X120481344Y-101392712D01*
X120630666Y-101484814D01*
X120797203Y-101539999D01*
X120899991Y-101550500D01*
X122100008Y-101550499D01*
X122202797Y-101539999D01*
X122369334Y-101484814D01*
X122518656Y-101392712D01*
X122561364Y-101350004D01*
X122602584Y-101308785D01*
X122677572Y-101261667D01*
X122743297Y-101250500D01*
X127348540Y-101250500D01*
X127348541Y-101250500D01*
X127445188Y-101231275D01*
X127541836Y-101212051D01*
X127595165Y-101189961D01*
X127723914Y-101136632D01*
X127887782Y-101027139D01*
X128027139Y-100887782D01*
X128027140Y-100887780D01*
X128038475Y-100876445D01*
X128038481Y-100876438D01*
X130376438Y-98538481D01*
X130376445Y-98538475D01*
X130387780Y-98527140D01*
X130387782Y-98527139D01*
X130527139Y-98387782D01*
X130635038Y-98226300D01*
X130699393Y-98165458D01*
X130783774Y-98138563D01*
X130871468Y-98150944D01*
X130945106Y-98200147D01*
X130990102Y-98276427D01*
X130999500Y-98336859D01*
X130999500Y-112800500D01*
X130979793Y-112886843D01*
X130924574Y-112956084D01*
X130844782Y-112994511D01*
X130800500Y-112999500D01*
X122767878Y-112999500D01*
X122681535Y-112979793D01*
X122612294Y-112924574D01*
X122573867Y-112844782D01*
X122568878Y-112800500D01*
X122568878Y-109628714D01*
X125149500Y-109628714D01*
X125149500Y-109871285D01*
X125181162Y-110111788D01*
X125181165Y-110111801D01*
X125192446Y-110153902D01*
X125243946Y-110346100D01*
X125336776Y-110570212D01*
X125370551Y-110628712D01*
X125458060Y-110780284D01*
X125605737Y-110972741D01*
X125777258Y-111144262D01*
X125969715Y-111291939D01*
X126048335Y-111337329D01*
X126179788Y-111413224D01*
X126403900Y-111506054D01*
X126638211Y-111568838D01*
X126878712Y-111600500D01*
X126878715Y-111600500D01*
X127121285Y-111600500D01*
X127121288Y-111600500D01*
X127361789Y-111568838D01*
X127596100Y-111506054D01*
X127820212Y-111413224D01*
X128030289Y-111291936D01*
X128222738Y-111144265D01*
X128394265Y-110972738D01*
X128541936Y-110780289D01*
X128663224Y-110570212D01*
X128756054Y-110346100D01*
X128818838Y-110111789D01*
X128850500Y-109871288D01*
X128850500Y-109628712D01*
X128818838Y-109388211D01*
X128756054Y-109153900D01*
X128663224Y-108929788D01*
X128571722Y-108771302D01*
X128541939Y-108719715D01*
X128394262Y-108527258D01*
X128222741Y-108355737D01*
X128030284Y-108208060D01*
X127903548Y-108134890D01*
X127820212Y-108086776D01*
X127596100Y-107993946D01*
X127596098Y-107993945D01*
X127596097Y-107993945D01*
X127361801Y-107931165D01*
X127361795Y-107931163D01*
X127361789Y-107931162D01*
X127121288Y-107899500D01*
X126878712Y-107899500D01*
X126638211Y-107931162D01*
X126638198Y-107931165D01*
X126403902Y-107993945D01*
X126179792Y-108086774D01*
X126179790Y-108086775D01*
X125969715Y-108208060D01*
X125777258Y-108355737D01*
X125605737Y-108527258D01*
X125458060Y-108719715D01*
X125336775Y-108929790D01*
X125336774Y-108929792D01*
X125243945Y-109153902D01*
X125188117Y-109362255D01*
X125181162Y-109388211D01*
X125151306Y-109614999D01*
X125149500Y-109628714D01*
X122568878Y-109628714D01*
X122568878Y-107728687D01*
X111256153Y-107728687D01*
X111256153Y-112800500D01*
X111236446Y-112886843D01*
X111181227Y-112956084D01*
X111101435Y-112994511D01*
X111057153Y-112999500D01*
X66949500Y-112999500D01*
X66863157Y-112979793D01*
X66793916Y-112924574D01*
X66755489Y-112844782D01*
X66750500Y-112800500D01*
X66750500Y-110628712D01*
X69899500Y-110628712D01*
X69899500Y-110871288D01*
X69931162Y-111111788D01*
X69931165Y-111111801D01*
X69979433Y-111291939D01*
X69993946Y-111346100D01*
X70086776Y-111570212D01*
X70104263Y-111600500D01*
X70208060Y-111780284D01*
X70355737Y-111972741D01*
X70527258Y-112144262D01*
X70719715Y-112291939D01*
X70798335Y-112337329D01*
X70929788Y-112413224D01*
X71153900Y-112506054D01*
X71388211Y-112568838D01*
X71628712Y-112600500D01*
X71628715Y-112600500D01*
X71871285Y-112600500D01*
X71871288Y-112600500D01*
X72111789Y-112568838D01*
X72346100Y-112506054D01*
X72570212Y-112413224D01*
X72780289Y-112291936D01*
X72972738Y-112144265D01*
X73144265Y-111972738D01*
X73291936Y-111780289D01*
X73413224Y-111570212D01*
X73506054Y-111346100D01*
X73568838Y-111111789D01*
X73600500Y-110871288D01*
X73600500Y-110628712D01*
X73568838Y-110388211D01*
X73506054Y-110153900D01*
X73413224Y-109929788D01*
X73314781Y-109759280D01*
X73291938Y-109719714D01*
X73291936Y-109719711D01*
X73144265Y-109527262D01*
X73144262Y-109527258D01*
X72972741Y-109355737D01*
X72780284Y-109208060D01*
X72653548Y-109134890D01*
X72570212Y-109086776D01*
X72346100Y-108993946D01*
X72346098Y-108993945D01*
X72346097Y-108993945D01*
X72111801Y-108931165D01*
X72111795Y-108931163D01*
X72111789Y-108931162D01*
X71871288Y-108899500D01*
X71628712Y-108899500D01*
X71398648Y-108929788D01*
X71388211Y-108931162D01*
X71388198Y-108931165D01*
X71153902Y-108993945D01*
X70929792Y-109086774D01*
X70929790Y-109086775D01*
X70719715Y-109208060D01*
X70527258Y-109355737D01*
X70355737Y-109527258D01*
X70208060Y-109719715D01*
X70086775Y-109929790D01*
X70086774Y-109929792D01*
X69993945Y-110153902D01*
X69939992Y-110355258D01*
X69931162Y-110388211D01*
X69899500Y-110628712D01*
X66750500Y-110628712D01*
X66750500Y-105118905D01*
X71000000Y-105118905D01*
X71000000Y-105381094D01*
X71034220Y-105641013D01*
X71102075Y-105894254D01*
X71102077Y-105894260D01*
X71202403Y-106136470D01*
X71202405Y-106136472D01*
X71333491Y-106363521D01*
X71333494Y-106363527D01*
X71420079Y-106476365D01*
X71420080Y-106476366D01*
X72398958Y-105497488D01*
X72423978Y-105557890D01*
X72495112Y-105664351D01*
X72585649Y-105754888D01*
X72692110Y-105826022D01*
X72752511Y-105851041D01*
X71773632Y-106829918D01*
X71886473Y-106916505D01*
X71886478Y-106916508D01*
X72113527Y-107047594D01*
X72113529Y-107047596D01*
X72355739Y-107147922D01*
X72355745Y-107147924D01*
X72608986Y-107215779D01*
X72868905Y-107249999D01*
X72868911Y-107250000D01*
X73131089Y-107250000D01*
X73131094Y-107249999D01*
X73391013Y-107215779D01*
X73644254Y-107147924D01*
X73644260Y-107147922D01*
X73886470Y-107047596D01*
X73886472Y-107047594D01*
X74113521Y-106916508D01*
X74113528Y-106916504D01*
X74226365Y-106829919D01*
X74226366Y-106829918D01*
X73247489Y-105851041D01*
X73307890Y-105826022D01*
X73414351Y-105754888D01*
X73504888Y-105664351D01*
X73576022Y-105557890D01*
X73601041Y-105497489D01*
X74579918Y-106476366D01*
X74579919Y-106476365D01*
X74666504Y-106363528D01*
X74666508Y-106363521D01*
X74797594Y-106136472D01*
X74797596Y-106136470D01*
X74897922Y-105894260D01*
X74897924Y-105894254D01*
X74965779Y-105641013D01*
X74999999Y-105381094D01*
X75000000Y-105381089D01*
X75000000Y-105118910D01*
X74999999Y-105118905D01*
X74965779Y-104858986D01*
X74897924Y-104605745D01*
X74897922Y-104605739D01*
X74797596Y-104363529D01*
X74797594Y-104363527D01*
X74666508Y-104136478D01*
X74666505Y-104136473D01*
X74579918Y-104023633D01*
X74579918Y-104023632D01*
X73601041Y-105002510D01*
X73576022Y-104942110D01*
X73504888Y-104835649D01*
X73414351Y-104745112D01*
X73307890Y-104673978D01*
X73247488Y-104648958D01*
X74226366Y-103670080D01*
X74226365Y-103670079D01*
X74113527Y-103583494D01*
X74113521Y-103583491D01*
X73886472Y-103452405D01*
X73886470Y-103452403D01*
X73644260Y-103352077D01*
X73644254Y-103352075D01*
X73391013Y-103284220D01*
X73131094Y-103250000D01*
X72868905Y-103250000D01*
X72608986Y-103284220D01*
X72355745Y-103352075D01*
X72355739Y-103352077D01*
X72113529Y-103452403D01*
X72113527Y-103452405D01*
X71886480Y-103583489D01*
X71773633Y-103670080D01*
X72752512Y-104648958D01*
X72692110Y-104673978D01*
X72585649Y-104745112D01*
X72495112Y-104835649D01*
X72423978Y-104942110D01*
X72398958Y-105002511D01*
X71420080Y-104023633D01*
X71333489Y-104136480D01*
X71202405Y-104363527D01*
X71202403Y-104363529D01*
X71102077Y-104605739D01*
X71102075Y-104605745D01*
X71034220Y-104858986D01*
X71000000Y-105118905D01*
X66750500Y-105118905D01*
X66750500Y-100118874D01*
X70999500Y-100118874D01*
X70999500Y-100381125D01*
X71033729Y-100641112D01*
X71033730Y-100641116D01*
X71101602Y-100894419D01*
X71112919Y-100921741D01*
X71201954Y-101136691D01*
X71201955Y-101136694D01*
X71201957Y-101136697D01*
X71333076Y-101363803D01*
X71403225Y-101455222D01*
X71492721Y-101571855D01*
X71678144Y-101757278D01*
X71678148Y-101757281D01*
X71678149Y-101757282D01*
X71886197Y-101916924D01*
X72113303Y-102048043D01*
X72355581Y-102148398D01*
X72608884Y-102216270D01*
X72868875Y-102250499D01*
X72868878Y-102250500D01*
X72868880Y-102250500D01*
X73131122Y-102250500D01*
X73131123Y-102250499D01*
X73391116Y-102216270D01*
X73644419Y-102148398D01*
X73886697Y-102048043D01*
X74113803Y-101916924D01*
X74321851Y-101757282D01*
X74321855Y-101757278D01*
X74321859Y-101757275D01*
X74507275Y-101571859D01*
X74507278Y-101571855D01*
X74507282Y-101571851D01*
X74666924Y-101363803D01*
X74674891Y-101350004D01*
X74735128Y-101285081D01*
X74817568Y-101252723D01*
X74847232Y-101250500D01*
X75503152Y-101250500D01*
X75589495Y-101270207D01*
X75643866Y-101308786D01*
X81401214Y-107066134D01*
X81448333Y-107141122D01*
X81459500Y-107206848D01*
X81459500Y-108565719D01*
X81452644Y-108595756D01*
X81450006Y-108626451D01*
X81443027Y-108637890D01*
X81439793Y-108652062D01*
X81404889Y-108702660D01*
X81403068Y-108704579D01*
X81351714Y-108755934D01*
X81343040Y-108767872D01*
X81334080Y-108777320D01*
X81307780Y-108794832D01*
X81283983Y-108815622D01*
X81271308Y-108819119D01*
X81260364Y-108826407D01*
X81229068Y-108830774D01*
X81198610Y-108839179D01*
X81185673Y-108836830D01*
X81172651Y-108838648D01*
X81142559Y-108829004D01*
X81111470Y-108823361D01*
X81100833Y-108815632D01*
X81088313Y-108811620D01*
X81065387Y-108789876D01*
X81039824Y-108771302D01*
X81028701Y-108757354D01*
X81027909Y-108756264D01*
X81027903Y-108756257D01*
X80866243Y-108594597D01*
X80681277Y-108460212D01*
X80477562Y-108356415D01*
X80260132Y-108285767D01*
X80170000Y-108271490D01*
X80170000Y-109259252D01*
X80132292Y-109237482D01*
X79992409Y-109200000D01*
X79847591Y-109200000D01*
X79707708Y-109237482D01*
X79670000Y-109259252D01*
X79670000Y-108271490D01*
X79579867Y-108285767D01*
X79362437Y-108356415D01*
X79158722Y-108460212D01*
X78973756Y-108594597D01*
X78812097Y-108756256D01*
X78677712Y-108941222D01*
X78573914Y-109144938D01*
X78573914Y-109144939D01*
X78503266Y-109362369D01*
X78503264Y-109362377D01*
X78481468Y-109499999D01*
X78481469Y-109500000D01*
X79429252Y-109500000D01*
X79407482Y-109537708D01*
X79370000Y-109677591D01*
X79370000Y-109822409D01*
X79407482Y-109962292D01*
X79429252Y-110000000D01*
X78481468Y-110000000D01*
X78503264Y-110137622D01*
X78503266Y-110137630D01*
X78573914Y-110355060D01*
X78573914Y-110355061D01*
X78677712Y-110558777D01*
X78812097Y-110743743D01*
X78973756Y-110905402D01*
X79158722Y-111039787D01*
X79362439Y-111143585D01*
X79579869Y-111214233D01*
X79579878Y-111214235D01*
X79669999Y-111228508D01*
X79670000Y-111228508D01*
X79670000Y-110240747D01*
X79707708Y-110262518D01*
X79847591Y-110300000D01*
X79992409Y-110300000D01*
X80132292Y-110262518D01*
X80170000Y-110240747D01*
X80170000Y-111228508D01*
X80260121Y-111214235D01*
X80260130Y-111214233D01*
X80477560Y-111143585D01*
X80477561Y-111143585D01*
X80681277Y-111039787D01*
X80866243Y-110905402D01*
X81027901Y-110743744D01*
X81028693Y-110742655D01*
X81029241Y-110742175D01*
X81032984Y-110737794D01*
X81033627Y-110738343D01*
X81095386Y-110684384D01*
X81180757Y-110660821D01*
X81267898Y-110676632D01*
X81339549Y-110728686D01*
X81350687Y-110742653D01*
X81351714Y-110744067D01*
X81513431Y-110905784D01*
X81513438Y-110905790D01*
X81632558Y-110992335D01*
X81698462Y-111040217D01*
X81902242Y-111144048D01*
X82119755Y-111214722D01*
X82345646Y-111250500D01*
X82345647Y-111250500D01*
X82574353Y-111250500D01*
X82574354Y-111250500D01*
X82800245Y-111214722D01*
X83017758Y-111144048D01*
X83221538Y-111040217D01*
X83333583Y-110958811D01*
X83415015Y-110924005D01*
X83503489Y-110927978D01*
X83581478Y-110969945D01*
X83609856Y-111000550D01*
X83689953Y-111107546D01*
X83739000Y-111144262D01*
X83805169Y-111193796D01*
X83940017Y-111244091D01*
X83999627Y-111250500D01*
X86000372Y-111250499D01*
X86000376Y-111250499D01*
X86040112Y-111246227D01*
X86059983Y-111244091D01*
X86194831Y-111193796D01*
X86310046Y-111107546D01*
X86396296Y-110992331D01*
X86446591Y-110857483D01*
X86453000Y-110797873D01*
X86452999Y-109349499D01*
X86472706Y-109263157D01*
X86527924Y-109193916D01*
X86607717Y-109155489D01*
X86651999Y-109150500D01*
X88927083Y-109150500D01*
X89013426Y-109170207D01*
X89082667Y-109225426D01*
X89096450Y-109245022D01*
X89157288Y-109343656D01*
X89281344Y-109467712D01*
X89430666Y-109559814D01*
X89597203Y-109614999D01*
X89699991Y-109625500D01*
X90600008Y-109625499D01*
X90702797Y-109614999D01*
X90869334Y-109559814D01*
X91018656Y-109467712D01*
X91142712Y-109343656D01*
X91234814Y-109194334D01*
X91289999Y-109027797D01*
X91300500Y-108925009D01*
X91300500Y-108924983D01*
X92100001Y-108924983D01*
X92110493Y-109027695D01*
X92110493Y-109027696D01*
X92165641Y-109194120D01*
X92257682Y-109343342D01*
X92257685Y-109343346D01*
X92381653Y-109467314D01*
X92381657Y-109467317D01*
X92530878Y-109559357D01*
X92697299Y-109614504D01*
X92800029Y-109624999D01*
X92999999Y-109624999D01*
X93500000Y-109624999D01*
X93699977Y-109624999D01*
X93699983Y-109624998D01*
X93802695Y-109614506D01*
X93802696Y-109614506D01*
X93969120Y-109559358D01*
X94118342Y-109467317D01*
X94118346Y-109467314D01*
X94242314Y-109343346D01*
X94242317Y-109343342D01*
X94334357Y-109194121D01*
X94389504Y-109027700D01*
X94400000Y-108924970D01*
X94400000Y-108500000D01*
X93500000Y-108500000D01*
X93500000Y-109624999D01*
X92999999Y-109624999D01*
X93000000Y-109624998D01*
X93000000Y-108500000D01*
X92100001Y-108500000D01*
X92100001Y-108924983D01*
X91300500Y-108924983D01*
X91300499Y-108249501D01*
X91300499Y-107575029D01*
X92100000Y-107575029D01*
X92100000Y-108000000D01*
X93000000Y-108000000D01*
X93500000Y-108000000D01*
X94399999Y-108000000D01*
X94399999Y-107575022D01*
X94399998Y-107575016D01*
X94389506Y-107472304D01*
X94389506Y-107472303D01*
X94334358Y-107305879D01*
X94242317Y-107156657D01*
X94242314Y-107156653D01*
X94118346Y-107032685D01*
X94118342Y-107032682D01*
X93969121Y-106940642D01*
X93802700Y-106885495D01*
X93699970Y-106875000D01*
X93500000Y-106875000D01*
X93500000Y-108000000D01*
X93000000Y-108000000D01*
X93000000Y-106875000D01*
X92800023Y-106875000D01*
X92800016Y-106875001D01*
X92697304Y-106885493D01*
X92697303Y-106885493D01*
X92530879Y-106940641D01*
X92381657Y-107032682D01*
X92381653Y-107032685D01*
X92257685Y-107156653D01*
X92257682Y-107156657D01*
X92165642Y-107305878D01*
X92110495Y-107472299D01*
X92100000Y-107575029D01*
X91300499Y-107575029D01*
X91300499Y-107574992D01*
X91300498Y-107574986D01*
X91289999Y-107472204D01*
X91289999Y-107472203D01*
X91234814Y-107305666D01*
X91142712Y-107156344D01*
X91018656Y-107032288D01*
X90915496Y-106968659D01*
X90869336Y-106940187D01*
X90869334Y-106940186D01*
X90702801Y-106885002D01*
X90702799Y-106885001D01*
X90702797Y-106885001D01*
X90600009Y-106874500D01*
X90600000Y-106874500D01*
X89699992Y-106874500D01*
X89699986Y-106874501D01*
X89597204Y-106885000D01*
X89430665Y-106940186D01*
X89430663Y-106940187D01*
X89281347Y-107032286D01*
X89281340Y-107032291D01*
X89222418Y-107091214D01*
X89147430Y-107138333D01*
X89081704Y-107149500D01*
X86712720Y-107149500D01*
X86626377Y-107129793D01*
X86557136Y-107074574D01*
X86518709Y-106994782D01*
X86518709Y-106906218D01*
X86543345Y-106846034D01*
X86559814Y-106819334D01*
X86614999Y-106652797D01*
X86625500Y-106550009D01*
X86625499Y-105649992D01*
X86614999Y-105547203D01*
X86559814Y-105380666D01*
X86467712Y-105231344D01*
X86343656Y-105107288D01*
X86194334Y-105015186D01*
X86027801Y-104960002D01*
X86027799Y-104960001D01*
X86027797Y-104960001D01*
X85925009Y-104949500D01*
X85925000Y-104949500D01*
X84574992Y-104949500D01*
X84574986Y-104949501D01*
X84472204Y-104960000D01*
X84305665Y-105015186D01*
X84305663Y-105015187D01*
X84156347Y-105107286D01*
X84156340Y-105107291D01*
X84032291Y-105231340D01*
X84032286Y-105231347D01*
X83940187Y-105380663D01*
X83940186Y-105380665D01*
X83885002Y-105547198D01*
X83885001Y-105547200D01*
X83885001Y-105547203D01*
X83874500Y-105649991D01*
X83874500Y-105649998D01*
X83874500Y-105649999D01*
X83874500Y-106550007D01*
X83874501Y-106550013D01*
X83885000Y-106652795D01*
X83885001Y-106652797D01*
X83940186Y-106819334D01*
X84032288Y-106968656D01*
X84156344Y-107092712D01*
X84156346Y-107092713D01*
X84165442Y-107099906D01*
X84164436Y-107101177D01*
X84218106Y-107153956D01*
X84248055Y-107237301D01*
X84249500Y-107261237D01*
X84249500Y-108050500D01*
X84229793Y-108136843D01*
X84174574Y-108206084D01*
X84094782Y-108244511D01*
X84050504Y-108249500D01*
X83999624Y-108249500D01*
X83940018Y-108255908D01*
X83805170Y-108306203D01*
X83805164Y-108306207D01*
X83778756Y-108325976D01*
X83697824Y-108361943D01*
X83609303Y-108359233D01*
X83530723Y-108318383D01*
X83477649Y-108247484D01*
X83460500Y-108166668D01*
X83460500Y-106818379D01*
X83460501Y-106818358D01*
X83460501Y-106611460D01*
X83448278Y-106550013D01*
X83422052Y-106418165D01*
X83346632Y-106236086D01*
X83346627Y-106236078D01*
X83237146Y-106072227D01*
X83237142Y-106072223D01*
X83237140Y-106072219D01*
X76788483Y-99623563D01*
X76788482Y-99623561D01*
X76637785Y-99472864D01*
X76637782Y-99472861D01*
X76479995Y-99367431D01*
X76473916Y-99363369D01*
X76473912Y-99363367D01*
X76356575Y-99314764D01*
X76356573Y-99314763D01*
X76345165Y-99310038D01*
X76291836Y-99287949D01*
X76181511Y-99266004D01*
X76174438Y-99264597D01*
X76174427Y-99264594D01*
X76112476Y-99252271D01*
X76098541Y-99249500D01*
X76098540Y-99249500D01*
X74847232Y-99249500D01*
X74760889Y-99229793D01*
X74691648Y-99174574D01*
X74674891Y-99149996D01*
X74666927Y-99136201D01*
X74597131Y-99045242D01*
X74507282Y-98928149D01*
X74507281Y-98928148D01*
X74507278Y-98928144D01*
X74321855Y-98742721D01*
X74155701Y-98615226D01*
X74113803Y-98583076D01*
X73886697Y-98451957D01*
X73886694Y-98451955D01*
X73886691Y-98451954D01*
X73704988Y-98376690D01*
X73644419Y-98351602D01*
X73391116Y-98283730D01*
X73391115Y-98283729D01*
X73391112Y-98283729D01*
X73131125Y-98249500D01*
X73131120Y-98249500D01*
X72868880Y-98249500D01*
X72868874Y-98249500D01*
X72608887Y-98283729D01*
X72355584Y-98351601D01*
X72355578Y-98351603D01*
X72113308Y-98451954D01*
X71886198Y-98583075D01*
X71678144Y-98742721D01*
X71678141Y-98742725D01*
X71492725Y-98928141D01*
X71492721Y-98928144D01*
X71333075Y-99136198D01*
X71201954Y-99363308D01*
X71101603Y-99605578D01*
X71101601Y-99605584D01*
X71033729Y-99858887D01*
X70999500Y-100118874D01*
X66750500Y-100118874D01*
X66750500Y-85118874D01*
X70999500Y-85118874D01*
X70999500Y-85381125D01*
X71030309Y-85615135D01*
X71033730Y-85641116D01*
X71101602Y-85894419D01*
X71126690Y-85954988D01*
X71201954Y-86136691D01*
X71201955Y-86136694D01*
X71201957Y-86136697D01*
X71333076Y-86363803D01*
X71474395Y-86547973D01*
X71492721Y-86571855D01*
X71678144Y-86757278D01*
X71678148Y-86757281D01*
X71678149Y-86757282D01*
X71886197Y-86916924D01*
X72113303Y-87048043D01*
X72355581Y-87148398D01*
X72608884Y-87216270D01*
X72868875Y-87250499D01*
X72868878Y-87250500D01*
X72868880Y-87250500D01*
X73131122Y-87250500D01*
X73131123Y-87250499D01*
X73391116Y-87216270D01*
X73644419Y-87148398D01*
X73886697Y-87048043D01*
X74113803Y-86916924D01*
X74321851Y-86757282D01*
X74321855Y-86757278D01*
X74321859Y-86757275D01*
X74507275Y-86571859D01*
X74507278Y-86571855D01*
X74507282Y-86571851D01*
X74666924Y-86363803D01*
X74715141Y-86280289D01*
X74761496Y-86200000D01*
X74821734Y-86135079D01*
X74904175Y-86102723D01*
X74933835Y-86100500D01*
X76815283Y-86100500D01*
X76901626Y-86120207D01*
X76955997Y-86158786D01*
X79856997Y-89059786D01*
X79904116Y-89134774D01*
X79914032Y-89222781D01*
X79884781Y-89306374D01*
X79822157Y-89368998D01*
X79738564Y-89398249D01*
X79716283Y-89399500D01*
X74933835Y-89399500D01*
X74847492Y-89379793D01*
X74778251Y-89324574D01*
X74761496Y-89300000D01*
X74666926Y-89136200D01*
X74666924Y-89136198D01*
X74666924Y-89136197D01*
X74507282Y-88928149D01*
X74507281Y-88928148D01*
X74507278Y-88928144D01*
X74321855Y-88742721D01*
X74202922Y-88651460D01*
X74113803Y-88583076D01*
X73886697Y-88451957D01*
X73886694Y-88451955D01*
X73886691Y-88451954D01*
X73644421Y-88351603D01*
X73644423Y-88351603D01*
X73644419Y-88351602D01*
X73391116Y-88283730D01*
X73391115Y-88283729D01*
X73391112Y-88283729D01*
X73131125Y-88249500D01*
X73131120Y-88249500D01*
X72868880Y-88249500D01*
X72868874Y-88249500D01*
X72608887Y-88283729D01*
X72355584Y-88351601D01*
X72355578Y-88351603D01*
X72113308Y-88451954D01*
X71886198Y-88583075D01*
X71678144Y-88742721D01*
X71678141Y-88742725D01*
X71492725Y-88928141D01*
X71492721Y-88928144D01*
X71333075Y-89136198D01*
X71201954Y-89363308D01*
X71101603Y-89605578D01*
X71101601Y-89605584D01*
X71033729Y-89858887D01*
X70999500Y-90118874D01*
X70999500Y-90381125D01*
X71033729Y-90641112D01*
X71101601Y-90894415D01*
X71101603Y-90894421D01*
X71201954Y-91136691D01*
X71201955Y-91136694D01*
X71201957Y-91136697D01*
X71333076Y-91363803D01*
X71398023Y-91448443D01*
X71492721Y-91571855D01*
X71678144Y-91757278D01*
X71678148Y-91757281D01*
X71678149Y-91757282D01*
X71886197Y-91916924D01*
X72113303Y-92048043D01*
X72355581Y-92148398D01*
X72608884Y-92216270D01*
X72868875Y-92250499D01*
X72868878Y-92250500D01*
X72868880Y-92250500D01*
X73131122Y-92250500D01*
X73131123Y-92250499D01*
X73391116Y-92216270D01*
X73644419Y-92148398D01*
X73886697Y-92048043D01*
X74113803Y-91916924D01*
X74321851Y-91757282D01*
X74321855Y-91757278D01*
X74321860Y-91757274D01*
X74507275Y-91571859D01*
X74507278Y-91571855D01*
X74507282Y-91571851D01*
X74666924Y-91363803D01*
X74733635Y-91248256D01*
X74761496Y-91200000D01*
X74821734Y-91135079D01*
X74904175Y-91102723D01*
X74933835Y-91100500D01*
X79315283Y-91100500D01*
X79401626Y-91120207D01*
X79455997Y-91158786D01*
X86726997Y-98429786D01*
X86774116Y-98504774D01*
X86784032Y-98592781D01*
X86754781Y-98676374D01*
X86692157Y-98738998D01*
X86608564Y-98768249D01*
X86586283Y-98769500D01*
X86054716Y-98769500D01*
X85968373Y-98749793D01*
X85914002Y-98711214D01*
X83872390Y-96669602D01*
X81792162Y-94589373D01*
X81756863Y-94565787D01*
X81652866Y-94496297D01*
X81652864Y-94496296D01*
X81543414Y-94450961D01*
X81543414Y-94450960D01*
X81543411Y-94450960D01*
X81498083Y-94432184D01*
X81498079Y-94432183D01*
X81333770Y-94399500D01*
X81333767Y-94399500D01*
X74933835Y-94399500D01*
X74847492Y-94379793D01*
X74778251Y-94324574D01*
X74761496Y-94300000D01*
X74666926Y-94136200D01*
X74666924Y-94136198D01*
X74666924Y-94136197D01*
X74507282Y-93928149D01*
X74507281Y-93928148D01*
X74507278Y-93928144D01*
X74321855Y-93742721D01*
X74240636Y-93680399D01*
X74113803Y-93583076D01*
X73886697Y-93451957D01*
X73886694Y-93451955D01*
X73886691Y-93451954D01*
X73644421Y-93351603D01*
X73644423Y-93351603D01*
X73644419Y-93351602D01*
X73391116Y-93283730D01*
X73391115Y-93283729D01*
X73391112Y-93283729D01*
X73131125Y-93249500D01*
X73131120Y-93249500D01*
X72868880Y-93249500D01*
X72868874Y-93249500D01*
X72608887Y-93283729D01*
X72355584Y-93351601D01*
X72355578Y-93351603D01*
X72113308Y-93451954D01*
X71886198Y-93583075D01*
X71678144Y-93742721D01*
X71678141Y-93742725D01*
X71492725Y-93928141D01*
X71492721Y-93928144D01*
X71333075Y-94136198D01*
X71201954Y-94363308D01*
X71101603Y-94605578D01*
X71033729Y-94858887D01*
X70999500Y-95118874D01*
X70999500Y-95381125D01*
X71033729Y-95641112D01*
X71101601Y-95894415D01*
X71101603Y-95894421D01*
X71201954Y-96136691D01*
X71201955Y-96136694D01*
X71201957Y-96136697D01*
X71333076Y-96363803D01*
X71449678Y-96515760D01*
X71492721Y-96571855D01*
X71678144Y-96757278D01*
X71678148Y-96757281D01*
X71678149Y-96757282D01*
X71886197Y-96916924D01*
X72113303Y-97048043D01*
X72355581Y-97148398D01*
X72608884Y-97216270D01*
X72868875Y-97250499D01*
X72868878Y-97250500D01*
X72868880Y-97250500D01*
X73131122Y-97250500D01*
X73131123Y-97250499D01*
X73391116Y-97216270D01*
X73644419Y-97148398D01*
X73886697Y-97048043D01*
X74113803Y-96916924D01*
X74321851Y-96757282D01*
X74321855Y-96757278D01*
X74321859Y-96757275D01*
X74507275Y-96571859D01*
X74507278Y-96571855D01*
X74507282Y-96571851D01*
X74666924Y-96363803D01*
X74749717Y-96220401D01*
X74761496Y-96200000D01*
X74821734Y-96135079D01*
X74904175Y-96102723D01*
X74933835Y-96100500D01*
X80815283Y-96100500D01*
X80901626Y-96120207D01*
X80955997Y-96158786D01*
X85031497Y-100234286D01*
X85078616Y-100309274D01*
X85088532Y-100397281D01*
X85059281Y-100480874D01*
X85031497Y-100515714D01*
X84589376Y-100957834D01*
X84589370Y-100957842D01*
X84496297Y-101097133D01*
X84496295Y-101097138D01*
X84477478Y-101142568D01*
X84477478Y-101142569D01*
X84432184Y-101251918D01*
X84432183Y-101251921D01*
X84399500Y-101416229D01*
X84399500Y-101746243D01*
X84379793Y-101832586D01*
X84324574Y-101901827D01*
X84304969Y-101915616D01*
X84156347Y-102007286D01*
X84156340Y-102007291D01*
X84032291Y-102131340D01*
X84032286Y-102131347D01*
X83940187Y-102280663D01*
X83940186Y-102280665D01*
X83885002Y-102447198D01*
X83885001Y-102447200D01*
X83885001Y-102447203D01*
X83874500Y-102549991D01*
X83874500Y-102549998D01*
X83874500Y-102549999D01*
X83874500Y-103450007D01*
X83874501Y-103450013D01*
X83885000Y-103552795D01*
X83891635Y-103572818D01*
X83940186Y-103719334D01*
X84032288Y-103868656D01*
X84156344Y-103992712D01*
X84305666Y-104084814D01*
X84472203Y-104139999D01*
X84574991Y-104150500D01*
X85925008Y-104150499D01*
X86027797Y-104139999D01*
X86194334Y-104084814D01*
X86343656Y-103992712D01*
X86467712Y-103868656D01*
X86559814Y-103719334D01*
X86614999Y-103552797D01*
X86625500Y-103450009D01*
X86625499Y-102549992D01*
X86614999Y-102447203D01*
X86559814Y-102280666D01*
X86467712Y-102131344D01*
X86416582Y-102080214D01*
X86369463Y-102005226D01*
X86359547Y-101917219D01*
X86388798Y-101833626D01*
X86451422Y-101771002D01*
X86535015Y-101741751D01*
X86557296Y-101740500D01*
X90833770Y-101740500D01*
X90904187Y-101726492D01*
X90998082Y-101707816D01*
X91003318Y-101705646D01*
X91079470Y-101690500D01*
X91640689Y-101690500D01*
X91640694Y-101690500D01*
X91677569Y-101687598D01*
X91835398Y-101641744D01*
X91976865Y-101558081D01*
X92093081Y-101441865D01*
X92176744Y-101300398D01*
X92222598Y-101142569D01*
X92225500Y-101105694D01*
X92225500Y-100674306D01*
X92222598Y-100637431D01*
X92176744Y-100479602D01*
X92103822Y-100356298D01*
X92076834Y-100271948D01*
X92089116Y-100184241D01*
X92103823Y-100153701D01*
X92124416Y-100118880D01*
X92176744Y-100030398D01*
X92222598Y-99872569D01*
X92225500Y-99835694D01*
X92225500Y-99404306D01*
X92222598Y-99367431D01*
X92176744Y-99209602D01*
X92165869Y-99191214D01*
X92103823Y-99086299D01*
X92076834Y-99001948D01*
X92089116Y-98914241D01*
X92103823Y-98883701D01*
X92176743Y-98760399D01*
X92176744Y-98760398D01*
X92222598Y-98602569D01*
X92225500Y-98565694D01*
X92225500Y-98134306D01*
X92222598Y-98097431D01*
X92176744Y-97939602D01*
X92103822Y-97816298D01*
X92076834Y-97731948D01*
X92089116Y-97644241D01*
X92103823Y-97613701D01*
X92176743Y-97490399D01*
X92176744Y-97490398D01*
X92222598Y-97332569D01*
X92225500Y-97295694D01*
X92225500Y-96864306D01*
X92222598Y-96827431D01*
X92176744Y-96669602D01*
X92103822Y-96546298D01*
X92076834Y-96461948D01*
X92089116Y-96374241D01*
X92103823Y-96343701D01*
X92176743Y-96220399D01*
X92176744Y-96220398D01*
X92222598Y-96062569D01*
X92225500Y-96025694D01*
X92225500Y-95594306D01*
X92222598Y-95557431D01*
X92176744Y-95399602D01*
X92103822Y-95276298D01*
X92076834Y-95191948D01*
X92089116Y-95104241D01*
X92103823Y-95073701D01*
X92176743Y-94950399D01*
X92176744Y-94950398D01*
X92222598Y-94792569D01*
X92225500Y-94755694D01*
X92225500Y-94324306D01*
X92222598Y-94287431D01*
X92176744Y-94129602D01*
X92103822Y-94006298D01*
X92076834Y-93921948D01*
X92089116Y-93834241D01*
X92103823Y-93803701D01*
X92139888Y-93742718D01*
X92176744Y-93680398D01*
X92222598Y-93522569D01*
X92225500Y-93485694D01*
X92225500Y-93054306D01*
X92222598Y-93017431D01*
X92176744Y-92859602D01*
X92103822Y-92736298D01*
X92076834Y-92651948D01*
X92089116Y-92564241D01*
X92103823Y-92533701D01*
X92140075Y-92472402D01*
X92176744Y-92410398D01*
X92222598Y-92252569D01*
X92225500Y-92215694D01*
X92225500Y-91784306D01*
X92222800Y-91749999D01*
X94227704Y-91749999D01*
X94227704Y-91750000D01*
X95450000Y-91750000D01*
X95950000Y-91750000D01*
X97172296Y-91750000D01*
X97172295Y-91749999D01*
X97172099Y-91747509D01*
X97172098Y-91747504D01*
X97126281Y-91589800D01*
X97042682Y-91448443D01*
X96926556Y-91332317D01*
X96785199Y-91248718D01*
X96627492Y-91202900D01*
X96627494Y-91202900D01*
X96590637Y-91200000D01*
X95950000Y-91200000D01*
X95950000Y-91750000D01*
X95450000Y-91750000D01*
X95450000Y-91200000D01*
X94809363Y-91200000D01*
X94772506Y-91202900D01*
X94614800Y-91248718D01*
X94473443Y-91332317D01*
X94357317Y-91448443D01*
X94273718Y-91589800D01*
X94227901Y-91747504D01*
X94227900Y-91747509D01*
X94227704Y-91749999D01*
X92222800Y-91749999D01*
X92222598Y-91747431D01*
X92176744Y-91589602D01*
X92166251Y-91571859D01*
X92093082Y-91448136D01*
X91976863Y-91331917D01*
X91835399Y-91248256D01*
X91677569Y-91202402D01*
X91640694Y-91199500D01*
X89859306Y-91199500D01*
X89828576Y-91201918D01*
X89822430Y-91202402D01*
X89664600Y-91248256D01*
X89523136Y-91331917D01*
X89406917Y-91448136D01*
X89323256Y-91589600D01*
X89277402Y-91747430D01*
X89277402Y-91747431D01*
X89274500Y-91784306D01*
X89274500Y-92215694D01*
X89277200Y-92250000D01*
X89277402Y-92252569D01*
X89323257Y-92410401D01*
X89396176Y-92533702D01*
X89423165Y-92618053D01*
X89410883Y-92705760D01*
X89396176Y-92736298D01*
X89323257Y-92859598D01*
X89277402Y-93017430D01*
X89274500Y-93054311D01*
X89274500Y-93485688D01*
X89277402Y-93522569D01*
X89323257Y-93680401D01*
X89396176Y-93803702D01*
X89423165Y-93888053D01*
X89410883Y-93975760D01*
X89396176Y-94006298D01*
X89323257Y-94129598D01*
X89308325Y-94180996D01*
X89277402Y-94287431D01*
X89274500Y-94324306D01*
X89274500Y-94755694D01*
X89277402Y-94792569D01*
X89296668Y-94858884D01*
X89323257Y-94950401D01*
X89396176Y-95073702D01*
X89423165Y-95158053D01*
X89410883Y-95245760D01*
X89396176Y-95276298D01*
X89323257Y-95399598D01*
X89277402Y-95557430D01*
X89274498Y-95594324D01*
X89274346Y-95598215D01*
X89272930Y-95598159D01*
X89254793Y-95677626D01*
X89199574Y-95746867D01*
X89119782Y-95785294D01*
X89031218Y-95785294D01*
X88951426Y-95746867D01*
X88934786Y-95731997D01*
X78331501Y-85128712D01*
X80649500Y-85128712D01*
X80649500Y-85371288D01*
X80669879Y-85526086D01*
X80681162Y-85611788D01*
X80681165Y-85611801D01*
X80731727Y-85800498D01*
X80743946Y-85846100D01*
X80836776Y-86070212D01*
X80865641Y-86120207D01*
X80958060Y-86280284D01*
X81105737Y-86472741D01*
X81277258Y-86644262D01*
X81277262Y-86644265D01*
X81457141Y-86782291D01*
X81469714Y-86791938D01*
X81509280Y-86814781D01*
X81679788Y-86913224D01*
X81903900Y-87006054D01*
X82138211Y-87068838D01*
X82378712Y-87100500D01*
X82378715Y-87100500D01*
X82621285Y-87100500D01*
X82621288Y-87100500D01*
X82861789Y-87068838D01*
X83096100Y-87006054D01*
X83320212Y-86913224D01*
X83502141Y-86808187D01*
X83530286Y-86791938D01*
X83535485Y-86787949D01*
X83722738Y-86644265D01*
X83894265Y-86472738D01*
X84041936Y-86280289D01*
X84163224Y-86070212D01*
X84256054Y-85846100D01*
X84318838Y-85611789D01*
X84350500Y-85371288D01*
X84350500Y-85128712D01*
X84318838Y-84888211D01*
X84256054Y-84653900D01*
X84163224Y-84429788D01*
X84081877Y-84288891D01*
X84041939Y-84219715D01*
X84026800Y-84199986D01*
X83947933Y-84097203D01*
X83894262Y-84027258D01*
X83722741Y-83855737D01*
X83530284Y-83708060D01*
X83474701Y-83675970D01*
X83474699Y-83675968D01*
X83320216Y-83586778D01*
X83320209Y-83586775D01*
X83096100Y-83493946D01*
X83096098Y-83493945D01*
X83096097Y-83493945D01*
X82861801Y-83431165D01*
X82861795Y-83431163D01*
X82861789Y-83431162D01*
X82621288Y-83399500D01*
X82378712Y-83399500D01*
X82138211Y-83431162D01*
X82138198Y-83431165D01*
X81903902Y-83493945D01*
X81679792Y-83586774D01*
X81679790Y-83586775D01*
X81469715Y-83708060D01*
X81277258Y-83855737D01*
X81105737Y-84027258D01*
X80958060Y-84219715D01*
X80836775Y-84429790D01*
X80836774Y-84429792D01*
X80743945Y-84653902D01*
X80689462Y-84857236D01*
X80681162Y-84888211D01*
X80649500Y-85128712D01*
X78331501Y-85128712D01*
X77792165Y-84589376D01*
X77792164Y-84589375D01*
X77792162Y-84589373D01*
X77722043Y-84542521D01*
X77652865Y-84496297D01*
X77652858Y-84496293D01*
X77532871Y-84446594D01*
X77515475Y-84439388D01*
X77498082Y-84432184D01*
X77498080Y-84432183D01*
X77498079Y-84432183D01*
X77333770Y-84399500D01*
X77333767Y-84399500D01*
X74933835Y-84399500D01*
X74847492Y-84379793D01*
X74778251Y-84324574D01*
X74761496Y-84300000D01*
X74666926Y-84136200D01*
X74666924Y-84136198D01*
X74666924Y-84136197D01*
X74507282Y-83928149D01*
X74507281Y-83928148D01*
X74507278Y-83928144D01*
X74321855Y-83742721D01*
X74197658Y-83647421D01*
X74113803Y-83583076D01*
X73886697Y-83451957D01*
X73886694Y-83451955D01*
X73886691Y-83451954D01*
X73670048Y-83362218D01*
X73644419Y-83351602D01*
X73391116Y-83283730D01*
X73391115Y-83283729D01*
X73391112Y-83283729D01*
X73131125Y-83249500D01*
X73131120Y-83249500D01*
X72868880Y-83249500D01*
X72868874Y-83249500D01*
X72608887Y-83283729D01*
X72355584Y-83351601D01*
X72355578Y-83351603D01*
X72113308Y-83451954D01*
X71886198Y-83583075D01*
X71678144Y-83742721D01*
X71678141Y-83742725D01*
X71492725Y-83928141D01*
X71492721Y-83928144D01*
X71333075Y-84136198D01*
X71201954Y-84363308D01*
X71101603Y-84605578D01*
X71101601Y-84605584D01*
X71033729Y-84858887D01*
X70999500Y-85118874D01*
X66750500Y-85118874D01*
X66750500Y-81550001D01*
X70999499Y-81550001D01*
X70999500Y-81550010D01*
X71010001Y-81652798D01*
X71010001Y-81652800D01*
X71010002Y-81652802D01*
X71065186Y-81819335D01*
X71065187Y-81819337D01*
X71155838Y-81966306D01*
X71157288Y-81968656D01*
X71281344Y-82092712D01*
X71430665Y-82184814D01*
X71597202Y-82239999D01*
X71699990Y-82250500D01*
X71699999Y-82250500D01*
X74300001Y-82250500D01*
X74300010Y-82250500D01*
X74402798Y-82239999D01*
X74569335Y-82184814D01*
X74718656Y-82092712D01*
X74842712Y-81968656D01*
X74934814Y-81819335D01*
X74989999Y-81652798D01*
X75000500Y-81550010D01*
X75000500Y-81449500D01*
X75020207Y-81363157D01*
X75075426Y-81293916D01*
X75155218Y-81255489D01*
X75199500Y-81250500D01*
X78353451Y-81250500D01*
X78439794Y-81270207D01*
X78474592Y-81291621D01*
X78501862Y-81312546D01*
X78642151Y-81370656D01*
X78642155Y-81370656D01*
X78642157Y-81370657D01*
X78685079Y-81376307D01*
X78754903Y-81385500D01*
X79435461Y-81385499D01*
X79521804Y-81405206D01*
X79591045Y-81460424D01*
X79626559Y-81528980D01*
X79660030Y-81644188D01*
X79740735Y-81780654D01*
X79852845Y-81892764D01*
X79892648Y-81916303D01*
X79989309Y-81973468D01*
X80141557Y-82017700D01*
X80177134Y-82020500D01*
X80177140Y-82020500D01*
X82719860Y-82020500D01*
X82719866Y-82020500D01*
X82755443Y-82017700D01*
X82907691Y-81973468D01*
X83044156Y-81892763D01*
X83156263Y-81780656D01*
X83236968Y-81644191D01*
X83281200Y-81491943D01*
X83284000Y-81456366D01*
X83284000Y-81449500D01*
X83303707Y-81363157D01*
X83358926Y-81293916D01*
X83438718Y-81255489D01*
X83483000Y-81250500D01*
X87322181Y-81250500D01*
X87408524Y-81270207D01*
X87477765Y-81325426D01*
X87516192Y-81405218D01*
X87516776Y-81413224D01*
X88203554Y-82100000D01*
X88197339Y-82100000D01*
X88095606Y-82127259D01*
X88004394Y-82179920D01*
X87929920Y-82254394D01*
X87877259Y-82345606D01*
X87850000Y-82447339D01*
X87850000Y-82453552D01*
X87170524Y-81774076D01*
X87138144Y-81818645D01*
X87138136Y-81818657D01*
X87045242Y-82000973D01*
X87045241Y-82000976D01*
X86982011Y-82195578D01*
X86982008Y-82195590D01*
X86950000Y-82397688D01*
X86950000Y-82602311D01*
X86982008Y-82804409D01*
X86982011Y-82804421D01*
X87045241Y-82999023D01*
X87045242Y-82999026D01*
X87138139Y-83181348D01*
X87170524Y-83225921D01*
X87170524Y-83225922D01*
X87850000Y-82546446D01*
X87850000Y-82552661D01*
X87877259Y-82654394D01*
X87929920Y-82745606D01*
X88004394Y-82820080D01*
X88095606Y-82872741D01*
X88197339Y-82900000D01*
X88203553Y-82900000D01*
X87524077Y-83579474D01*
X87524077Y-83579475D01*
X87568651Y-83611860D01*
X87750973Y-83704757D01*
X87750976Y-83704758D01*
X87945578Y-83767988D01*
X87945590Y-83767991D01*
X88147688Y-83800000D01*
X88352312Y-83800000D01*
X88554409Y-83767991D01*
X88554421Y-83767988D01*
X88749023Y-83704758D01*
X88749026Y-83704757D01*
X88931346Y-83611861D01*
X88975921Y-83579475D01*
X88975921Y-83579473D01*
X88296448Y-82900000D01*
X88302661Y-82900000D01*
X88404394Y-82872741D01*
X88495606Y-82820080D01*
X88570080Y-82745606D01*
X88622741Y-82654394D01*
X88650000Y-82552661D01*
X88650000Y-82546448D01*
X89329473Y-83225921D01*
X89329475Y-83225921D01*
X89361861Y-83181346D01*
X89454757Y-82999026D01*
X89454758Y-82999023D01*
X89517988Y-82804421D01*
X89517991Y-82804409D01*
X89550000Y-82602311D01*
X89550000Y-82397688D01*
X89517991Y-82195590D01*
X89517988Y-82195578D01*
X89454758Y-82000976D01*
X89454757Y-82000973D01*
X89361860Y-81818651D01*
X89329474Y-81774077D01*
X88650000Y-82453551D01*
X88650000Y-82447339D01*
X88622741Y-82345606D01*
X88570080Y-82254394D01*
X88495606Y-82179920D01*
X88404394Y-82127259D01*
X88302661Y-82100000D01*
X88296447Y-82100000D01*
X88981418Y-81415028D01*
X88990429Y-81353688D01*
X89040043Y-81280327D01*
X89060442Y-81263645D01*
X89084868Y-81246234D01*
X89119334Y-81234814D01*
X89268656Y-81142712D01*
X89364297Y-81047070D01*
X89377795Y-81037450D01*
X89403756Y-81026630D01*
X89427572Y-81011667D01*
X89447989Y-81008197D01*
X89459544Y-81003383D01*
X89472279Y-81004070D01*
X89493297Y-81000500D01*
X89848540Y-81000500D01*
X89848541Y-81000500D01*
X89945188Y-80981275D01*
X90041836Y-80962051D01*
X90095165Y-80939961D01*
X90223914Y-80886632D01*
X90387782Y-80777139D01*
X90527139Y-80637782D01*
X90527140Y-80637780D01*
X90538471Y-80626449D01*
X90538476Y-80626442D01*
X90906136Y-80258783D01*
X90981123Y-80211667D01*
X91046848Y-80200500D01*
X93160840Y-80200500D01*
X93247183Y-80220207D01*
X93316424Y-80275426D01*
X93328512Y-80292322D01*
X93332968Y-80299293D01*
X93452277Y-80447722D01*
X93518419Y-80500887D01*
X93600704Y-80567030D01*
X93771307Y-80651641D01*
X93956111Y-80697600D01*
X93998877Y-80700500D01*
X94901122Y-80700499D01*
X94901137Y-80700498D01*
X94943878Y-80697601D01*
X94943880Y-80697600D01*
X94943889Y-80697600D01*
X95128693Y-80651641D01*
X95299296Y-80567030D01*
X95447722Y-80447722D01*
X95447723Y-80447719D01*
X95447726Y-80447718D01*
X95455352Y-80440093D01*
X95456957Y-80441698D01*
X95514336Y-80396294D01*
X95600752Y-80376913D01*
X95687020Y-80396947D01*
X95743084Y-80441656D01*
X95744648Y-80440093D01*
X95752273Y-80447718D01*
X95752278Y-80447722D01*
X95900704Y-80567030D01*
X96071307Y-80651641D01*
X96256111Y-80697600D01*
X96298877Y-80700500D01*
X97201122Y-80700499D01*
X97201137Y-80700498D01*
X97243878Y-80697601D01*
X97243880Y-80697600D01*
X97243889Y-80697600D01*
X97428693Y-80651641D01*
X97599296Y-80567030D01*
X97747722Y-80447722D01*
X97747723Y-80447719D01*
X97747726Y-80447718D01*
X97755352Y-80440093D01*
X97756876Y-80441617D01*
X97814658Y-80395895D01*
X97901075Y-80376515D01*
X97987343Y-80396550D01*
X98043448Y-80441292D01*
X98045003Y-80439738D01*
X98052633Y-80447368D01*
X98200968Y-80566603D01*
X98200978Y-80566609D01*
X98371480Y-80651169D01*
X98556176Y-80697102D01*
X98556180Y-80697103D01*
X98598899Y-80699999D01*
X98598902Y-80700000D01*
X98800000Y-80700000D01*
X99300000Y-80700000D01*
X99501098Y-80700000D01*
X99501100Y-80699999D01*
X99543819Y-80697103D01*
X99543823Y-80697102D01*
X99625887Y-80676693D01*
X109275000Y-80676693D01*
X109275000Y-80700000D01*
X110000000Y-80700000D01*
X110500000Y-80700000D01*
X111224999Y-80700000D01*
X111224999Y-80676686D01*
X111224998Y-80676680D01*
X111214856Y-80577394D01*
X111214855Y-80577389D01*
X111161548Y-80416519D01*
X111072569Y-80272263D01*
X110952736Y-80152430D01*
X110808480Y-80063451D01*
X110647612Y-80010145D01*
X110548306Y-80000000D01*
X110500000Y-80000000D01*
X110500000Y-80700000D01*
X110000000Y-80700000D01*
X110000000Y-79999999D01*
X109951698Y-80000000D01*
X109951685Y-80000001D01*
X109852394Y-80010143D01*
X109852389Y-80010144D01*
X109691519Y-80063451D01*
X109547263Y-80152430D01*
X109427430Y-80272263D01*
X109338451Y-80416519D01*
X109285145Y-80577387D01*
X109275000Y-80676693D01*
X99625887Y-80676693D01*
X99728519Y-80651169D01*
X99777871Y-80626693D01*
X105275000Y-80626693D01*
X105275000Y-80650000D01*
X106000000Y-80650000D01*
X106500000Y-80650000D01*
X107224999Y-80650000D01*
X107224999Y-80626686D01*
X107224998Y-80626680D01*
X107214856Y-80527394D01*
X107214855Y-80527389D01*
X107161548Y-80366519D01*
X107072569Y-80222263D01*
X106952736Y-80102430D01*
X106808480Y-80013451D01*
X106647612Y-79960145D01*
X106548306Y-79950000D01*
X106500000Y-79950000D01*
X106500000Y-80650000D01*
X106000000Y-80650000D01*
X106000000Y-79949999D01*
X105951698Y-79950000D01*
X105951685Y-79950001D01*
X105852394Y-79960143D01*
X105852389Y-79960144D01*
X105691519Y-80013451D01*
X105547263Y-80102430D01*
X105427430Y-80222263D01*
X105338451Y-80366519D01*
X105285145Y-80527387D01*
X105275000Y-80626693D01*
X99777871Y-80626693D01*
X99899021Y-80566609D01*
X99899031Y-80566603D01*
X100023546Y-80466516D01*
X100047366Y-80447368D01*
X100047368Y-80447366D01*
X100166603Y-80299031D01*
X100166609Y-80299021D01*
X100251169Y-80128519D01*
X100297102Y-79943823D01*
X100297103Y-79943819D01*
X100299999Y-79901100D01*
X100300000Y-79901098D01*
X100300000Y-79628712D01*
X125399500Y-79628712D01*
X125399500Y-79871288D01*
X125417781Y-80010145D01*
X125431162Y-80111788D01*
X125431165Y-80111801D01*
X125470550Y-80258785D01*
X125493946Y-80346100D01*
X125586776Y-80570212D01*
X125625785Y-80637778D01*
X125708060Y-80780284D01*
X125855737Y-80972741D01*
X126027258Y-81144262D01*
X126219715Y-81291939D01*
X126272831Y-81322605D01*
X126429788Y-81413224D01*
X126653900Y-81506054D01*
X126888211Y-81568838D01*
X127128712Y-81600500D01*
X127128715Y-81600500D01*
X127371285Y-81600500D01*
X127371288Y-81600500D01*
X127611789Y-81568838D01*
X127846100Y-81506054D01*
X128070212Y-81413224D01*
X128280289Y-81291936D01*
X128472738Y-81144265D01*
X128644265Y-80972738D01*
X128791936Y-80780289D01*
X128793754Y-80777141D01*
X128838002Y-80700500D01*
X128913224Y-80570212D01*
X129006054Y-80346100D01*
X129068838Y-80111789D01*
X129100500Y-79871288D01*
X129100500Y-79628712D01*
X129068838Y-79388211D01*
X129006054Y-79153900D01*
X128913224Y-78929788D01*
X128818191Y-78765186D01*
X128791939Y-78719715D01*
X128784484Y-78710000D01*
X128644265Y-78527262D01*
X128644262Y-78527258D01*
X128472741Y-78355737D01*
X128280284Y-78208060D01*
X128106415Y-78107678D01*
X128070212Y-78086776D01*
X127846100Y-77993946D01*
X127846098Y-77993945D01*
X127846097Y-77993945D01*
X127611801Y-77931165D01*
X127611795Y-77931163D01*
X127611789Y-77931162D01*
X127371288Y-77899500D01*
X127128712Y-77899500D01*
X126888211Y-77931162D01*
X126888198Y-77931165D01*
X126653902Y-77993945D01*
X126429792Y-78086774D01*
X126429790Y-78086775D01*
X126219715Y-78208060D01*
X126027258Y-78355737D01*
X125855737Y-78527258D01*
X125708060Y-78719715D01*
X125586775Y-78929790D01*
X125586774Y-78929792D01*
X125493945Y-79153902D01*
X125468330Y-79249500D01*
X125431162Y-79388211D01*
X125399500Y-79628712D01*
X100300000Y-79628712D01*
X100300000Y-79450000D01*
X99300000Y-79450000D01*
X99300000Y-80700000D01*
X98800000Y-80700000D01*
X98800000Y-78950000D01*
X99300000Y-78950000D01*
X100300000Y-78950000D01*
X100300000Y-78498901D01*
X100299999Y-78498899D01*
X100297103Y-78456180D01*
X100297102Y-78456176D01*
X100251169Y-78271480D01*
X100166609Y-78100978D01*
X100166603Y-78100968D01*
X100047368Y-77952633D01*
X100047366Y-77952631D01*
X99899031Y-77833396D01*
X99899021Y-77833390D01*
X99728519Y-77748830D01*
X99543823Y-77702897D01*
X99543819Y-77702896D01*
X99501099Y-77700000D01*
X99300000Y-77700000D01*
X99300000Y-78950000D01*
X98800000Y-78950000D01*
X98800000Y-77700000D01*
X98598901Y-77700000D01*
X98556180Y-77702896D01*
X98556176Y-77702897D01*
X98371480Y-77748830D01*
X98200978Y-77833390D01*
X98200968Y-77833396D01*
X98052633Y-77952631D01*
X98045003Y-77960262D01*
X98043409Y-77958668D01*
X97985957Y-78004116D01*
X97899537Y-78023483D01*
X97813272Y-78003437D01*
X97756832Y-77958426D01*
X97755352Y-77959907D01*
X97747726Y-77952281D01*
X97682063Y-77899500D01*
X97599296Y-77832970D01*
X97599294Y-77832969D01*
X97428694Y-77748359D01*
X97243890Y-77702400D01*
X97243886Y-77702399D01*
X97201123Y-77699500D01*
X96298881Y-77699500D01*
X96298862Y-77699501D01*
X96256121Y-77702398D01*
X96256110Y-77702400D01*
X96071306Y-77748359D01*
X95900705Y-77832969D01*
X95900704Y-77832970D01*
X95752273Y-77952281D01*
X95744648Y-77959907D01*
X95743044Y-77958303D01*
X95685646Y-78003714D01*
X95599228Y-78023086D01*
X95512962Y-78003043D01*
X95456913Y-77958345D01*
X95455352Y-77959907D01*
X95447726Y-77952281D01*
X95382063Y-77899500D01*
X95299296Y-77832970D01*
X95299294Y-77832969D01*
X95128694Y-77748359D01*
X94943890Y-77702400D01*
X94943886Y-77702399D01*
X94901123Y-77699500D01*
X93998881Y-77699500D01*
X93998862Y-77699501D01*
X93956121Y-77702398D01*
X93956110Y-77702400D01*
X93771306Y-77748359D01*
X93600705Y-77832969D01*
X93600704Y-77832970D01*
X93452277Y-77952277D01*
X93332968Y-78100706D01*
X93328512Y-78107678D01*
X93265405Y-78169814D01*
X93181587Y-78198416D01*
X93160840Y-78199500D01*
X90451457Y-78199500D01*
X90360480Y-78217596D01*
X90360470Y-78217598D01*
X90354812Y-78218724D01*
X90258164Y-78237949D01*
X90230278Y-78249500D01*
X90217553Y-78254770D01*
X90217548Y-78254772D01*
X90076090Y-78313365D01*
X90076083Y-78313369D01*
X89912222Y-78422858D01*
X89912214Y-78422864D01*
X89509269Y-78825810D01*
X89434281Y-78872929D01*
X89346274Y-78882845D01*
X89264086Y-78854469D01*
X89119336Y-78765187D01*
X89119334Y-78765186D01*
X88952801Y-78710002D01*
X88952799Y-78710001D01*
X88952797Y-78710001D01*
X88850009Y-78699500D01*
X88850000Y-78699500D01*
X87649992Y-78699500D01*
X87649986Y-78699501D01*
X87547204Y-78710000D01*
X87380665Y-78765186D01*
X87380663Y-78765187D01*
X87231347Y-78857286D01*
X87231340Y-78857291D01*
X87107291Y-78981340D01*
X87107286Y-78981347D01*
X87015185Y-79130667D01*
X87013351Y-79134601D01*
X87010483Y-79138290D01*
X87009102Y-79140530D01*
X87008859Y-79140380D01*
X86959001Y-79204526D01*
X86879693Y-79243944D01*
X86832996Y-79249500D01*
X83483000Y-79249500D01*
X83396657Y-79229793D01*
X83327416Y-79174574D01*
X83288989Y-79094782D01*
X83284000Y-79050500D01*
X83284000Y-79043639D01*
X83284000Y-79043634D01*
X83281200Y-79008057D01*
X83236968Y-78855809D01*
X83219227Y-78825810D01*
X83156264Y-78719345D01*
X83044154Y-78607235D01*
X82907690Y-78526531D01*
X82799674Y-78495150D01*
X82755443Y-78482300D01*
X82719866Y-78479500D01*
X80177134Y-78479500D01*
X80141557Y-78482300D01*
X79989309Y-78526531D01*
X79852845Y-78607235D01*
X79740735Y-78719345D01*
X79660031Y-78855809D01*
X79626561Y-78971018D01*
X79583547Y-79048435D01*
X79511204Y-79099522D01*
X79435462Y-79114500D01*
X78754906Y-79114500D01*
X78653003Y-79127915D01*
X78642151Y-79129344D01*
X78642150Y-79129344D01*
X78642144Y-79129345D01*
X78501865Y-79187452D01*
X78501862Y-79187453D01*
X78474595Y-79208377D01*
X78394097Y-79245305D01*
X78353451Y-79249500D01*
X75199500Y-79249500D01*
X75113157Y-79229793D01*
X75043916Y-79174574D01*
X75005489Y-79094782D01*
X75000500Y-79050500D01*
X75000500Y-78949998D01*
X75000500Y-78949990D01*
X74989999Y-78847202D01*
X74934814Y-78680665D01*
X74842712Y-78531344D01*
X74718656Y-78407288D01*
X74635075Y-78355735D01*
X74569337Y-78315187D01*
X74569335Y-78315186D01*
X74402802Y-78260002D01*
X74402800Y-78260001D01*
X74402798Y-78260001D01*
X74300010Y-78249500D01*
X71699990Y-78249500D01*
X71597202Y-78260001D01*
X71597199Y-78260001D01*
X71597197Y-78260002D01*
X71430664Y-78315186D01*
X71430662Y-78315187D01*
X71281349Y-78407284D01*
X71281341Y-78407290D01*
X71157290Y-78531341D01*
X71157284Y-78531349D01*
X71065187Y-78680662D01*
X71065186Y-78680664D01*
X71010002Y-78847197D01*
X71010001Y-78847199D01*
X71010001Y-78847202D01*
X70999500Y-78949990D01*
X70999500Y-78949998D01*
X70999500Y-81550001D01*
X70999499Y-81550001D01*
X66750500Y-81550001D01*
X66750500Y-76449500D01*
X66770207Y-76363157D01*
X66825426Y-76293916D01*
X66905218Y-76255489D01*
X66949500Y-76250500D01*
X130800500Y-76250500D01*
X130886843Y-76270207D01*
G37*
%TD.AperFunction*%
%TA.AperFunction,Conductor*%
G36*
X107339473Y-100975921D02*
G01*
X107339474Y-100975921D01*
X107368697Y-100935700D01*
X107370974Y-100933710D01*
X107372245Y-100930966D01*
X107404219Y-100904665D01*
X107435392Y-100877431D01*
X107438306Y-100876626D01*
X107440643Y-100874705D01*
X107480856Y-100864883D01*
X107520764Y-100853870D01*
X107523740Y-100854410D01*
X107526677Y-100853693D01*
X107567158Y-100862289D01*
X107607904Y-100869684D01*
X107610350Y-100871461D01*
X107613309Y-100872090D01*
X107629230Y-100885178D01*
X107679553Y-100921741D01*
X107683379Y-100926254D01*
X107687596Y-100931381D01*
X107687713Y-100931610D01*
X107808034Y-101097219D01*
X107898050Y-101187235D01*
X107904188Y-101194697D01*
X107919787Y-101225871D01*
X107938333Y-101255387D01*
X107940275Y-101266817D01*
X107943818Y-101273898D01*
X107944046Y-101289017D01*
X107949500Y-101321113D01*
X107949500Y-101515283D01*
X107929793Y-101601626D01*
X107891214Y-101655997D01*
X107705997Y-101841214D01*
X107631009Y-101888333D01*
X107565283Y-101899500D01*
X106646686Y-101899500D01*
X106560343Y-101879793D01*
X106491102Y-101824574D01*
X106452675Y-101744782D01*
X106452675Y-101656218D01*
X106491102Y-101576426D01*
X106560343Y-101521207D01*
X106585191Y-101511240D01*
X106759023Y-101454758D01*
X106759026Y-101454757D01*
X106941346Y-101361861D01*
X106985921Y-101329475D01*
X106985921Y-101329473D01*
X106306448Y-100650000D01*
X106312661Y-100650000D01*
X106414394Y-100622741D01*
X106505606Y-100570080D01*
X106580080Y-100495606D01*
X106632741Y-100404394D01*
X106660000Y-100302661D01*
X106660000Y-100296448D01*
X107339473Y-100975921D01*
G37*
%TD.AperFunction*%
%TD*%
M02*
