%TF.GenerationSoftware,KiCad,Pcbnew,9.0.6*%
%TF.CreationDate,2025-11-19T18:45:34+02:00*%
%TF.ProjectId,etuvalo_v2,65747576-616c-46f5-9f76-322e6b696361,rev?*%
%TF.SameCoordinates,Original*%
%TF.FileFunction,Copper,L1,Top*%
%TF.FilePolarity,Positive*%
%FSLAX46Y46*%
G04 Gerber Fmt 4.6, Leading zero omitted, Abs format (unit mm)*
G04 Created by KiCad (PCBNEW 9.0.6) date 2025-11-19 18:45:34*
%MOMM*%
%LPD*%
G01*
G04 APERTURE LIST*
G04 Aperture macros list*
%AMRoundRect*
0 Rectangle with rounded corners*
0 $1 Rounding radius*
0 $2 $3 $4 $5 $6 $7 $8 $9 X,Y pos of 4 corners*
0 Add a 4 corners polygon primitive as box body*
4,1,4,$2,$3,$4,$5,$6,$7,$8,$9,$2,$3,0*
0 Add four circle primitives for the rounded corners*
1,1,$1+$1,$2,$3*
1,1,$1+$1,$4,$5*
1,1,$1+$1,$6,$7*
1,1,$1+$1,$8,$9*
0 Add four rect primitives between the rounded corners*
20,1,$1+$1,$2,$3,$4,$5,0*
20,1,$1+$1,$4,$5,$6,$7,0*
20,1,$1+$1,$6,$7,$8,$9,0*
20,1,$1+$1,$8,$9,$2,$3,0*%
G04 Aperture macros list end*
%ADD10C,0.300000*%
%TA.AperFunction,NonConductor*%
%ADD11C,0.300000*%
%TD*%
%TA.AperFunction,SMDPad,CuDef*%
%ADD12RoundRect,0.250000X-0.625000X0.400000X-0.625000X-0.400000X0.625000X-0.400000X0.625000X0.400000X0*%
%TD*%
%TA.AperFunction,SMDPad,CuDef*%
%ADD13RoundRect,0.237500X-0.300000X-0.237500X0.300000X-0.237500X0.300000X0.237500X-0.300000X0.237500X0*%
%TD*%
%TA.AperFunction,ComponentPad*%
%ADD14C,4.000000*%
%TD*%
%TA.AperFunction,ComponentPad*%
%ADD15R,1.000000X1.000000*%
%TD*%
%TA.AperFunction,SMDPad,CuDef*%
%ADD16RoundRect,0.250000X0.625000X-0.400000X0.625000X0.400000X-0.625000X0.400000X-0.625000X-0.400000X0*%
%TD*%
%TA.AperFunction,ComponentPad*%
%ADD17RoundRect,0.250000X-0.725000X0.600000X-0.725000X-0.600000X0.725000X-0.600000X0.725000X0.600000X0*%
%TD*%
%TA.AperFunction,ComponentPad*%
%ADD18O,1.950000X1.700000*%
%TD*%
%TA.AperFunction,ComponentPad*%
%ADD19RoundRect,0.250000X0.600000X0.725000X-0.600000X0.725000X-0.600000X-0.725000X0.600000X-0.725000X0*%
%TD*%
%TA.AperFunction,ComponentPad*%
%ADD20O,1.700000X1.950000*%
%TD*%
%TA.AperFunction,SMDPad,CuDef*%
%ADD21RoundRect,0.250000X0.400000X0.625000X-0.400000X0.625000X-0.400000X-0.625000X0.400000X-0.625000X0*%
%TD*%
%TA.AperFunction,SMDPad,CuDef*%
%ADD22RoundRect,0.150000X-0.150000X0.825000X-0.150000X-0.825000X0.150000X-0.825000X0.150000X0.825000X0*%
%TD*%
%TA.AperFunction,SMDPad,CuDef*%
%ADD23RoundRect,0.237500X0.300000X0.237500X-0.300000X0.237500X-0.300000X-0.237500X0.300000X-0.237500X0*%
%TD*%
%TA.AperFunction,ComponentPad*%
%ADD24RoundRect,0.250000X0.600000X0.750000X-0.600000X0.750000X-0.600000X-0.750000X0.600000X-0.750000X0*%
%TD*%
%TA.AperFunction,ComponentPad*%
%ADD25O,1.700000X2.000000*%
%TD*%
%TA.AperFunction,ComponentPad*%
%ADD26RoundRect,0.250000X-0.600000X-0.750000X0.600000X-0.750000X0.600000X0.750000X-0.600000X0.750000X0*%
%TD*%
%TA.AperFunction,SMDPad,CuDef*%
%ADD27RoundRect,0.250000X-0.400000X-0.625000X0.400000X-0.625000X0.400000X0.625000X-0.400000X0.625000X0*%
%TD*%
%TA.AperFunction,SMDPad,CuDef*%
%ADD28RoundRect,0.237500X-0.237500X0.300000X-0.237500X-0.300000X0.237500X-0.300000X0.237500X0.300000X0*%
%TD*%
%TA.AperFunction,SMDPad,CuDef*%
%ADD29RoundRect,0.375000X0.625000X0.375000X-0.625000X0.375000X-0.625000X-0.375000X0.625000X-0.375000X0*%
%TD*%
%TA.AperFunction,SMDPad,CuDef*%
%ADD30RoundRect,0.500000X0.500000X1.400000X-0.500000X1.400000X-0.500000X-1.400000X0.500000X-1.400000X0*%
%TD*%
%TA.AperFunction,Conductor*%
%ADD31C,0.500000*%
%TD*%
%TA.AperFunction,Conductor*%
%ADD32C,1.000000*%
%TD*%
G04 APERTURE END LIST*
D10*
D11*
X166590225Y-111800828D02*
X167090225Y-113300828D01*
X167090225Y-113300828D02*
X167590225Y-111800828D01*
X168018796Y-111943685D02*
X168090224Y-111872257D01*
X168090224Y-111872257D02*
X168233082Y-111800828D01*
X168233082Y-111800828D02*
X168590224Y-111800828D01*
X168590224Y-111800828D02*
X168733082Y-111872257D01*
X168733082Y-111872257D02*
X168804510Y-111943685D01*
X168804510Y-111943685D02*
X168875939Y-112086542D01*
X168875939Y-112086542D02*
X168875939Y-112229400D01*
X168875939Y-112229400D02*
X168804510Y-112443685D01*
X168804510Y-112443685D02*
X167947367Y-113300828D01*
X167947367Y-113300828D02*
X168875939Y-113300828D01*
X169518795Y-113157971D02*
X169590224Y-113229400D01*
X169590224Y-113229400D02*
X169518795Y-113300828D01*
X169518795Y-113300828D02*
X169447367Y-113229400D01*
X169447367Y-113229400D02*
X169518795Y-113157971D01*
X169518795Y-113157971D02*
X169518795Y-113300828D01*
X170518796Y-111800828D02*
X170661653Y-111800828D01*
X170661653Y-111800828D02*
X170804510Y-111872257D01*
X170804510Y-111872257D02*
X170875939Y-111943685D01*
X170875939Y-111943685D02*
X170947367Y-112086542D01*
X170947367Y-112086542D02*
X171018796Y-112372257D01*
X171018796Y-112372257D02*
X171018796Y-112729400D01*
X171018796Y-112729400D02*
X170947367Y-113015114D01*
X170947367Y-113015114D02*
X170875939Y-113157971D01*
X170875939Y-113157971D02*
X170804510Y-113229400D01*
X170804510Y-113229400D02*
X170661653Y-113300828D01*
X170661653Y-113300828D02*
X170518796Y-113300828D01*
X170518796Y-113300828D02*
X170375939Y-113229400D01*
X170375939Y-113229400D02*
X170304510Y-113157971D01*
X170304510Y-113157971D02*
X170233081Y-113015114D01*
X170233081Y-113015114D02*
X170161653Y-112729400D01*
X170161653Y-112729400D02*
X170161653Y-112372257D01*
X170161653Y-112372257D02*
X170233081Y-112086542D01*
X170233081Y-112086542D02*
X170304510Y-111943685D01*
X170304510Y-111943685D02*
X170375939Y-111872257D01*
X170375939Y-111872257D02*
X170518796Y-111800828D01*
D12*
%TO.P,R15,1*%
%TO.N,PB2*%
X144250000Y-117400000D03*
%TO.P,R15,2*%
%TO.N,Net-(D1-A)*%
X144250000Y-120500000D03*
%TD*%
D13*
%TO.P,D1,1,K*%
%TO.N,GND*%
X140137500Y-120500000D03*
%TO.P,D1,2,A*%
%TO.N,Net-(D1-A)*%
X141862500Y-120500000D03*
%TD*%
D14*
%TO.P,H4,1*%
%TO.N,N/C*%
X120900000Y-122200000D03*
%TD*%
%TO.P,H3,1*%
%TO.N,N/C*%
X171600000Y-122600000D03*
%TD*%
%TO.P,H2,1*%
%TO.N,N/C*%
X171250000Y-73750000D03*
%TD*%
%TO.P,H1,1*%
%TO.N,N/C*%
X121000000Y-73900000D03*
%TD*%
D15*
%TO.P,J11,1,Pin_1*%
%TO.N,5V*%
X132300000Y-75900000D03*
%TD*%
%TO.P,J10,1,Pin_1*%
%TO.N,5V*%
X139200000Y-114700000D03*
%TD*%
%TO.P,J9,1,Pin_1*%
%TO.N,PB2*%
X140900000Y-90700000D03*
%TD*%
%TO.P,J8,1,Pin_1*%
%TO.N,PB2*%
X141300000Y-117200000D03*
%TD*%
%TO.P,J7,1,Pin_1*%
%TO.N,5V*%
X156800000Y-82100000D03*
%TD*%
D16*
%TO.P,R14,1*%
%TO.N,PA7*%
X143700000Y-82000000D03*
%TO.P,R14,2*%
%TO.N,Thermistor out*%
X143700000Y-78900000D03*
%TD*%
D17*
%TO.P,J6,1,Pin_1*%
%TO.N,5V*%
X133400000Y-114400000D03*
D18*
%TO.P,J6,2,Pin_2*%
%TO.N,PB2*%
X133400000Y-116900000D03*
%TO.P,J6,3,Pin_3*%
%TO.N,GND*%
X133400000Y-119400000D03*
%TD*%
D19*
%TO.P,J5,1,Pin_1*%
%TO.N,Frontlight_PWM*%
X148500000Y-73300000D03*
D20*
%TO.P,J5,2,Pin_2*%
%TO.N,Data_out*%
X146000000Y-73300000D03*
%TO.P,J5,3,Pin_3*%
%TO.N,Thermistor out*%
X143500000Y-73300000D03*
%TD*%
D21*
%TO.P,R3,1*%
%TO.N,Blinkerswitch_left*%
X146500000Y-111000000D03*
%TO.P,R3,2*%
%TO.N,5V*%
X143400000Y-111000000D03*
%TD*%
%TO.P,R10,1*%
%TO.N,Middle_button*%
X150400000Y-116700000D03*
%TO.P,R10,2*%
%TO.N,5V*%
X147300000Y-116700000D03*
%TD*%
D12*
%TO.P,R13,1*%
%TO.N,PA5*%
X154700000Y-93500000D03*
%TO.P,R13,2*%
%TO.N,Sw1*%
X154700000Y-96600000D03*
%TD*%
%TO.P,R12,1*%
%TO.N,PA4*%
X157400000Y-93500000D03*
%TO.P,R12,2*%
%TO.N,Sw2*%
X157400000Y-96600000D03*
%TD*%
D16*
%TO.P,R4,1*%
%TO.N,PB1*%
X138400000Y-88200000D03*
%TO.P,R4,2*%
%TO.N,Vin*%
X138400000Y-85100000D03*
%TD*%
D19*
%TO.P,J1,1,Pin_1*%
%TO.N,GND*%
X159400000Y-106700000D03*
D20*
%TO.P,J1,2,Pin_2*%
%TO.N,Sw2*%
X156900000Y-106700000D03*
%TO.P,J1,3,Pin_3*%
%TO.N,Sw1*%
X154400000Y-106700000D03*
%TO.P,J1,4,Pin_4*%
%TO.N,Middle_button*%
X151900000Y-106700000D03*
%TO.P,J1,5,Pin_5*%
%TO.N,Blinkerswitch_right*%
X149400000Y-106700000D03*
%TO.P,J1,6,Pin_6*%
%TO.N,Blinkerswitch_left*%
X146900000Y-106700000D03*
%TD*%
D22*
%TO.P,U1,1,VCC*%
%TO.N,5V*%
X151580000Y-88550000D03*
%TO.P,U1,2,PA4*%
%TO.N,PA4*%
X150310000Y-88550000D03*
%TO.P,U1,3,PA5*%
%TO.N,PA5*%
X149040000Y-88550000D03*
%TO.P,U1,4,PA6*%
%TO.N,PA6*%
X147770000Y-88550000D03*
%TO.P,U1,5,PA7*%
%TO.N,PA7*%
X146500000Y-88550000D03*
%TO.P,U1,6,PB3*%
%TO.N,Exc_sft_reg*%
X145230000Y-88550000D03*
%TO.P,U1,7,PB2*%
%TO.N,PB2*%
X143960000Y-88550000D03*
%TO.P,U1,8,PB1*%
%TO.N,PB1*%
X143960000Y-93500000D03*
%TO.P,U1,9,PB0*%
%TO.N,Net-(U1-PB0)*%
X145230000Y-93500000D03*
%TO.P,U1,10,~{RESET}/PA0*%
%TO.N,UPDI*%
X146500000Y-93500000D03*
%TO.P,U1,11,PA1*%
%TO.N,PA1*%
X147770000Y-93500000D03*
%TO.P,U1,12,PA2*%
%TO.N,PA2*%
X149040000Y-93500000D03*
%TO.P,U1,13,PA3*%
%TO.N,PA3*%
X150310000Y-93500000D03*
%TO.P,U1,14,GND*%
%TO.N,GND*%
X151580000Y-93500000D03*
%TD*%
D13*
%TO.P,C5,1*%
%TO.N,Middle_button*%
X154000000Y-111000000D03*
%TO.P,C5,2*%
%TO.N,GND*%
X155725000Y-111000000D03*
%TD*%
D23*
%TO.P,C3,1*%
%TO.N,Blinkerswitch_left*%
X142900000Y-106700000D03*
%TO.P,C3,2*%
%TO.N,GND*%
X141175000Y-106700000D03*
%TD*%
D12*
%TO.P,R2,1*%
%TO.N,PA1*%
X146500000Y-99400000D03*
%TO.P,R2,2*%
%TO.N,Blinkerswitch_left*%
X146500000Y-102500000D03*
%TD*%
%TO.P,R6,1*%
%TO.N,PA2*%
X149500000Y-99500000D03*
%TO.P,R6,2*%
%TO.N,Blinkerswitch_right*%
X149500000Y-102600000D03*
%TD*%
D21*
%TO.P,R7,1*%
%TO.N,Blinkerswitch_right*%
X148500000Y-114000000D03*
%TO.P,R7,2*%
%TO.N,5V*%
X145400000Y-114000000D03*
%TD*%
D12*
%TO.P,R9,1*%
%TO.N,PA3*%
X152000000Y-99400000D03*
%TO.P,R9,2*%
%TO.N,Middle_button*%
X152000000Y-102500000D03*
%TD*%
D13*
%TO.P,C4,1*%
%TO.N,Blinkerswitch_right*%
X149737500Y-119300000D03*
%TO.P,C4,2*%
%TO.N,GND*%
X151462500Y-119300000D03*
%TD*%
D24*
%TO.P,J2,1,Pin_1*%
%TO.N,GND*%
X165000000Y-78300000D03*
D25*
%TO.P,J2,2,Pin_2*%
%TO.N,Vin*%
X162500000Y-78300000D03*
%TD*%
D21*
%TO.P,R8,1*%
%TO.N,Thermistor out*%
X140500000Y-77700000D03*
%TO.P,R8,2*%
%TO.N,5V*%
X137400000Y-77700000D03*
%TD*%
D26*
%TO.P,J3,1,Pin_1*%
%TO.N,GND*%
X133400000Y-106800000D03*
D25*
%TO.P,J3,2,Pin_2*%
%TO.N,UPDI*%
X135900000Y-106800000D03*
%TD*%
D17*
%TO.P,J4,1,Pin_1*%
%TO.N,5V*%
X130500000Y-83500000D03*
D18*
%TO.P,J4,2,Pin_2*%
%TO.N,Exc_sft_reg*%
X130500000Y-86000000D03*
%TO.P,J4,3,Pin_3*%
%TO.N,GND*%
X130500000Y-88500000D03*
%TD*%
D16*
%TO.P,R11,1*%
%TO.N,PA6*%
X149700000Y-81700000D03*
%TO.P,R11,2*%
%TO.N,Data_out*%
X149700000Y-78600000D03*
%TD*%
D27*
%TO.P,R5,1*%
%TO.N,GND*%
X133400000Y-93500000D03*
%TO.P,R5,2*%
%TO.N,PB1*%
X136500000Y-93500000D03*
%TD*%
D13*
%TO.P,C2,1*%
%TO.N,Vin*%
X162775000Y-83000000D03*
%TO.P,C2,2*%
%TO.N,GND*%
X164500000Y-83000000D03*
%TD*%
D27*
%TO.P,R1,1*%
%TO.N,Frontlight_PWM*%
X131900000Y-98200000D03*
%TO.P,R1,2*%
%TO.N,Net-(U1-PB0)*%
X135000000Y-98200000D03*
%TD*%
D28*
%TO.P,C1,1*%
%TO.N,5V*%
X170000000Y-89837500D03*
%TO.P,C1,2*%
%TO.N,GND*%
X170000000Y-91562500D03*
%TD*%
D29*
%TO.P,U2,1,GND*%
%TO.N,GND*%
X166650000Y-91800000D03*
%TO.P,U2,2,VO*%
%TO.N,5V*%
X166650000Y-89500000D03*
D30*
X160350000Y-89500000D03*
D29*
%TO.P,U2,3,VI*%
%TO.N,Vin*%
X166650000Y-87200000D03*
%TD*%
D31*
%TO.N,PB2*%
X144200000Y-117200000D02*
X141300000Y-117200000D01*
X144250000Y-117250000D02*
X144200000Y-117200000D01*
X144250000Y-117400000D02*
X144250000Y-117250000D01*
%TO.N,Net-(D1-A)*%
X141862500Y-120500000D02*
X144250000Y-120500000D01*
%TO.N,5V*%
X152000000Y-86000000D02*
X156850000Y-86000000D01*
D32*
X156850000Y-86000000D02*
X156600000Y-85750000D01*
D31*
X151580000Y-86420000D02*
X152000000Y-86000000D01*
X151580000Y-88550000D02*
X151580000Y-86420000D01*
D32*
X156800000Y-85550000D02*
X156600000Y-85750000D01*
X156800000Y-82100000D02*
X156800000Y-85550000D01*
X160350000Y-89500000D02*
X156850000Y-86000000D01*
X166650000Y-89500000D02*
X160350000Y-89500000D01*
%TO.N,Thermistor out*%
X143700000Y-77700000D02*
X142750000Y-76750000D01*
X143700000Y-78900000D02*
X143700000Y-77700000D01*
X142750000Y-76750000D02*
X143500000Y-76000000D01*
X141800000Y-77700000D02*
X142750000Y-76750000D01*
X143500000Y-76000000D02*
X143500000Y-73300000D01*
X140500000Y-77700000D02*
X141800000Y-77700000D01*
%TO.N,5V*%
X132400000Y-77700000D02*
X131450000Y-76750000D01*
X137400000Y-77700000D02*
X132400000Y-77700000D01*
X130500000Y-77700000D02*
X131450000Y-76750000D01*
X131450000Y-76750000D02*
X132300000Y-75900000D01*
X130500000Y-83500000D02*
X130500000Y-77700000D01*
D31*
%TO.N,Frontlight_PWM*%
X124200000Y-79100000D02*
X132000000Y-71300000D01*
X147900000Y-71300000D02*
X148800000Y-72200000D01*
X148800000Y-72200000D02*
X148800000Y-73700000D01*
X124200000Y-93000000D02*
X124200000Y-79100000D01*
X132000000Y-71300000D02*
X147900000Y-71300000D01*
X129400000Y-98200000D02*
X124200000Y-93000000D01*
X131900000Y-98200000D02*
X129400000Y-98200000D01*
D32*
%TO.N,Blinkerswitch_left*%
X142900000Y-106700000D02*
X146900000Y-106700000D01*
%TO.N,PB2*%
X141200000Y-117100000D02*
X133400000Y-117100000D01*
X141300000Y-117200000D02*
X141200000Y-117100000D01*
%TO.N,5V*%
X139700000Y-114700000D02*
X143400000Y-111000000D01*
X139200000Y-114700000D02*
X139700000Y-114700000D01*
D31*
X142900000Y-111000000D02*
X143400000Y-111000000D01*
D32*
X139100000Y-114600000D02*
X139200000Y-114700000D01*
X133400000Y-114600000D02*
X139100000Y-114600000D01*
D31*
%TO.N,Vin*%
X160000000Y-78600000D02*
X162500000Y-81100000D01*
X151800000Y-80200000D02*
X153400000Y-78600000D01*
X138400000Y-83500000D02*
X141700000Y-80200000D01*
X141700000Y-80200000D02*
X151800000Y-80200000D01*
X153400000Y-78600000D02*
X160000000Y-78600000D01*
X138400000Y-85100000D02*
X138400000Y-83500000D01*
%TO.N,5V*%
X143700000Y-112300000D02*
X142700000Y-111300000D01*
X142700000Y-111200000D02*
X142900000Y-111000000D01*
X143700000Y-112300000D02*
X145400000Y-114000000D01*
X142700000Y-111300000D02*
X142700000Y-111200000D01*
X145400000Y-114800000D02*
X147300000Y-116700000D01*
X145400000Y-114000000D02*
X145400000Y-114800000D01*
X143400000Y-112000000D02*
X143700000Y-112300000D01*
X143400000Y-111000000D02*
X143400000Y-112000000D01*
%TO.N,PB2*%
X143610000Y-88200000D02*
X143960000Y-88550000D01*
X141800000Y-88200000D02*
X143610000Y-88200000D01*
X140900000Y-89100000D02*
X141800000Y-88200000D01*
X140900000Y-90700000D02*
X140900000Y-89100000D01*
%TO.N,Net-(U1-PB0)*%
X137000000Y-97500000D02*
X136200000Y-98300000D01*
X136200000Y-98300000D02*
X135100000Y-98300000D01*
X143400000Y-97500000D02*
X137000000Y-97500000D01*
X145230000Y-95670000D02*
X143400000Y-97500000D01*
X135100000Y-98300000D02*
X135000000Y-98200000D01*
X145230000Y-93500000D02*
X145230000Y-95670000D01*
%TO.N,Data_out*%
X146300000Y-77200000D02*
X146300000Y-73700000D01*
X147700000Y-78600000D02*
X146300000Y-77200000D01*
X149700000Y-78600000D02*
X147700000Y-78600000D01*
%TO.N,Thermistor out*%
X143700000Y-73800000D02*
X143800000Y-73700000D01*
%TO.N,PA7*%
X143900000Y-83700000D02*
X143700000Y-83500000D01*
X143700000Y-83500000D02*
X143700000Y-82000000D01*
X144300000Y-83700000D02*
X143900000Y-83700000D01*
X146500000Y-85900000D02*
X144300000Y-83700000D01*
%TO.N,PA6*%
X147770000Y-87330000D02*
X147770000Y-88550000D01*
X149700000Y-85400000D02*
X147770000Y-87330000D01*
X149700000Y-81700000D02*
X149700000Y-85400000D01*
%TO.N,5V*%
X169700000Y-89300000D02*
X169500000Y-89500000D01*
X170000000Y-89600000D02*
X169700000Y-89300000D01*
X169500000Y-89500000D02*
X166650000Y-89500000D01*
X170000000Y-89837500D02*
X170000000Y-89600000D01*
%TO.N,GND*%
X151900000Y-95100000D02*
X152000000Y-95100000D01*
X130500000Y-88500000D02*
X130600000Y-88600000D01*
X152000000Y-95100000D02*
X152900000Y-95100000D01*
X153000000Y-95100000D02*
X164900000Y-95100000D01*
X151580000Y-94780000D02*
X151900000Y-95100000D01*
X151580000Y-93500000D02*
X151580000Y-94780000D01*
%TO.N,Vin*%
X162775000Y-83000000D02*
X162775000Y-81375000D01*
X162775000Y-83000000D02*
X162775000Y-83325000D01*
X162775000Y-81375000D02*
X162500000Y-81100000D01*
X162775000Y-83325000D02*
X166650000Y-87200000D01*
X162500000Y-81100000D02*
X162500000Y-78500000D01*
%TO.N,Blinkerswitch_left*%
X146500000Y-111000000D02*
X146500000Y-106500000D01*
X147000000Y-106000000D02*
X147000000Y-104600000D01*
X146500000Y-104100000D02*
X146500000Y-102500000D01*
X147000000Y-104600000D02*
X146500000Y-104100000D01*
X146500000Y-106500000D02*
X147000000Y-106000000D01*
%TO.N,Blinkerswitch_right*%
X148500000Y-115100000D02*
X148500000Y-114000000D01*
X148700000Y-115300000D02*
X148500000Y-115100000D01*
X148500000Y-114000000D02*
X148500000Y-110600000D01*
X149500000Y-106000000D02*
X149500000Y-102600000D01*
X148700000Y-118262500D02*
X148700000Y-115300000D01*
X148500000Y-110600000D02*
X149500000Y-109600000D01*
X149500000Y-109600000D02*
X149500000Y-106000000D01*
X149737500Y-119300000D02*
X148700000Y-118262500D01*
%TO.N,Middle_button*%
X150400000Y-112300000D02*
X152000000Y-110700000D01*
X153000000Y-111000000D02*
X152000000Y-110000000D01*
X154000000Y-111000000D02*
X153000000Y-111000000D01*
X152000000Y-110700000D02*
X152000000Y-110000000D01*
X150400000Y-116700000D02*
X150400000Y-112300000D01*
X152000000Y-102500000D02*
X152000000Y-106000000D01*
X152000000Y-110000000D02*
X152000000Y-106000000D01*
%TO.N,Sw2*%
X157400000Y-102200000D02*
X157000000Y-102600000D01*
X157400000Y-96600000D02*
X157400000Y-102200000D01*
X157000000Y-102600000D02*
X157000000Y-106000000D01*
%TO.N,Sw1*%
X154700000Y-105800000D02*
X154500000Y-106000000D01*
X154700000Y-96600000D02*
X154700000Y-105800000D01*
%TO.N,UPDI*%
X144700000Y-98100000D02*
X144700000Y-100500000D01*
X135900000Y-106300000D02*
X135900000Y-107200000D01*
X146500000Y-96300000D02*
X144700000Y-98100000D01*
X146500000Y-93500000D02*
X146500000Y-96300000D01*
X141300000Y-100900000D02*
X135900000Y-106300000D01*
X144700000Y-100500000D02*
X144300000Y-100900000D01*
X144300000Y-100900000D02*
X141300000Y-100900000D01*
%TO.N,Exc_sft_reg*%
X145230000Y-87575001D02*
X145230000Y-88550000D01*
X133900000Y-86000000D02*
X134600000Y-86700000D01*
X134600000Y-86700000D02*
X144354999Y-86700000D01*
X130500000Y-86000000D02*
X133900000Y-86000000D01*
X144354999Y-86700000D02*
X145230000Y-87575001D01*
%TO.N,PA1*%
X147770000Y-96730000D02*
X147770000Y-93500000D01*
X146500000Y-99400000D02*
X146500000Y-98000000D01*
X146500000Y-98000000D02*
X147770000Y-96730000D01*
%TO.N,PB1*%
X143500000Y-95500000D02*
X143960000Y-95040000D01*
X143960000Y-95040000D02*
X143960000Y-93500000D01*
X136500000Y-93500000D02*
X137000000Y-94000000D01*
X138400000Y-88200000D02*
X138400000Y-91600000D01*
X139500000Y-94000000D02*
X141000000Y-95500000D01*
X141000000Y-95500000D02*
X143500000Y-95500000D01*
X138400000Y-91600000D02*
X136500000Y-93500000D01*
X137000000Y-94000000D02*
X139500000Y-94000000D01*
%TO.N,PA2*%
X149500000Y-97100000D02*
X149040000Y-96640000D01*
X149500000Y-99500000D02*
X149500000Y-97100000D01*
X149040000Y-96640000D02*
X149040000Y-93500000D01*
%TO.N,PA7*%
X146500000Y-88550000D02*
X146500000Y-85900000D01*
%TO.N,PA3*%
X152000000Y-99400000D02*
X152000000Y-97600000D01*
X152000000Y-97600000D02*
X150310000Y-95910000D01*
X150310000Y-95910000D02*
X150310000Y-93500000D01*
%TO.N,PA4*%
X151100000Y-90400000D02*
X150310000Y-89610000D01*
X150310000Y-89610000D02*
X150310000Y-88550000D01*
X154300000Y-90400000D02*
X151100000Y-90400000D01*
X157400000Y-93500000D02*
X154300000Y-90400000D01*
%TO.N,PA5*%
X154700000Y-93500000D02*
X154700000Y-92800000D01*
X154700000Y-92800000D02*
X153300000Y-91400000D01*
X153300000Y-91400000D02*
X149500000Y-91400000D01*
X149500000Y-91400000D02*
X149040000Y-90940000D01*
X149040000Y-90940000D02*
X149040000Y-88550000D01*
%TD*%
%TA.AperFunction,Conductor*%
%TO.N,GND*%
G36*
X130825174Y-70219454D02*
G01*
X130905956Y-70273430D01*
X130959932Y-70354212D01*
X130978886Y-70449500D01*
X130959932Y-70544788D01*
X130905957Y-70625567D01*
X127132026Y-74399500D01*
X123246170Y-78285356D01*
X123130475Y-78444597D01*
X123130474Y-78444598D01*
X123041116Y-78619974D01*
X123041114Y-78619979D01*
X123015629Y-78698415D01*
X122980290Y-78807177D01*
X122949501Y-79001571D01*
X122949500Y-79001587D01*
X122949500Y-93098412D01*
X122949501Y-93098428D01*
X122980290Y-93292823D01*
X122980291Y-93292826D01*
X123041116Y-93480026D01*
X123130476Y-93655405D01*
X123246172Y-93814646D01*
X128585355Y-99153829D01*
X128676031Y-99219709D01*
X128744595Y-99269524D01*
X128919975Y-99358884D01*
X129107174Y-99419709D01*
X129301583Y-99450500D01*
X129301584Y-99450500D01*
X129498417Y-99450500D01*
X130281652Y-99450500D01*
X130376940Y-99469454D01*
X130457722Y-99523430D01*
X130486328Y-99557695D01*
X130536181Y-99629654D01*
X130695346Y-99788819D01*
X130880374Y-99917007D01*
X131085317Y-100010096D01*
X131303588Y-100065096D01*
X131303591Y-100065096D01*
X131303594Y-100065097D01*
X131369685Y-100070298D01*
X131435783Y-100075500D01*
X132364216Y-100075499D01*
X132496412Y-100065096D01*
X132714683Y-100010096D01*
X132919626Y-99917007D01*
X133104654Y-99788819D01*
X133263819Y-99629654D01*
X133263821Y-99629650D01*
X133271726Y-99621746D01*
X133273646Y-99623666D01*
X133334473Y-99574598D01*
X133427678Y-99547179D01*
X133524282Y-99557514D01*
X133609577Y-99604031D01*
X133627783Y-99622237D01*
X133628274Y-99621746D01*
X133636178Y-99629650D01*
X133636181Y-99629654D01*
X133795346Y-99788819D01*
X133980374Y-99917007D01*
X134185317Y-100010096D01*
X134403588Y-100065096D01*
X134403591Y-100065096D01*
X134403594Y-100065097D01*
X134469685Y-100070298D01*
X134535783Y-100075500D01*
X135464216Y-100075499D01*
X135596412Y-100065096D01*
X135814683Y-100010096D01*
X136019626Y-99917007D01*
X136204654Y-99788819D01*
X136363819Y-99629654D01*
X136376797Y-99610920D01*
X136446638Y-99543387D01*
X136504531Y-99515905D01*
X136680026Y-99458884D01*
X136855405Y-99369524D01*
X137014646Y-99253828D01*
X137268974Y-98999500D01*
X137445045Y-98823430D01*
X137525826Y-98769454D01*
X137621114Y-98750500D01*
X143200500Y-98750500D01*
X143295788Y-98769454D01*
X143376570Y-98823430D01*
X143430546Y-98904212D01*
X143449500Y-98999500D01*
X143449500Y-99400500D01*
X143430546Y-99495788D01*
X143376570Y-99576570D01*
X143295788Y-99630546D01*
X143200500Y-99649500D01*
X141398416Y-99649500D01*
X141201583Y-99649500D01*
X141201580Y-99649500D01*
X141201571Y-99649501D01*
X141007175Y-99680290D01*
X140819978Y-99741114D01*
X140644595Y-99830476D01*
X140485356Y-99946170D01*
X135669205Y-104762319D01*
X135588423Y-104816295D01*
X135541735Y-104830460D01*
X135538214Y-104831160D01*
X135303917Y-104893940D01*
X135303894Y-104893948D01*
X135079798Y-104986770D01*
X135079782Y-104986778D01*
X134869720Y-105108058D01*
X134869710Y-105108064D01*
X134677268Y-105255729D01*
X134677249Y-105255746D01*
X134611696Y-105321299D01*
X134530915Y-105375275D01*
X134435626Y-105394228D01*
X134340338Y-105375273D01*
X134330398Y-105370900D01*
X134319117Y-105365639D01*
X134152701Y-105310495D01*
X134152694Y-105310494D01*
X134049981Y-105300000D01*
X133650001Y-105300000D01*
X133650000Y-105300001D01*
X133650000Y-106366988D01*
X133592993Y-106334075D01*
X133465826Y-106300000D01*
X133334174Y-106300000D01*
X133207007Y-106334075D01*
X133150000Y-106366988D01*
X133150000Y-105300001D01*
X133149999Y-105300000D01*
X132750024Y-105300000D01*
X132647300Y-105310494D01*
X132647297Y-105310495D01*
X132480880Y-105365640D01*
X132480878Y-105365641D01*
X132331658Y-105457681D01*
X132331654Y-105457684D01*
X132207684Y-105581654D01*
X132207681Y-105581658D01*
X132115641Y-105730878D01*
X132115640Y-105730879D01*
X132060495Y-105897298D01*
X132060494Y-105897305D01*
X132050000Y-106000018D01*
X132050000Y-106549999D01*
X132050001Y-106550000D01*
X132966988Y-106550000D01*
X132934075Y-106607007D01*
X132900000Y-106734174D01*
X132900000Y-106865826D01*
X132934075Y-106992993D01*
X132966988Y-107050000D01*
X132050002Y-107050000D01*
X132050001Y-107050001D01*
X132050001Y-107599984D01*
X132060494Y-107702699D01*
X132060495Y-107702702D01*
X132115640Y-107869119D01*
X132115641Y-107869121D01*
X132207681Y-108018341D01*
X132207684Y-108018345D01*
X132331654Y-108142315D01*
X132331658Y-108142318D01*
X132480878Y-108234358D01*
X132480879Y-108234359D01*
X132647298Y-108289504D01*
X132647305Y-108289505D01*
X132750023Y-108299999D01*
X133150000Y-108299999D01*
X133150000Y-107233012D01*
X133207007Y-107265925D01*
X133334174Y-107300000D01*
X133465826Y-107300000D01*
X133592993Y-107265925D01*
X133650000Y-107233012D01*
X133650000Y-108299998D01*
X133650001Y-108299999D01*
X134049968Y-108299999D01*
X134049984Y-108299998D01*
X134152699Y-108289505D01*
X134152702Y-108289504D01*
X134319118Y-108234359D01*
X134330391Y-108229103D01*
X134424761Y-108206008D01*
X134520786Y-108220786D01*
X134603846Y-108271185D01*
X134611698Y-108278701D01*
X134677258Y-108344261D01*
X134677268Y-108344270D01*
X134690225Y-108354212D01*
X134869711Y-108491936D01*
X134869720Y-108491941D01*
X135079782Y-108613221D01*
X135079798Y-108613229D01*
X135219858Y-108671242D01*
X135303900Y-108706054D01*
X135303911Y-108706057D01*
X135303917Y-108706059D01*
X135487021Y-108755121D01*
X135538211Y-108768838D01*
X135778712Y-108800500D01*
X136021288Y-108800500D01*
X136261789Y-108768838D01*
X136427323Y-108724483D01*
X136496082Y-108706059D01*
X136496084Y-108706058D01*
X136496100Y-108706054D01*
X136647766Y-108643231D01*
X136720201Y-108613229D01*
X136720206Y-108613226D01*
X136720212Y-108613224D01*
X136930289Y-108491936D01*
X137122738Y-108344265D01*
X137294265Y-108172738D01*
X137441936Y-107980289D01*
X137563224Y-107770212D01*
X137574032Y-107744121D01*
X137602663Y-107674998D01*
X137656054Y-107546100D01*
X137718838Y-107311789D01*
X137750500Y-107071288D01*
X137750500Y-106528712D01*
X137730377Y-106375862D01*
X137736731Y-106278920D01*
X137779702Y-106191784D01*
X137801169Y-106167303D01*
X141745044Y-102223430D01*
X141825826Y-102169454D01*
X141921114Y-102150500D01*
X144375500Y-102150500D01*
X144470788Y-102169454D01*
X144551570Y-102223430D01*
X144605546Y-102304212D01*
X144624500Y-102399500D01*
X144624500Y-102964208D01*
X144634904Y-103096412D01*
X144689904Y-103314683D01*
X144782993Y-103519626D01*
X144782995Y-103519629D01*
X144782996Y-103519631D01*
X144911177Y-103704649D01*
X144911178Y-103704650D01*
X144911181Y-103704654D01*
X145070346Y-103863819D01*
X145142302Y-103913670D01*
X145209834Y-103983514D01*
X145245498Y-104073886D01*
X145249500Y-104118348D01*
X145249500Y-104198412D01*
X145249501Y-104198428D01*
X145280290Y-104392823D01*
X145280291Y-104392826D01*
X145341116Y-104580026D01*
X145430476Y-104755405D01*
X145465886Y-104804142D01*
X145506561Y-104892370D01*
X145510376Y-104989450D01*
X145476749Y-105080601D01*
X145410801Y-105151944D01*
X145322571Y-105192620D01*
X145264441Y-105199500D01*
X142781908Y-105199500D01*
X142781904Y-105199500D01*
X142781899Y-105199501D01*
X142677861Y-105215979D01*
X142643420Y-105221434D01*
X142604469Y-105224500D01*
X142536404Y-105224500D01*
X142405557Y-105234798D01*
X142405554Y-105234798D01*
X142189458Y-105289250D01*
X141986567Y-105381407D01*
X141986565Y-105381409D01*
X141803388Y-105508315D01*
X141659633Y-105652070D01*
X141578851Y-105706046D01*
X141483564Y-105725000D01*
X141425001Y-105725000D01*
X141425000Y-105725001D01*
X141425000Y-106028013D01*
X141417452Y-106088855D01*
X141415452Y-106096792D01*
X141373790Y-106184561D01*
X141301711Y-106249705D01*
X141210189Y-106282306D01*
X141113158Y-106277402D01*
X141025389Y-106235740D01*
X140960245Y-106163661D01*
X140927644Y-106072139D01*
X140925000Y-106035950D01*
X140925000Y-105725000D01*
X140924999Y-105724999D01*
X140825855Y-105725000D01*
X140724848Y-105735319D01*
X140561197Y-105789546D01*
X140414464Y-105880053D01*
X140292553Y-106001964D01*
X140202045Y-106148700D01*
X140202044Y-106148702D01*
X140147819Y-106312342D01*
X140137500Y-106413350D01*
X140137500Y-106449999D01*
X140137501Y-106450000D01*
X140924999Y-106450000D01*
X140936930Y-106438069D01*
X141017712Y-106384093D01*
X141113000Y-106365139D01*
X141208288Y-106384093D01*
X141289070Y-106438069D01*
X141343046Y-106518851D01*
X141362000Y-106614139D01*
X141362000Y-106785861D01*
X141343046Y-106881149D01*
X141289070Y-106961931D01*
X141208288Y-107015907D01*
X141113000Y-107034861D01*
X141017712Y-107015907D01*
X140936930Y-106961931D01*
X140924999Y-106950000D01*
X140137502Y-106950000D01*
X140137501Y-106950001D01*
X140137501Y-106986652D01*
X140147819Y-107087651D01*
X140202046Y-107251302D01*
X140292553Y-107398035D01*
X140414464Y-107519946D01*
X140561200Y-107610454D01*
X140561202Y-107610455D01*
X140724842Y-107664680D01*
X140825855Y-107674999D01*
X140925000Y-107674998D01*
X140925000Y-107364048D01*
X140928567Y-107346113D01*
X140927645Y-107327852D01*
X140937958Y-107298901D01*
X140943954Y-107268760D01*
X140954112Y-107253556D01*
X140960249Y-107236331D01*
X140980855Y-107213532D01*
X140997930Y-107187978D01*
X141013134Y-107177818D01*
X141025395Y-107164254D01*
X141053158Y-107151076D01*
X141078712Y-107134002D01*
X141096646Y-107130434D01*
X141113165Y-107122594D01*
X141143857Y-107121043D01*
X141174000Y-107115048D01*
X141191934Y-107118615D01*
X141210196Y-107117693D01*
X141239146Y-107128006D01*
X141269288Y-107134002D01*
X141284491Y-107144160D01*
X141301717Y-107150297D01*
X141324515Y-107170903D01*
X141350070Y-107187978D01*
X141360229Y-107203182D01*
X141373794Y-107215443D01*
X141386971Y-107243206D01*
X141404046Y-107268760D01*
X141415454Y-107303213D01*
X141417454Y-107311151D01*
X141425000Y-107371986D01*
X141425000Y-107674998D01*
X141425001Y-107674999D01*
X141483563Y-107674999D01*
X141578851Y-107693953D01*
X141659632Y-107747929D01*
X141766993Y-107855289D01*
X141803389Y-107891685D01*
X141986567Y-108018592D01*
X142189462Y-108110751D01*
X142405551Y-108165201D01*
X142536416Y-108175500D01*
X142604469Y-108175500D01*
X142643420Y-108178565D01*
X142781908Y-108200500D01*
X145000500Y-108200500D01*
X145095788Y-108219454D01*
X145176570Y-108273430D01*
X145230546Y-108354212D01*
X145249500Y-108449500D01*
X145249500Y-109353887D01*
X145240126Y-109401013D01*
X145230953Y-109448186D01*
X145230652Y-109448637D01*
X145230546Y-109449175D01*
X145177325Y-109529198D01*
X145176861Y-109529665D01*
X145136181Y-109570346D01*
X145135373Y-109571512D01*
X145126825Y-109580134D01*
X145095188Y-109601469D01*
X145065486Y-109625422D01*
X145055180Y-109628451D01*
X145046276Y-109634457D01*
X145008887Y-109642061D01*
X144972276Y-109652825D01*
X144961595Y-109651680D01*
X144951070Y-109653821D01*
X144913614Y-109646537D01*
X144875674Y-109642471D01*
X144866244Y-109637326D01*
X144855701Y-109635276D01*
X144823883Y-109614213D01*
X144790388Y-109595938D01*
X144778857Y-109584407D01*
X144774689Y-109581648D01*
X144772128Y-109577851D01*
X144771726Y-109578254D01*
X144763821Y-109570349D01*
X144763819Y-109570346D01*
X144604654Y-109411181D01*
X144604650Y-109411178D01*
X144604649Y-109411177D01*
X144419631Y-109282996D01*
X144419629Y-109282995D01*
X144419626Y-109282993D01*
X144282776Y-109220833D01*
X144214686Y-109189905D01*
X144214684Y-109189904D01*
X144214683Y-109189904D01*
X143996412Y-109134904D01*
X143996411Y-109134903D01*
X143996408Y-109134903D01*
X143996405Y-109134902D01*
X143864222Y-109124500D01*
X142935791Y-109124500D01*
X142803587Y-109134904D01*
X142585313Y-109189905D01*
X142431941Y-109259570D01*
X142380374Y-109282993D01*
X142380372Y-109282993D01*
X142380368Y-109282996D01*
X142195350Y-109411177D01*
X142036177Y-109570350D01*
X141907996Y-109755368D01*
X141814905Y-109960313D01*
X141759903Y-110178591D01*
X141759902Y-110178594D01*
X141749116Y-110315657D01*
X141748055Y-110315573D01*
X141746578Y-110321724D01*
X141747287Y-110334461D01*
X141738018Y-110357364D01*
X141726867Y-110403792D01*
X141715150Y-110426147D01*
X141709137Y-110436327D01*
X141630476Y-110544595D01*
X141541116Y-110719974D01*
X141540503Y-110721857D01*
X141534022Y-110732833D01*
X141521214Y-110747149D01*
X141495692Y-110782279D01*
X139251403Y-113026570D01*
X139170621Y-113080546D01*
X139075333Y-113099500D01*
X135291388Y-113099500D01*
X135196100Y-113080546D01*
X135115318Y-113026570D01*
X135096240Y-113003718D01*
X135095986Y-113003931D01*
X135088822Y-112995350D01*
X135088821Y-112995349D01*
X135088819Y-112995346D01*
X134929654Y-112836181D01*
X134929650Y-112836178D01*
X134929649Y-112836177D01*
X134744631Y-112707996D01*
X134744629Y-112707995D01*
X134744626Y-112707993D01*
X134607776Y-112645833D01*
X134539686Y-112614905D01*
X134539684Y-112614904D01*
X134539683Y-112614904D01*
X134321412Y-112559904D01*
X134321411Y-112559903D01*
X134321408Y-112559903D01*
X134321405Y-112559902D01*
X134189222Y-112549500D01*
X132610791Y-112549500D01*
X132478587Y-112559904D01*
X132260313Y-112614905D01*
X132106941Y-112684570D01*
X132055374Y-112707993D01*
X132055372Y-112707993D01*
X132055368Y-112707996D01*
X131870350Y-112836177D01*
X131711177Y-112995350D01*
X131582996Y-113180368D01*
X131489905Y-113385313D01*
X131434903Y-113603591D01*
X131434902Y-113603594D01*
X131424500Y-113735771D01*
X131424500Y-115064208D01*
X131434904Y-115196412D01*
X131489905Y-115414686D01*
X131582994Y-115619628D01*
X131611181Y-115660313D01*
X131653762Y-115721776D01*
X131692447Y-115810895D01*
X131694083Y-115908037D01*
X131664725Y-115988076D01*
X131611776Y-116079786D01*
X131611770Y-116079798D01*
X131518948Y-116303894D01*
X131518940Y-116303917D01*
X131456163Y-116538204D01*
X131456162Y-116538209D01*
X131424500Y-116778712D01*
X131424500Y-117021287D01*
X131456162Y-117261790D01*
X131456163Y-117261795D01*
X131518940Y-117496082D01*
X131518948Y-117496105D01*
X131611770Y-117720201D01*
X131611778Y-117720217D01*
X131733058Y-117930279D01*
X131733064Y-117930289D01*
X131880729Y-118122731D01*
X131880733Y-118122735D01*
X131880735Y-118122738D01*
X132052262Y-118294265D01*
X132089299Y-118322684D01*
X132153357Y-118395727D01*
X132184587Y-118487725D01*
X132178234Y-118584672D01*
X132139165Y-118666585D01*
X132120376Y-118692445D01*
X132023908Y-118881774D01*
X132023902Y-118881787D01*
X131958243Y-119083870D01*
X131947769Y-119150000D01*
X132995854Y-119150000D01*
X132957370Y-119216657D01*
X132925000Y-119337465D01*
X132925000Y-119462535D01*
X132957370Y-119583343D01*
X132995854Y-119650000D01*
X131947770Y-119650000D01*
X131958243Y-119716129D01*
X132023902Y-119918212D01*
X132023908Y-119918225D01*
X132120376Y-120107553D01*
X132245275Y-120279462D01*
X132395537Y-120429724D01*
X132567446Y-120554623D01*
X132756774Y-120651091D01*
X132756787Y-120651097D01*
X132958867Y-120716755D01*
X132958875Y-120716757D01*
X133150000Y-120747028D01*
X133150000Y-119804145D01*
X133216657Y-119842630D01*
X133337465Y-119875000D01*
X133462535Y-119875000D01*
X133583343Y-119842630D01*
X133650000Y-119804145D01*
X133650000Y-120747027D01*
X133841124Y-120716757D01*
X133841132Y-120716755D01*
X134043212Y-120651097D01*
X134043225Y-120651091D01*
X134232553Y-120554623D01*
X134404462Y-120429724D01*
X134554724Y-120279462D01*
X134679623Y-120107553D01*
X134776091Y-119918225D01*
X134776097Y-119918212D01*
X134841756Y-119716129D01*
X134852230Y-119650000D01*
X133804146Y-119650000D01*
X133842630Y-119583343D01*
X133875000Y-119462535D01*
X133875000Y-119337465D01*
X133842630Y-119216657D01*
X133804146Y-119150000D01*
X134852230Y-119150000D01*
X134841757Y-119083876D01*
X134790606Y-118926444D01*
X134779188Y-118829962D01*
X134805560Y-118736455D01*
X134865709Y-118660158D01*
X134950476Y-118612686D01*
X135027420Y-118600500D01*
X140301878Y-118600500D01*
X140310130Y-118602141D01*
X140318472Y-118601054D01*
X140357508Y-118611565D01*
X140397166Y-118619454D01*
X140404161Y-118624128D01*
X140412286Y-118626316D01*
X140417115Y-118628771D01*
X140426951Y-118633909D01*
X140426954Y-118633910D01*
X140426953Y-118633910D01*
X140622575Y-118689884D01*
X140622582Y-118689886D01*
X140741963Y-118700500D01*
X140857539Y-118700499D01*
X140952823Y-118719452D01*
X141033605Y-118773428D01*
X141087582Y-118854209D01*
X141106537Y-118949497D01*
X141087584Y-119044785D01*
X141033608Y-119125567D01*
X140960523Y-119176204D01*
X140949067Y-119181407D01*
X140949065Y-119181409D01*
X140765888Y-119308315D01*
X140622133Y-119452070D01*
X140615137Y-119456743D01*
X140610008Y-119463412D01*
X140574965Y-119483585D01*
X140541351Y-119506046D01*
X140533100Y-119507687D01*
X140525809Y-119511885D01*
X140485718Y-119517112D01*
X140446064Y-119525000D01*
X140387501Y-119525000D01*
X140387500Y-119525001D01*
X140387500Y-119828013D01*
X140379952Y-119888855D01*
X140377952Y-119896792D01*
X140336290Y-119984561D01*
X140264211Y-120049705D01*
X140172689Y-120082306D01*
X140075658Y-120077402D01*
X139987889Y-120035740D01*
X139922745Y-119963661D01*
X139890144Y-119872139D01*
X139887500Y-119835950D01*
X139887500Y-119525000D01*
X139887499Y-119524999D01*
X139788355Y-119525000D01*
X139687348Y-119535319D01*
X139523697Y-119589546D01*
X139376964Y-119680053D01*
X139255053Y-119801964D01*
X139164545Y-119948700D01*
X139164544Y-119948702D01*
X139110319Y-120112342D01*
X139100000Y-120213350D01*
X139100000Y-120249999D01*
X139100001Y-120250000D01*
X139887499Y-120250000D01*
X139899430Y-120238069D01*
X139980212Y-120184093D01*
X140075500Y-120165139D01*
X140170788Y-120184093D01*
X140251570Y-120238069D01*
X140305546Y-120318851D01*
X140324500Y-120414139D01*
X140324500Y-120585861D01*
X140305546Y-120681149D01*
X140251570Y-120761931D01*
X140170788Y-120815907D01*
X140075500Y-120834861D01*
X139980212Y-120815907D01*
X139899430Y-120761931D01*
X139887499Y-120750000D01*
X139100002Y-120750000D01*
X139100001Y-120750001D01*
X139100001Y-120786652D01*
X139110319Y-120887651D01*
X139164546Y-121051302D01*
X139255053Y-121198035D01*
X139376964Y-121319946D01*
X139523700Y-121410454D01*
X139523702Y-121410455D01*
X139687342Y-121464680D01*
X139788355Y-121474999D01*
X139887500Y-121474998D01*
X139887500Y-121164048D01*
X139891067Y-121146113D01*
X139890145Y-121127852D01*
X139900458Y-121098901D01*
X139906454Y-121068760D01*
X139916612Y-121053556D01*
X139922749Y-121036331D01*
X139943355Y-121013532D01*
X139960430Y-120987978D01*
X139975634Y-120977818D01*
X139987895Y-120964254D01*
X140015658Y-120951076D01*
X140041212Y-120934002D01*
X140059146Y-120930434D01*
X140075665Y-120922594D01*
X140106357Y-120921043D01*
X140136500Y-120915048D01*
X140154434Y-120918615D01*
X140172696Y-120917693D01*
X140201646Y-120928006D01*
X140231788Y-120934002D01*
X140246991Y-120944160D01*
X140264217Y-120950297D01*
X140287015Y-120970903D01*
X140312570Y-120987978D01*
X140322729Y-121003182D01*
X140336294Y-121015443D01*
X140349471Y-121043206D01*
X140366546Y-121068760D01*
X140377954Y-121103213D01*
X140379954Y-121111151D01*
X140387500Y-121171986D01*
X140387500Y-121474998D01*
X140387501Y-121474999D01*
X140446063Y-121474999D01*
X140541351Y-121493953D01*
X140622132Y-121547929D01*
X140765886Y-121691682D01*
X140765889Y-121691685D01*
X140949067Y-121818592D01*
X141151962Y-121910751D01*
X141368051Y-121965201D01*
X141498916Y-121975500D01*
X141498918Y-121975500D01*
X142226082Y-121975500D01*
X142226084Y-121975500D01*
X142356949Y-121965201D01*
X142573038Y-121910751D01*
X142573041Y-121910749D01*
X142573043Y-121910749D01*
X142592703Y-121901818D01*
X142634687Y-121882748D01*
X142729281Y-121860597D01*
X142825154Y-121876332D01*
X142879462Y-121904775D01*
X143005374Y-121992007D01*
X143210317Y-122085096D01*
X143428588Y-122140096D01*
X143428591Y-122140096D01*
X143428594Y-122140097D01*
X143494685Y-122145298D01*
X143560783Y-122150500D01*
X144939216Y-122150499D01*
X145071412Y-122140096D01*
X145289683Y-122085096D01*
X145494626Y-121992007D01*
X145679654Y-121863819D01*
X145838819Y-121704654D01*
X145967007Y-121519626D01*
X146060096Y-121314683D01*
X146115096Y-121096412D01*
X146117273Y-121068760D01*
X146125499Y-120964228D01*
X146125500Y-120964217D01*
X146125499Y-120035784D01*
X146115096Y-119903588D01*
X146060096Y-119685317D01*
X145967007Y-119480374D01*
X145952537Y-119459488D01*
X145838822Y-119295350D01*
X145838821Y-119295349D01*
X145838819Y-119295346D01*
X145679654Y-119136181D01*
X145679650Y-119136178D01*
X145671746Y-119128274D01*
X145673666Y-119126353D01*
X145624598Y-119065527D01*
X145597179Y-118972322D01*
X145607514Y-118875718D01*
X145654031Y-118790423D01*
X145656875Y-118787078D01*
X145673026Y-118768410D01*
X145679654Y-118763819D01*
X145838819Y-118604654D01*
X145935682Y-118464840D01*
X145944437Y-118454722D01*
X145972416Y-118432954D01*
X145997904Y-118408310D01*
X146010462Y-118403354D01*
X146021118Y-118395064D01*
X146055299Y-118385659D01*
X146088277Y-118372646D01*
X146101776Y-118372873D01*
X146114793Y-118369292D01*
X146149966Y-118373683D01*
X146185418Y-118374280D01*
X146197804Y-118379656D01*
X146211199Y-118381329D01*
X146242015Y-118398847D01*
X146274539Y-118412965D01*
X146280369Y-118417004D01*
X146280370Y-118417004D01*
X146280374Y-118417007D01*
X146485317Y-118510096D01*
X146703588Y-118565096D01*
X146703591Y-118565096D01*
X146703594Y-118565097D01*
X146769685Y-118570298D01*
X146835783Y-118575500D01*
X147305936Y-118575499D01*
X147401224Y-118594453D01*
X147482005Y-118648429D01*
X147535982Y-118729210D01*
X147539092Y-118737641D01*
X147541113Y-118742520D01*
X147541115Y-118742525D01*
X147541116Y-118742526D01*
X147630476Y-118917905D01*
X147740220Y-119068954D01*
X147746173Y-119077147D01*
X148128513Y-119459488D01*
X148182489Y-119540269D01*
X148200675Y-119616021D01*
X148209797Y-119731942D01*
X148209798Y-119731945D01*
X148209798Y-119731948D01*
X148209799Y-119731949D01*
X148256733Y-119918212D01*
X148264250Y-119948041D01*
X148356407Y-120150932D01*
X148356408Y-120150933D01*
X148483315Y-120334111D01*
X148640889Y-120491685D01*
X148824067Y-120618592D01*
X149026962Y-120710751D01*
X149243051Y-120765201D01*
X149373916Y-120775500D01*
X149373918Y-120775500D01*
X150101082Y-120775500D01*
X150101084Y-120775500D01*
X150231949Y-120765201D01*
X150448038Y-120710751D01*
X150650933Y-120618592D01*
X150834111Y-120491685D01*
X150977868Y-120347927D01*
X151058646Y-120293953D01*
X151153933Y-120274999D01*
X151212500Y-120274998D01*
X151212500Y-119971986D01*
X151220046Y-119911151D01*
X151222046Y-119903213D01*
X151263706Y-119815443D01*
X151335783Y-119750297D01*
X151427304Y-119717693D01*
X151524335Y-119722594D01*
X151612105Y-119764254D01*
X151677251Y-119836331D01*
X151709855Y-119927852D01*
X151712500Y-119964048D01*
X151712500Y-120274998D01*
X151712501Y-120274999D01*
X151811636Y-120274999D01*
X151811652Y-120274998D01*
X151912651Y-120264680D01*
X152076302Y-120210453D01*
X152223035Y-120119946D01*
X152344946Y-119998035D01*
X152435454Y-119851299D01*
X152435455Y-119851297D01*
X152489680Y-119687657D01*
X152499999Y-119586649D01*
X152500000Y-119586639D01*
X152500000Y-119550001D01*
X152499999Y-119550000D01*
X151711500Y-119550000D01*
X151616212Y-119531046D01*
X151535430Y-119477070D01*
X151481454Y-119396288D01*
X151462500Y-119301000D01*
X151462500Y-119299000D01*
X151481454Y-119203712D01*
X151535430Y-119122930D01*
X151616212Y-119068954D01*
X151711500Y-119050000D01*
X152499998Y-119050000D01*
X152499999Y-119049999D01*
X152499999Y-119013364D01*
X152499998Y-119013347D01*
X152489680Y-118912348D01*
X152435453Y-118748697D01*
X152344946Y-118601964D01*
X152223035Y-118480053D01*
X152076300Y-118389545D01*
X151991565Y-118361467D01*
X151907075Y-118313502D01*
X151847373Y-118236856D01*
X151821546Y-118143196D01*
X151833527Y-118046783D01*
X151865211Y-117983302D01*
X151892007Y-117944626D01*
X151985096Y-117739683D01*
X152040096Y-117521412D01*
X152050500Y-117389217D01*
X152050499Y-116010784D01*
X152040096Y-115878588D01*
X151985096Y-115660317D01*
X151892007Y-115455374D01*
X151860726Y-115410223D01*
X151763822Y-115270350D01*
X151763816Y-115270342D01*
X151723429Y-115229955D01*
X151669453Y-115149173D01*
X151650500Y-115053887D01*
X151650500Y-114458053D01*
X165433000Y-114458053D01*
X165433001Y-114458053D01*
X172176999Y-114458053D01*
X172177000Y-114458053D01*
X172177000Y-110643603D01*
X165433000Y-110643603D01*
X165433000Y-114458053D01*
X151650500Y-114458053D01*
X151650500Y-112921112D01*
X151669454Y-112825824D01*
X151723426Y-112745047D01*
X152253566Y-112214906D01*
X152334345Y-112160933D01*
X152429633Y-112141979D01*
X152484453Y-112148089D01*
X152510188Y-112153897D01*
X152519975Y-112158884D01*
X152707174Y-112219709D01*
X152901583Y-112250500D01*
X152901584Y-112250500D01*
X152938204Y-112250500D01*
X152965275Y-112256610D01*
X152984792Y-112265286D01*
X153005743Y-112269454D01*
X153052255Y-112294820D01*
X153086567Y-112318592D01*
X153289462Y-112410751D01*
X153505551Y-112465201D01*
X153636416Y-112475500D01*
X153636418Y-112475500D01*
X154363582Y-112475500D01*
X154363584Y-112475500D01*
X154494449Y-112465201D01*
X154710538Y-112410751D01*
X154913433Y-112318592D01*
X155096611Y-112191685D01*
X155240368Y-112047927D01*
X155321146Y-111993953D01*
X155416433Y-111974999D01*
X155475000Y-111974998D01*
X155475000Y-111671986D01*
X155482546Y-111611151D01*
X155484546Y-111603213D01*
X155526206Y-111515443D01*
X155598283Y-111450297D01*
X155689804Y-111417693D01*
X155786835Y-111422594D01*
X155874605Y-111464254D01*
X155939751Y-111536331D01*
X155972355Y-111627852D01*
X155975000Y-111664048D01*
X155975000Y-111974998D01*
X155975001Y-111974999D01*
X156074136Y-111974999D01*
X156074152Y-111974998D01*
X156175151Y-111964680D01*
X156338802Y-111910453D01*
X156485535Y-111819946D01*
X156607446Y-111698035D01*
X156697954Y-111551299D01*
X156697955Y-111551297D01*
X156752180Y-111387657D01*
X156762499Y-111286649D01*
X156762500Y-111286639D01*
X156762500Y-111250001D01*
X156762499Y-111250000D01*
X155975001Y-111250000D01*
X155963070Y-111261931D01*
X155882288Y-111315907D01*
X155787000Y-111334861D01*
X155691712Y-111315907D01*
X155610930Y-111261931D01*
X155556954Y-111181149D01*
X155538000Y-111085861D01*
X155538000Y-110914139D01*
X155556954Y-110818851D01*
X155610930Y-110738069D01*
X155691712Y-110684093D01*
X155787000Y-110665139D01*
X155882288Y-110684093D01*
X155963070Y-110738069D01*
X155975001Y-110750000D01*
X156762498Y-110750000D01*
X156762499Y-110749999D01*
X156762499Y-110713364D01*
X156762498Y-110713347D01*
X156752180Y-110612349D01*
X156697952Y-110448697D01*
X156607446Y-110301964D01*
X156485535Y-110180053D01*
X156338799Y-110089545D01*
X156338797Y-110089544D01*
X156175157Y-110035319D01*
X156074149Y-110025000D01*
X155975001Y-110025000D01*
X155975000Y-110025001D01*
X155975000Y-110335950D01*
X155971433Y-110353881D01*
X155972356Y-110372139D01*
X155962042Y-110401093D01*
X155956046Y-110431238D01*
X155945890Y-110446437D01*
X155939755Y-110463661D01*
X155919145Y-110486465D01*
X155902070Y-110512020D01*
X155886869Y-110522176D01*
X155874611Y-110535740D01*
X155846843Y-110548920D01*
X155821288Y-110565996D01*
X155803356Y-110569562D01*
X155786842Y-110577402D01*
X155756147Y-110578953D01*
X155726000Y-110584950D01*
X155708068Y-110581383D01*
X155689811Y-110582306D01*
X155660856Y-110571992D01*
X155630712Y-110565996D01*
X155615512Y-110555840D01*
X155598289Y-110549705D01*
X155575484Y-110529095D01*
X155549930Y-110512020D01*
X155539773Y-110496819D01*
X155526210Y-110484561D01*
X155513029Y-110456793D01*
X155495954Y-110431238D01*
X155484548Y-110396792D01*
X155482548Y-110388855D01*
X155475000Y-110328013D01*
X155475000Y-110025000D01*
X155474999Y-110024999D01*
X155416438Y-110025000D01*
X155321149Y-110006047D01*
X155240368Y-109952071D01*
X155240367Y-109952070D01*
X155096613Y-109808317D01*
X155096611Y-109808315D01*
X154913434Y-109681409D01*
X154913432Y-109681407D01*
X154710541Y-109589250D01*
X154710539Y-109589249D01*
X154710538Y-109589249D01*
X154494449Y-109534799D01*
X154494447Y-109534798D01*
X154494444Y-109534798D01*
X154363595Y-109524500D01*
X154363584Y-109524500D01*
X153636416Y-109524500D01*
X153519034Y-109533737D01*
X153422553Y-109522318D01*
X153337786Y-109474845D01*
X153277639Y-109398547D01*
X153251267Y-109305040D01*
X153250500Y-109285505D01*
X153250500Y-108724483D01*
X153269454Y-108629195D01*
X153323430Y-108548413D01*
X153404212Y-108494437D01*
X153499500Y-108475483D01*
X153594787Y-108494436D01*
X153803900Y-108581054D01*
X153803911Y-108581057D01*
X153803917Y-108581059D01*
X153983563Y-108629195D01*
X154038211Y-108643838D01*
X154278712Y-108675500D01*
X154521288Y-108675500D01*
X154761789Y-108643838D01*
X154923275Y-108600567D01*
X154996082Y-108581059D01*
X154996084Y-108581058D01*
X154996100Y-108581054D01*
X155147766Y-108518231D01*
X155220201Y-108488229D01*
X155220206Y-108488226D01*
X155220212Y-108488224D01*
X155430289Y-108366936D01*
X155498419Y-108314657D01*
X155585555Y-108271687D01*
X155682502Y-108265333D01*
X155774501Y-108296563D01*
X155801579Y-108314657D01*
X155869711Y-108366936D01*
X155869720Y-108366941D01*
X156079782Y-108488221D01*
X156079798Y-108488229D01*
X156219858Y-108546242D01*
X156303900Y-108581054D01*
X156303911Y-108581057D01*
X156303917Y-108581059D01*
X156483563Y-108629195D01*
X156538211Y-108643838D01*
X156778712Y-108675500D01*
X157021288Y-108675500D01*
X157261789Y-108643838D01*
X157423275Y-108600567D01*
X157496082Y-108581059D01*
X157496084Y-108581058D01*
X157496100Y-108581054D01*
X157647766Y-108518231D01*
X157720201Y-108488229D01*
X157720206Y-108488226D01*
X157720212Y-108488224D01*
X157930289Y-108366936D01*
X158122738Y-108219265D01*
X158188300Y-108153703D01*
X158269081Y-108099726D01*
X158364369Y-108080771D01*
X158459658Y-108099724D01*
X158469605Y-108104101D01*
X158480883Y-108109360D01*
X158647298Y-108164504D01*
X158647305Y-108164505D01*
X158750023Y-108174999D01*
X159150000Y-108174999D01*
X159150000Y-107104145D01*
X159216657Y-107142630D01*
X159337465Y-107175000D01*
X159462535Y-107175000D01*
X159583343Y-107142630D01*
X159650000Y-107104145D01*
X159650000Y-108174998D01*
X159650001Y-108174999D01*
X160049968Y-108174999D01*
X160049984Y-108174998D01*
X160152699Y-108164505D01*
X160152702Y-108164504D01*
X160319119Y-108109359D01*
X160319121Y-108109358D01*
X160468341Y-108017318D01*
X160468345Y-108017315D01*
X160592315Y-107893345D01*
X160592318Y-107893341D01*
X160684358Y-107744121D01*
X160684359Y-107744120D01*
X160739504Y-107577701D01*
X160739505Y-107577694D01*
X160749999Y-107474981D01*
X160750000Y-107474971D01*
X160750000Y-106950001D01*
X160749999Y-106950000D01*
X159804146Y-106950000D01*
X159842630Y-106883343D01*
X159875000Y-106762535D01*
X159875000Y-106637465D01*
X159842630Y-106516657D01*
X159804146Y-106450000D01*
X160749998Y-106450000D01*
X160749999Y-106449999D01*
X160749999Y-105925032D01*
X160749998Y-105925015D01*
X160739505Y-105822300D01*
X160739504Y-105822297D01*
X160684359Y-105655880D01*
X160684358Y-105655878D01*
X160592318Y-105506658D01*
X160592315Y-105506654D01*
X160468345Y-105382684D01*
X160468341Y-105382681D01*
X160319121Y-105290641D01*
X160319120Y-105290640D01*
X160152701Y-105235495D01*
X160152694Y-105235494D01*
X160049981Y-105225000D01*
X159650001Y-105225000D01*
X159650000Y-105225001D01*
X159650000Y-106295854D01*
X159583343Y-106257370D01*
X159462535Y-106225000D01*
X159337465Y-106225000D01*
X159216657Y-106257370D01*
X159150000Y-106295854D01*
X159150000Y-105225001D01*
X159149999Y-105225000D01*
X158750024Y-105225000D01*
X158647300Y-105235494D01*
X158647294Y-105235495D01*
X158577821Y-105258517D01*
X158481408Y-105270498D01*
X158387749Y-105244670D01*
X158311103Y-105184967D01*
X158263139Y-105100477D01*
X158250500Y-105022156D01*
X158250500Y-103221113D01*
X158269454Y-103125825D01*
X158323427Y-103045046D01*
X158353828Y-103014646D01*
X158353830Y-103014642D01*
X158353834Y-103014639D01*
X158353836Y-103014635D01*
X158469517Y-102855414D01*
X158469519Y-102855411D01*
X158469523Y-102855406D01*
X158472533Y-102849500D01*
X158558884Y-102680025D01*
X158619709Y-102492826D01*
X158650500Y-102298417D01*
X158650500Y-98218348D01*
X158669454Y-98123060D01*
X158723430Y-98042278D01*
X158757695Y-98013671D01*
X158829654Y-97963819D01*
X158988819Y-97804654D01*
X159117007Y-97619626D01*
X159210096Y-97414683D01*
X159265096Y-97196412D01*
X159275500Y-97064217D01*
X159275499Y-96135784D01*
X159265096Y-96003588D01*
X159210096Y-95785317D01*
X159117007Y-95580374D01*
X158988819Y-95395346D01*
X158829654Y-95236181D01*
X158829650Y-95236178D01*
X158821746Y-95228274D01*
X158823666Y-95226353D01*
X158774598Y-95165527D01*
X158747179Y-95072322D01*
X158757514Y-94975718D01*
X158804031Y-94890423D01*
X158822237Y-94872217D01*
X158821746Y-94871726D01*
X158829650Y-94863821D01*
X158829654Y-94863819D01*
X158988819Y-94704654D01*
X159117007Y-94519626D01*
X159210096Y-94314683D01*
X159265096Y-94096412D01*
X159265146Y-94095788D01*
X159275499Y-93964228D01*
X159275500Y-93964217D01*
X159275499Y-93035784D01*
X159265096Y-92903588D01*
X159210096Y-92685317D01*
X159210094Y-92685314D01*
X159209935Y-92684858D01*
X159209877Y-92684453D01*
X159207363Y-92674473D01*
X159208430Y-92674203D01*
X159196354Y-92588657D01*
X159220620Y-92494582D01*
X159279041Y-92416954D01*
X159362722Y-92367591D01*
X159458923Y-92354010D01*
X159496061Y-92358918D01*
X159663748Y-92394078D01*
X159663749Y-92394078D01*
X159663763Y-92394081D01*
X159767158Y-92400500D01*
X159767165Y-92400500D01*
X160932835Y-92400500D01*
X160932842Y-92400500D01*
X161036237Y-92394081D01*
X161279614Y-92343050D01*
X161511273Y-92252656D01*
X161724894Y-92125366D01*
X161813877Y-92050001D01*
X165150000Y-92050001D01*
X165150000Y-92251099D01*
X165152897Y-92293821D01*
X165198829Y-92478520D01*
X165283392Y-92649025D01*
X165283393Y-92649027D01*
X165402629Y-92797362D01*
X165402637Y-92797370D01*
X165550972Y-92916606D01*
X165550974Y-92916607D01*
X165721479Y-93001170D01*
X165906178Y-93047102D01*
X165948900Y-93049999D01*
X165948907Y-93050000D01*
X166399999Y-93050000D01*
X166400000Y-93049999D01*
X166400000Y-92050001D01*
X166900000Y-92050001D01*
X166900000Y-93049999D01*
X166900001Y-93050000D01*
X167351093Y-93050000D01*
X167351099Y-93049999D01*
X167393821Y-93047102D01*
X167578520Y-93001170D01*
X167749025Y-92916607D01*
X167749027Y-92916606D01*
X167897362Y-92797370D01*
X167897370Y-92797362D01*
X168016606Y-92649027D01*
X168016607Y-92649025D01*
X168101170Y-92478520D01*
X168147102Y-92293821D01*
X168149999Y-92251099D01*
X168150000Y-92251092D01*
X168150000Y-92050001D01*
X168149999Y-92050000D01*
X166900001Y-92050000D01*
X166900000Y-92050001D01*
X166400000Y-92050001D01*
X166399999Y-92050000D01*
X165150001Y-92050000D01*
X165150000Y-92050001D01*
X161813877Y-92050001D01*
X161914650Y-91964650D01*
X162075366Y-91774894D01*
X162202656Y-91561273D01*
X162293050Y-91329614D01*
X162308058Y-91258037D01*
X162320563Y-91198401D01*
X162358668Y-91109031D01*
X162428073Y-91041045D01*
X162518212Y-91004795D01*
X162564263Y-91000500D01*
X164910408Y-91000500D01*
X165005696Y-91019454D01*
X165086478Y-91073430D01*
X165140454Y-91154212D01*
X165159408Y-91249500D01*
X165153807Y-91295227D01*
X165154597Y-91295351D01*
X165152897Y-91306175D01*
X165150000Y-91348900D01*
X165150000Y-91549999D01*
X165150001Y-91550000D01*
X168149999Y-91550000D01*
X168150000Y-91549999D01*
X168150000Y-91348907D01*
X168149999Y-91348900D01*
X168147102Y-91306176D01*
X168109015Y-91153026D01*
X168107347Y-91117883D01*
X168101847Y-91083128D01*
X168105063Y-91069736D01*
X168104411Y-91055980D01*
X168116320Y-91022871D01*
X168124538Y-90988660D01*
X168132281Y-90978499D01*
X168137296Y-90964559D01*
X168181652Y-90910066D01*
X168185786Y-90906244D01*
X168251142Y-90851142D01*
X168271373Y-90827146D01*
X168282747Y-90816635D01*
X168311212Y-90799195D01*
X168337294Y-90778364D01*
X168352285Y-90774032D01*
X168365591Y-90765881D01*
X168398560Y-90760662D01*
X168430631Y-90751397D01*
X168451749Y-90750500D01*
X168550697Y-90750500D01*
X168645985Y-90769454D01*
X168726767Y-90823430D01*
X168755374Y-90857695D01*
X168808315Y-90934111D01*
X168952072Y-91077868D01*
X169006046Y-91158647D01*
X169025000Y-91253935D01*
X169025000Y-91312499D01*
X169025001Y-91312500D01*
X169328013Y-91312500D01*
X169388855Y-91320048D01*
X169396792Y-91322048D01*
X169484561Y-91363710D01*
X169549705Y-91435789D01*
X169582306Y-91527311D01*
X169577402Y-91624342D01*
X169535740Y-91712111D01*
X169463661Y-91777255D01*
X169372139Y-91809856D01*
X169335950Y-91812500D01*
X169025002Y-91812500D01*
X169025001Y-91812501D01*
X169025001Y-91911652D01*
X169035319Y-92012651D01*
X169089546Y-92176302D01*
X169180053Y-92323035D01*
X169301964Y-92444946D01*
X169448700Y-92535454D01*
X169448702Y-92535455D01*
X169612342Y-92589680D01*
X169713355Y-92599999D01*
X169750000Y-92599998D01*
X169750000Y-91812501D01*
X169738069Y-91800570D01*
X169684093Y-91719788D01*
X169665139Y-91624500D01*
X169684093Y-91529212D01*
X169738069Y-91448430D01*
X169818851Y-91394454D01*
X169914139Y-91375500D01*
X170085861Y-91375500D01*
X170181149Y-91394454D01*
X170261931Y-91448430D01*
X170315907Y-91529212D01*
X170334861Y-91624500D01*
X170315907Y-91719788D01*
X170261931Y-91800570D01*
X170250000Y-91812501D01*
X170250000Y-92599998D01*
X170250001Y-92599999D01*
X170286636Y-92599999D01*
X170286652Y-92599998D01*
X170387651Y-92589680D01*
X170551302Y-92535453D01*
X170698035Y-92444946D01*
X170819946Y-92323035D01*
X170910454Y-92176299D01*
X170910455Y-92176297D01*
X170964680Y-92012657D01*
X170974999Y-91911649D01*
X170975000Y-91911639D01*
X170975000Y-91812501D01*
X170974999Y-91812500D01*
X170664050Y-91812500D01*
X170646118Y-91808933D01*
X170627861Y-91809856D01*
X170598906Y-91799542D01*
X170568762Y-91793546D01*
X170553562Y-91783390D01*
X170536339Y-91777255D01*
X170513534Y-91756645D01*
X170487980Y-91739570D01*
X170477823Y-91724369D01*
X170464260Y-91712111D01*
X170451079Y-91684343D01*
X170434004Y-91658788D01*
X170430437Y-91640856D01*
X170422598Y-91624342D01*
X170421046Y-91593647D01*
X170415050Y-91563500D01*
X170418616Y-91545568D01*
X170417694Y-91527311D01*
X170428007Y-91498356D01*
X170434004Y-91468212D01*
X170444159Y-91453012D01*
X170450295Y-91435789D01*
X170470904Y-91412984D01*
X170487980Y-91387430D01*
X170503180Y-91377273D01*
X170515439Y-91363710D01*
X170543206Y-91350529D01*
X170568762Y-91333454D01*
X170603208Y-91322048D01*
X170611145Y-91320048D01*
X170671987Y-91312500D01*
X170974998Y-91312500D01*
X170974999Y-91312499D01*
X170974999Y-91253936D01*
X170993953Y-91158648D01*
X171047926Y-91077869D01*
X171191685Y-90934111D01*
X171318592Y-90750933D01*
X171410751Y-90548038D01*
X171465201Y-90331949D01*
X171475500Y-90201084D01*
X171475500Y-89473916D01*
X171465201Y-89343051D01*
X171410751Y-89126962D01*
X171318592Y-88924067D01*
X171191685Y-88740889D01*
X171034111Y-88583315D01*
X170850933Y-88456408D01*
X170809229Y-88437465D01*
X170648040Y-88364249D01*
X170528532Y-88334135D01*
X170443018Y-88294130D01*
X170436326Y-88289268D01*
X170355405Y-88230476D01*
X170263936Y-88183870D01*
X170180031Y-88141118D01*
X170180021Y-88141114D01*
X169992824Y-88080290D01*
X169798428Y-88049501D01*
X169798419Y-88049500D01*
X169798417Y-88049500D01*
X169601583Y-88049500D01*
X169601580Y-88049500D01*
X169601571Y-88049501D01*
X169407176Y-88080290D01*
X169219978Y-88141114D01*
X169219974Y-88141115D01*
X169219974Y-88141116D01*
X169060519Y-88222361D01*
X169050995Y-88225047D01*
X169042767Y-88230546D01*
X169004532Y-88238151D01*
X168967015Y-88248732D01*
X168947479Y-88249500D01*
X168847310Y-88249500D01*
X168752022Y-88230546D01*
X168671240Y-88176570D01*
X168617264Y-88095788D01*
X168598310Y-88000500D01*
X168602840Y-87953220D01*
X168621084Y-87858888D01*
X168647705Y-87721241D01*
X168647705Y-87721237D01*
X168647706Y-87721233D01*
X168650406Y-87670386D01*
X168650500Y-87668622D01*
X168650500Y-86731378D01*
X168650324Y-86728068D01*
X168647706Y-86678768D01*
X168647705Y-86678764D01*
X168647705Y-86678759D01*
X168603245Y-86448874D01*
X168520574Y-86229810D01*
X168402070Y-86027868D01*
X168251142Y-85848858D01*
X168072132Y-85697930D01*
X168072123Y-85697924D01*
X167870193Y-85579428D01*
X167870194Y-85579428D01*
X167870190Y-85579426D01*
X167651126Y-85496755D01*
X167421241Y-85452295D01*
X167421237Y-85452294D01*
X167421228Y-85452293D01*
X167421235Y-85452293D01*
X167368658Y-85449501D01*
X167368627Y-85449500D01*
X167368622Y-85449500D01*
X167368615Y-85449500D01*
X166771114Y-85449500D01*
X166675826Y-85430546D01*
X166595044Y-85376570D01*
X165325548Y-84107074D01*
X165271572Y-84026292D01*
X165252618Y-83931004D01*
X165271572Y-83835716D01*
X165325548Y-83754934D01*
X165382446Y-83698035D01*
X165472954Y-83551299D01*
X165472955Y-83551297D01*
X165527180Y-83387657D01*
X165537499Y-83286649D01*
X165537500Y-83286639D01*
X165537500Y-83250001D01*
X165537499Y-83250000D01*
X164749000Y-83250000D01*
X164653712Y-83231046D01*
X164572930Y-83177070D01*
X164518954Y-83096288D01*
X164500000Y-83001000D01*
X164500000Y-82999000D01*
X164518954Y-82903712D01*
X164572930Y-82822930D01*
X164653712Y-82768954D01*
X164749000Y-82750000D01*
X165537498Y-82750000D01*
X165537499Y-82749999D01*
X165537499Y-82713364D01*
X165537498Y-82713347D01*
X165527180Y-82612348D01*
X165472953Y-82448697D01*
X165382446Y-82301964D01*
X165260535Y-82180053D01*
X165113799Y-82089545D01*
X165113797Y-82089544D01*
X164950157Y-82035319D01*
X164849149Y-82025000D01*
X164750001Y-82025000D01*
X164750000Y-82025001D01*
X164750000Y-82335950D01*
X164746433Y-82353881D01*
X164747356Y-82372139D01*
X164737042Y-82401093D01*
X164731046Y-82431238D01*
X164720890Y-82446437D01*
X164714755Y-82463661D01*
X164694145Y-82486465D01*
X164677070Y-82512020D01*
X164661869Y-82522176D01*
X164649611Y-82535740D01*
X164621843Y-82548920D01*
X164596288Y-82565996D01*
X164578356Y-82569562D01*
X164561842Y-82577402D01*
X164531147Y-82578953D01*
X164501000Y-82584950D01*
X164483068Y-82581383D01*
X164464811Y-82582306D01*
X164435856Y-82571992D01*
X164405712Y-82565996D01*
X164390512Y-82555840D01*
X164373289Y-82549705D01*
X164350484Y-82529095D01*
X164324930Y-82512020D01*
X164314773Y-82496819D01*
X164301210Y-82484561D01*
X164288029Y-82456793D01*
X164270954Y-82431238D01*
X164259548Y-82396792D01*
X164257548Y-82388855D01*
X164250000Y-82328013D01*
X164250000Y-82025000D01*
X164243915Y-82018915D01*
X164179212Y-82006045D01*
X164098430Y-81952069D01*
X164044454Y-81871287D01*
X164025500Y-81775999D01*
X164025500Y-81276587D01*
X164025498Y-81276571D01*
X164024382Y-81269523D01*
X163994709Y-81082174D01*
X163961632Y-80980374D01*
X163933884Y-80894974D01*
X163844524Y-80719595D01*
X163798052Y-80655631D01*
X163757379Y-80567402D01*
X163750500Y-80509276D01*
X163750500Y-79969706D01*
X163769454Y-79874418D01*
X163823430Y-79793636D01*
X163904212Y-79739660D01*
X163999500Y-79720706D01*
X164077823Y-79733345D01*
X164247303Y-79789505D01*
X164350023Y-79799999D01*
X164750000Y-79799999D01*
X164750000Y-78733012D01*
X164807007Y-78765925D01*
X164934174Y-78800000D01*
X165065826Y-78800000D01*
X165192993Y-78765925D01*
X165250000Y-78733012D01*
X165250000Y-79799998D01*
X165250001Y-79799999D01*
X165649968Y-79799999D01*
X165649984Y-79799998D01*
X165752699Y-79789505D01*
X165752702Y-79789504D01*
X165919119Y-79734359D01*
X165919121Y-79734358D01*
X166068341Y-79642318D01*
X166068345Y-79642315D01*
X166192315Y-79518345D01*
X166192318Y-79518341D01*
X166284358Y-79369121D01*
X166284359Y-79369120D01*
X166339504Y-79202701D01*
X166339505Y-79202694D01*
X166349999Y-79099981D01*
X166350000Y-79099971D01*
X166350000Y-78550001D01*
X166349999Y-78550000D01*
X165433012Y-78550000D01*
X165465925Y-78492993D01*
X165500000Y-78365826D01*
X165500000Y-78234174D01*
X165465925Y-78107007D01*
X165433012Y-78050000D01*
X166349998Y-78050000D01*
X166349999Y-78049999D01*
X166349999Y-77500032D01*
X166349998Y-77500015D01*
X166339505Y-77397300D01*
X166339504Y-77397297D01*
X166284359Y-77230880D01*
X166284358Y-77230878D01*
X166192318Y-77081658D01*
X166192315Y-77081654D01*
X166068345Y-76957684D01*
X166068341Y-76957681D01*
X165919121Y-76865641D01*
X165919120Y-76865640D01*
X165752701Y-76810495D01*
X165752694Y-76810494D01*
X165649981Y-76800000D01*
X165250001Y-76800000D01*
X165250000Y-76800001D01*
X165250000Y-77866988D01*
X165192993Y-77834075D01*
X165065826Y-77800000D01*
X164934174Y-77800000D01*
X164807007Y-77834075D01*
X164750000Y-77866988D01*
X164750000Y-76800001D01*
X164749999Y-76800000D01*
X164350024Y-76800000D01*
X164247300Y-76810494D01*
X164247297Y-76810495D01*
X164080874Y-76865642D01*
X164069597Y-76870901D01*
X163975226Y-76893991D01*
X163879202Y-76879209D01*
X163796144Y-76828806D01*
X163788301Y-76821298D01*
X163722741Y-76755738D01*
X163722731Y-76755729D01*
X163530289Y-76608064D01*
X163530279Y-76608058D01*
X163320217Y-76486778D01*
X163320201Y-76486770D01*
X163096105Y-76393948D01*
X163096103Y-76393947D01*
X163096100Y-76393946D01*
X163096096Y-76393945D01*
X163096082Y-76393940D01*
X162861795Y-76331163D01*
X162861790Y-76331162D01*
X162621288Y-76299500D01*
X162378712Y-76299500D01*
X162138209Y-76331162D01*
X162138204Y-76331163D01*
X161903917Y-76393940D01*
X161903894Y-76393948D01*
X161679798Y-76486770D01*
X161679782Y-76486778D01*
X161469720Y-76608058D01*
X161469710Y-76608064D01*
X161277268Y-76755729D01*
X161277258Y-76755738D01*
X161105738Y-76927258D01*
X161105729Y-76927268D01*
X160958064Y-77119710D01*
X160958058Y-77119720D01*
X160836778Y-77329782D01*
X160833169Y-77337102D01*
X160830906Y-77335985D01*
X160785591Y-77403771D01*
X160704796Y-77457728D01*
X160609504Y-77476659D01*
X160514220Y-77457682D01*
X160496520Y-77449520D01*
X160480026Y-77441116D01*
X160480021Y-77441114D01*
X160292823Y-77380290D01*
X160098428Y-77349501D01*
X160098419Y-77349500D01*
X160098417Y-77349500D01*
X153301583Y-77349500D01*
X153301580Y-77349500D01*
X153301571Y-77349501D01*
X153107176Y-77380290D01*
X152919978Y-77441114D01*
X152744590Y-77530478D01*
X152585359Y-77646167D01*
X152585354Y-77646171D01*
X151995379Y-78236144D01*
X151914598Y-78290120D01*
X151819309Y-78309074D01*
X151724021Y-78290120D01*
X151643240Y-78236143D01*
X151589264Y-78155362D01*
X151571078Y-78079613D01*
X151565096Y-78003588D01*
X151510096Y-77785317D01*
X151417007Y-77580374D01*
X151345153Y-77476659D01*
X151288822Y-77395350D01*
X151288821Y-77395349D01*
X151288819Y-77395346D01*
X151129654Y-77236181D01*
X151129650Y-77236178D01*
X151129649Y-77236177D01*
X150944631Y-77107996D01*
X150944629Y-77107995D01*
X150944626Y-77107993D01*
X150802435Y-77043407D01*
X150739686Y-77014905D01*
X150739684Y-77014904D01*
X150739683Y-77014904D01*
X150521412Y-76959904D01*
X150521411Y-76959903D01*
X150521408Y-76959903D01*
X150521405Y-76959902D01*
X150389222Y-76949500D01*
X149010791Y-76949500D01*
X148878587Y-76959904D01*
X148660313Y-77014905D01*
X148455369Y-77107995D01*
X148343343Y-77185607D01*
X148254221Y-77224292D01*
X148157080Y-77225926D01*
X148066708Y-77190262D01*
X148025472Y-77156998D01*
X147623430Y-76754956D01*
X147569454Y-76674174D01*
X147550500Y-76578886D01*
X147550500Y-75522414D01*
X147569454Y-75427126D01*
X147623430Y-75346344D01*
X147704212Y-75292368D01*
X147799500Y-75273414D01*
X147819031Y-75274181D01*
X147835783Y-75275500D01*
X149164216Y-75275499D01*
X149296412Y-75265096D01*
X149514683Y-75210096D01*
X149719626Y-75117007D01*
X149904654Y-74988819D01*
X150063819Y-74829654D01*
X150192007Y-74644626D01*
X150285096Y-74439683D01*
X150340096Y-74221412D01*
X150350500Y-74089217D01*
X150350499Y-73581483D01*
X168249500Y-73581483D01*
X168249500Y-73918516D01*
X168287233Y-74253397D01*
X168362220Y-74581943D01*
X168362223Y-74581950D01*
X168362224Y-74581954D01*
X168384154Y-74644626D01*
X168473528Y-74900045D01*
X168578011Y-75117007D01*
X168619754Y-75203686D01*
X168619758Y-75203692D01*
X168619760Y-75203696D01*
X168799053Y-75489038D01*
X168891914Y-75605482D01*
X169009175Y-75752523D01*
X169247477Y-75990825D01*
X169510961Y-76200946D01*
X169796314Y-76380246D01*
X170099949Y-76526469D01*
X170099952Y-76526470D01*
X170099954Y-76526471D01*
X170110760Y-76530252D01*
X170418046Y-76637776D01*
X170418052Y-76637777D01*
X170418056Y-76637779D01*
X170706215Y-76703548D01*
X170746606Y-76712767D01*
X170928005Y-76733205D01*
X171081483Y-76750499D01*
X171081496Y-76750500D01*
X171418504Y-76750500D01*
X171418516Y-76750499D01*
X171534784Y-76737398D01*
X171753394Y-76712767D01*
X171912419Y-76676471D01*
X172081943Y-76637779D01*
X172081945Y-76637777D01*
X172081954Y-76637776D01*
X172400051Y-76526469D01*
X172703686Y-76380246D01*
X172989039Y-76200946D01*
X173252523Y-75990825D01*
X173490825Y-75752523D01*
X173700946Y-75489039D01*
X173880246Y-75203686D01*
X174026469Y-74900051D01*
X174137776Y-74581954D01*
X174170248Y-74439686D01*
X174212766Y-74253397D01*
X174212767Y-74253394D01*
X174250500Y-73918504D01*
X174250500Y-73581496D01*
X174212767Y-73246606D01*
X174204654Y-73211063D01*
X174137779Y-72918056D01*
X174137777Y-72918052D01*
X174137776Y-72918046D01*
X174047909Y-72661221D01*
X174026471Y-72599954D01*
X174002655Y-72550500D01*
X173880246Y-72296314D01*
X173700946Y-72010961D01*
X173490825Y-71747477D01*
X173252523Y-71509175D01*
X172989039Y-71299054D01*
X172989040Y-71299054D01*
X172989038Y-71299053D01*
X172703696Y-71119760D01*
X172703692Y-71119758D01*
X172703686Y-71119754D01*
X172703676Y-71119749D01*
X172703672Y-71119747D01*
X172400045Y-70973528D01*
X172179729Y-70896437D01*
X172081954Y-70862224D01*
X172081950Y-70862223D01*
X172081943Y-70862220D01*
X171753397Y-70787233D01*
X171418516Y-70749500D01*
X171418504Y-70749500D01*
X171081496Y-70749500D01*
X171081483Y-70749500D01*
X170746602Y-70787233D01*
X170418056Y-70862220D01*
X170418049Y-70862223D01*
X170099954Y-70973528D01*
X169796327Y-71119747D01*
X169796303Y-71119760D01*
X169510961Y-71299053D01*
X169247480Y-71509172D01*
X169247472Y-71509179D01*
X169009179Y-71747472D01*
X169009172Y-71747480D01*
X168799053Y-72010961D01*
X168619760Y-72296303D01*
X168619747Y-72296327D01*
X168473528Y-72599954D01*
X168362223Y-72918049D01*
X168362220Y-72918056D01*
X168287233Y-73246602D01*
X168249500Y-73581483D01*
X150350499Y-73581483D01*
X150350499Y-73246606D01*
X150350499Y-72510791D01*
X150350499Y-72510784D01*
X150340096Y-72378588D01*
X150285096Y-72160317D01*
X150192007Y-71955374D01*
X150063819Y-71770346D01*
X150040945Y-71747472D01*
X149930088Y-71636614D01*
X149884298Y-71573590D01*
X149869526Y-71544599D01*
X149869524Y-71544595D01*
X149753828Y-71385354D01*
X148994040Y-70625566D01*
X148940067Y-70544788D01*
X148921113Y-70449500D01*
X148940067Y-70354212D01*
X148994043Y-70273430D01*
X149074825Y-70219454D01*
X149170113Y-70200500D01*
X175000500Y-70200500D01*
X175095788Y-70219454D01*
X175176570Y-70273430D01*
X175230546Y-70354212D01*
X175249500Y-70449500D01*
X175249500Y-126000500D01*
X175230546Y-126095788D01*
X175176570Y-126176570D01*
X175095788Y-126230546D01*
X175000500Y-126249500D01*
X117249500Y-126249500D01*
X117154212Y-126230546D01*
X117073430Y-126176570D01*
X117019454Y-126095788D01*
X117000500Y-126000500D01*
X117000500Y-122031483D01*
X117899500Y-122031483D01*
X117899500Y-122368516D01*
X117937233Y-122703397D01*
X118012220Y-123031943D01*
X118012223Y-123031950D01*
X118123528Y-123350045D01*
X118162971Y-123431950D01*
X118269754Y-123653686D01*
X118269758Y-123653692D01*
X118269760Y-123653696D01*
X118330300Y-123750045D01*
X118449054Y-123939039D01*
X118659175Y-124202523D01*
X118897477Y-124440825D01*
X119160961Y-124650946D01*
X119446314Y-124830246D01*
X119749949Y-124976469D01*
X119749952Y-124976470D01*
X119749954Y-124976471D01*
X119811221Y-124997909D01*
X120068046Y-125087776D01*
X120068052Y-125087777D01*
X120068056Y-125087779D01*
X120361063Y-125154654D01*
X120396606Y-125162767D01*
X120578005Y-125183205D01*
X120731483Y-125200499D01*
X120731496Y-125200500D01*
X121068504Y-125200500D01*
X121068516Y-125200499D01*
X121184784Y-125187398D01*
X121403394Y-125162767D01*
X121532131Y-125133383D01*
X121731943Y-125087779D01*
X121731945Y-125087777D01*
X121731954Y-125087776D01*
X122050051Y-124976469D01*
X122353686Y-124830246D01*
X122639039Y-124650946D01*
X122902523Y-124440825D01*
X123140825Y-124202523D01*
X123350946Y-123939039D01*
X123530246Y-123653686D01*
X123676469Y-123350051D01*
X123787776Y-123031954D01*
X123862767Y-122703394D01*
X123893404Y-122431483D01*
X168599500Y-122431483D01*
X168599500Y-122768516D01*
X168637233Y-123103397D01*
X168712220Y-123431943D01*
X168712223Y-123431950D01*
X168823528Y-123750045D01*
X168823531Y-123750051D01*
X168969754Y-124053686D01*
X169149054Y-124339039D01*
X169359175Y-124602523D01*
X169597477Y-124840825D01*
X169860961Y-125050946D01*
X170146314Y-125230246D01*
X170449949Y-125376469D01*
X170449952Y-125376470D01*
X170449954Y-125376471D01*
X170511221Y-125397909D01*
X170768046Y-125487776D01*
X170768052Y-125487777D01*
X170768056Y-125487779D01*
X171061063Y-125554654D01*
X171096606Y-125562767D01*
X171278005Y-125583205D01*
X171431483Y-125600499D01*
X171431496Y-125600500D01*
X171768504Y-125600500D01*
X171768516Y-125600499D01*
X171884784Y-125587398D01*
X172103394Y-125562767D01*
X172232131Y-125533383D01*
X172431943Y-125487779D01*
X172431945Y-125487777D01*
X172431954Y-125487776D01*
X172750051Y-125376469D01*
X173053686Y-125230246D01*
X173339039Y-125050946D01*
X173602523Y-124840825D01*
X173840825Y-124602523D01*
X174050946Y-124339039D01*
X174230246Y-124053686D01*
X174376469Y-123750051D01*
X174487776Y-123431954D01*
X174562767Y-123103394D01*
X174600500Y-122768504D01*
X174600500Y-122431496D01*
X174593402Y-122368503D01*
X174567667Y-122140095D01*
X174562767Y-122096606D01*
X174535126Y-121975500D01*
X174487779Y-121768056D01*
X174487777Y-121768052D01*
X174487776Y-121768046D01*
X174391867Y-121493953D01*
X174376471Y-121449954D01*
X174357449Y-121410455D01*
X174230246Y-121146314D01*
X174050946Y-120860961D01*
X173840825Y-120597477D01*
X173602523Y-120359175D01*
X173401564Y-120198916D01*
X173339038Y-120149053D01*
X173053696Y-119969760D01*
X173053692Y-119969758D01*
X173053686Y-119969754D01*
X173053676Y-119969749D01*
X173053672Y-119969747D01*
X172750045Y-119823528D01*
X172529729Y-119746437D01*
X172431954Y-119712224D01*
X172431950Y-119712223D01*
X172431943Y-119712220D01*
X172103397Y-119637233D01*
X171768516Y-119599500D01*
X171768504Y-119599500D01*
X171431496Y-119599500D01*
X171431483Y-119599500D01*
X171096602Y-119637233D01*
X170768056Y-119712220D01*
X170768049Y-119712223D01*
X170449954Y-119823528D01*
X170146327Y-119969747D01*
X170146303Y-119969760D01*
X169860961Y-120149053D01*
X169597480Y-120359172D01*
X169597472Y-120359179D01*
X169359179Y-120597472D01*
X169359172Y-120597480D01*
X169149053Y-120860961D01*
X168969760Y-121146303D01*
X168969747Y-121146327D01*
X168823528Y-121449954D01*
X168712223Y-121768049D01*
X168712220Y-121768056D01*
X168637233Y-122096602D01*
X168599500Y-122431483D01*
X123893404Y-122431483D01*
X123897330Y-122396644D01*
X123897331Y-122396633D01*
X123898361Y-122387479D01*
X123900500Y-122368504D01*
X123900500Y-122031496D01*
X123896050Y-121992005D01*
X123876540Y-121818846D01*
X123862767Y-121696606D01*
X123822373Y-121519626D01*
X123787779Y-121368056D01*
X123787777Y-121368052D01*
X123787776Y-121368046D01*
X123677731Y-121053556D01*
X123676471Y-121049954D01*
X123673221Y-121043206D01*
X123530246Y-120746314D01*
X123350946Y-120460961D01*
X123140825Y-120197477D01*
X122902523Y-119959175D01*
X122639039Y-119749054D01*
X122611817Y-119731949D01*
X122353696Y-119569760D01*
X122353692Y-119569758D01*
X122353686Y-119569754D01*
X122353676Y-119569749D01*
X122353672Y-119569747D01*
X122050045Y-119423528D01*
X121829729Y-119346437D01*
X121731954Y-119312224D01*
X121731950Y-119312223D01*
X121731943Y-119312220D01*
X121403397Y-119237233D01*
X121068516Y-119199500D01*
X121068504Y-119199500D01*
X120731496Y-119199500D01*
X120731483Y-119199500D01*
X120396602Y-119237233D01*
X120068056Y-119312220D01*
X120068049Y-119312223D01*
X119749954Y-119423528D01*
X119446327Y-119569747D01*
X119446303Y-119569760D01*
X119160961Y-119749053D01*
X118897480Y-119959172D01*
X118897472Y-119959179D01*
X118659179Y-120197472D01*
X118659172Y-120197480D01*
X118449053Y-120460961D01*
X118269760Y-120746303D01*
X118269747Y-120746327D01*
X118123528Y-121049954D01*
X118012223Y-121368049D01*
X118012220Y-121368056D01*
X117937233Y-121696602D01*
X117899500Y-122031483D01*
X117000500Y-122031483D01*
X117000500Y-73731483D01*
X117999500Y-73731483D01*
X117999500Y-74068516D01*
X118037233Y-74403397D01*
X118112220Y-74731943D01*
X118112223Y-74731950D01*
X118223528Y-75050045D01*
X118332101Y-75275500D01*
X118369754Y-75353686D01*
X118369758Y-75353692D01*
X118369760Y-75353696D01*
X118527970Y-75605485D01*
X118549054Y-75639039D01*
X118759175Y-75902523D01*
X118997477Y-76140825D01*
X119260961Y-76350946D01*
X119546314Y-76530246D01*
X119849949Y-76676469D01*
X119849952Y-76676470D01*
X119849954Y-76676471D01*
X119911221Y-76697909D01*
X120168046Y-76787776D01*
X120168052Y-76787777D01*
X120168056Y-76787779D01*
X120461063Y-76854654D01*
X120496606Y-76862767D01*
X120678005Y-76883205D01*
X120831483Y-76900499D01*
X120831496Y-76900500D01*
X121168504Y-76900500D01*
X121168516Y-76900499D01*
X121284784Y-76887398D01*
X121503394Y-76862767D01*
X121652188Y-76828806D01*
X121831943Y-76787779D01*
X121831945Y-76787777D01*
X121831954Y-76787776D01*
X122150051Y-76676469D01*
X122453686Y-76530246D01*
X122739039Y-76350946D01*
X123002523Y-76140825D01*
X123240825Y-75902523D01*
X123450946Y-75639039D01*
X123630246Y-75353686D01*
X123776469Y-75050051D01*
X123887776Y-74731954D01*
X123897605Y-74688893D01*
X123950922Y-74455289D01*
X123962767Y-74403394D01*
X123998166Y-74089217D01*
X124000499Y-74068516D01*
X124000500Y-74068503D01*
X124000500Y-73731496D01*
X124000499Y-73731483D01*
X123979632Y-73546287D01*
X123962767Y-73396606D01*
X123928530Y-73246602D01*
X123887779Y-73068056D01*
X123887777Y-73068052D01*
X123887776Y-73068046D01*
X123776469Y-72749949D01*
X123630246Y-72446314D01*
X123450946Y-72160961D01*
X123240825Y-71897477D01*
X123002523Y-71659175D01*
X122739039Y-71449054D01*
X122739040Y-71449054D01*
X122739038Y-71449053D01*
X122453696Y-71269760D01*
X122453692Y-71269758D01*
X122453686Y-71269754D01*
X122453676Y-71269749D01*
X122453672Y-71269747D01*
X122150045Y-71123528D01*
X121929729Y-71046437D01*
X121831954Y-71012224D01*
X121831950Y-71012223D01*
X121831943Y-71012220D01*
X121503397Y-70937233D01*
X121168516Y-70899500D01*
X121168504Y-70899500D01*
X120831496Y-70899500D01*
X120831483Y-70899500D01*
X120496602Y-70937233D01*
X120168056Y-71012220D01*
X120168049Y-71012223D01*
X119849954Y-71123528D01*
X119546327Y-71269747D01*
X119546303Y-71269760D01*
X119260961Y-71449053D01*
X118997480Y-71659172D01*
X118997472Y-71659179D01*
X118759179Y-71897472D01*
X118759172Y-71897480D01*
X118549053Y-72160961D01*
X118369760Y-72446303D01*
X118369747Y-72446327D01*
X118223528Y-72749954D01*
X118112223Y-73068049D01*
X118112220Y-73068056D01*
X118037233Y-73396602D01*
X117999500Y-73731483D01*
X117000500Y-73731483D01*
X117000500Y-70449500D01*
X117019454Y-70354212D01*
X117073430Y-70273430D01*
X117154212Y-70219454D01*
X117249500Y-70200500D01*
X130729886Y-70200500D01*
X130825174Y-70219454D01*
G37*
%TD.AperFunction*%
%TA.AperFunction,Conductor*%
G36*
X141527106Y-72569454D02*
G01*
X141607888Y-72623430D01*
X141661864Y-72704212D01*
X141680818Y-72799500D01*
X141678688Y-72832000D01*
X141649500Y-73053712D01*
X141649500Y-73546288D01*
X141654135Y-73581496D01*
X141681162Y-73786790D01*
X141681163Y-73786795D01*
X141743940Y-74021082D01*
X141743948Y-74021105D01*
X141836770Y-74245201D01*
X141836778Y-74245217D01*
X141962140Y-74462349D01*
X141961047Y-74462979D01*
X141994714Y-74544250D01*
X141999500Y-74592835D01*
X141999500Y-75275333D01*
X141980546Y-75370621D01*
X141926570Y-75451403D01*
X141772490Y-75605483D01*
X141772486Y-75605485D01*
X141553076Y-75824895D01*
X141472295Y-75878871D01*
X141377006Y-75897825D01*
X141316166Y-75890278D01*
X141314684Y-75889904D01*
X141314683Y-75889904D01*
X141096412Y-75834904D01*
X141096411Y-75834903D01*
X141096408Y-75834903D01*
X141096405Y-75834902D01*
X140964222Y-75824500D01*
X140035791Y-75824500D01*
X139903587Y-75834904D01*
X139685313Y-75889905D01*
X139566088Y-75944060D01*
X139480374Y-75982993D01*
X139480372Y-75982993D01*
X139480368Y-75982996D01*
X139295350Y-76111177D01*
X139295346Y-76111180D01*
X139295346Y-76111181D01*
X139136181Y-76270346D01*
X139136178Y-76270349D01*
X139128274Y-76278254D01*
X139126356Y-76276336D01*
X139065486Y-76325422D01*
X138972276Y-76352825D01*
X138875674Y-76342471D01*
X138790388Y-76295938D01*
X138772215Y-76277765D01*
X138771726Y-76278254D01*
X138763821Y-76270349D01*
X138763819Y-76270346D01*
X138604654Y-76111181D01*
X138604650Y-76111178D01*
X138604649Y-76111177D01*
X138419631Y-75982996D01*
X138419629Y-75982995D01*
X138419626Y-75982993D01*
X138232122Y-75897825D01*
X138214686Y-75889905D01*
X138214684Y-75889904D01*
X138214683Y-75889904D01*
X137996412Y-75834904D01*
X137996411Y-75834903D01*
X137996408Y-75834903D01*
X137996405Y-75834902D01*
X137864222Y-75824500D01*
X136935791Y-75824500D01*
X136803587Y-75834904D01*
X136585313Y-75889905D01*
X136466088Y-75944060D01*
X136380374Y-75982993D01*
X136380372Y-75982993D01*
X136380368Y-75982996D01*
X136195350Y-76111177D01*
X136195346Y-76111180D01*
X136195346Y-76111181D01*
X136179954Y-76126572D01*
X136099176Y-76180546D01*
X136003888Y-76199500D01*
X134049500Y-76199500D01*
X134030547Y-76195730D01*
X133954213Y-76180547D01*
X133873431Y-76126571D01*
X133873430Y-76126569D01*
X133819454Y-76045788D01*
X133800500Y-75950501D01*
X133800500Y-75878871D01*
X133800500Y-75781908D01*
X133800499Y-75781904D01*
X133800499Y-75341964D01*
X133789886Y-75222582D01*
X133733909Y-75026951D01*
X133639698Y-74846593D01*
X133511109Y-74688891D01*
X133353407Y-74560302D01*
X133353402Y-74560299D01*
X133173053Y-74466093D01*
X133173052Y-74466092D01*
X133173049Y-74466091D01*
X132977418Y-74410114D01*
X132858037Y-74399500D01*
X132418094Y-74399500D01*
X132418092Y-74399500D01*
X132181909Y-74399500D01*
X132181905Y-74399500D01*
X131741969Y-74399500D01*
X131741956Y-74399501D01*
X131622585Y-74410113D01*
X131426954Y-74466090D01*
X131426946Y-74466093D01*
X131246597Y-74560299D01*
X131246592Y-74560302D01*
X131088893Y-74688889D01*
X131088889Y-74688893D01*
X130960302Y-74846592D01*
X130960299Y-74846597D01*
X130866093Y-75026946D01*
X130866090Y-75026954D01*
X130809702Y-75224022D01*
X130803149Y-75236762D01*
X130800355Y-75250811D01*
X130781111Y-75279610D01*
X130765266Y-75310420D01*
X130746379Y-75331592D01*
X130472490Y-75605482D01*
X130472490Y-75605483D01*
X129355480Y-76722493D01*
X129216657Y-76913565D01*
X129193048Y-76959902D01*
X129193047Y-76959904D01*
X129109432Y-77124007D01*
X129109430Y-77124012D01*
X129036446Y-77348635D01*
X128999501Y-77581896D01*
X128999500Y-77581912D01*
X128999500Y-81803888D01*
X128980546Y-81899176D01*
X128926572Y-81979954D01*
X128861525Y-82045002D01*
X128811177Y-82095350D01*
X128682996Y-82280368D01*
X128682993Y-82280372D01*
X128682993Y-82280374D01*
X128670961Y-82306864D01*
X128589905Y-82485313D01*
X128534903Y-82703591D01*
X128534902Y-82703594D01*
X128524500Y-82835771D01*
X128524500Y-84164208D01*
X128534031Y-84285313D01*
X128534904Y-84296412D01*
X128587108Y-84503588D01*
X128589905Y-84514686D01*
X128653107Y-84653829D01*
X128682993Y-84719626D01*
X128753762Y-84821776D01*
X128792447Y-84910895D01*
X128794083Y-85008037D01*
X128764725Y-85088076D01*
X128711776Y-85179786D01*
X128711770Y-85179798D01*
X128618948Y-85403894D01*
X128618940Y-85403917D01*
X128556163Y-85638204D01*
X128556162Y-85638209D01*
X128524500Y-85878712D01*
X128524500Y-86121287D01*
X128556162Y-86361790D01*
X128556163Y-86361795D01*
X128618940Y-86596082D01*
X128618948Y-86596105D01*
X128711770Y-86820201D01*
X128711778Y-86820217D01*
X128833058Y-87030279D01*
X128833064Y-87030289D01*
X128980729Y-87222731D01*
X128980733Y-87222735D01*
X128980735Y-87222738D01*
X129152262Y-87394265D01*
X129189299Y-87422684D01*
X129253357Y-87495727D01*
X129284587Y-87587725D01*
X129278234Y-87684672D01*
X129239165Y-87766585D01*
X129220376Y-87792445D01*
X129123908Y-87981774D01*
X129123902Y-87981787D01*
X129058243Y-88183870D01*
X129047769Y-88250000D01*
X130095854Y-88250000D01*
X130057370Y-88316657D01*
X130025000Y-88437465D01*
X130025000Y-88562535D01*
X130057370Y-88683343D01*
X130095854Y-88750000D01*
X129047770Y-88750000D01*
X129058243Y-88816129D01*
X129123902Y-89018212D01*
X129123908Y-89018225D01*
X129220376Y-89207553D01*
X129345275Y-89379462D01*
X129495537Y-89529724D01*
X129667446Y-89654623D01*
X129856774Y-89751091D01*
X129856787Y-89751097D01*
X130058867Y-89816755D01*
X130058875Y-89816757D01*
X130250000Y-89847028D01*
X130250000Y-88904145D01*
X130316657Y-88942630D01*
X130437465Y-88975000D01*
X130562535Y-88975000D01*
X130683343Y-88942630D01*
X130750000Y-88904145D01*
X130750000Y-89847027D01*
X130941124Y-89816757D01*
X130941132Y-89816755D01*
X131143212Y-89751097D01*
X131143225Y-89751091D01*
X131332553Y-89654623D01*
X131504462Y-89529724D01*
X131654724Y-89379462D01*
X131779623Y-89207553D01*
X131876091Y-89018225D01*
X131876097Y-89018212D01*
X131941756Y-88816129D01*
X131952230Y-88750000D01*
X130904146Y-88750000D01*
X130942630Y-88683343D01*
X130975000Y-88562535D01*
X130975000Y-88437465D01*
X130942630Y-88316657D01*
X130904146Y-88250000D01*
X131952230Y-88250000D01*
X131941756Y-88183870D01*
X131876097Y-87981787D01*
X131876091Y-87981774D01*
X131779623Y-87792445D01*
X131760835Y-87766585D01*
X131746186Y-87734808D01*
X131728104Y-87704855D01*
X131726010Y-87691043D01*
X131720161Y-87678354D01*
X131718787Y-87643386D01*
X131713545Y-87608797D01*
X131716896Y-87595235D01*
X131716348Y-87581274D01*
X131728458Y-87548447D01*
X131736853Y-87514480D01*
X131744495Y-87504980D01*
X131749976Y-87490125D01*
X131794482Y-87436261D01*
X131802295Y-87429134D01*
X131847738Y-87394265D01*
X131922609Y-87319393D01*
X131926843Y-87315532D01*
X131963625Y-87293327D01*
X131999355Y-87269454D01*
X132005048Y-87268321D01*
X132010017Y-87265322D01*
X132052493Y-87258884D01*
X132094643Y-87250500D01*
X133278886Y-87250500D01*
X133374174Y-87269454D01*
X133454956Y-87323430D01*
X133646172Y-87514646D01*
X133646171Y-87514646D01*
X133719251Y-87587725D01*
X133785354Y-87653828D01*
X133805705Y-87668614D01*
X133940549Y-87766585D01*
X133944595Y-87769524D01*
X134119975Y-87858884D01*
X134119978Y-87858885D01*
X134119985Y-87858888D01*
X134229879Y-87894594D01*
X134229881Y-87894595D01*
X134255645Y-87902966D01*
X134307173Y-87919709D01*
X134307175Y-87919709D01*
X134307177Y-87919710D01*
X134460088Y-87943928D01*
X134501583Y-87950500D01*
X136275500Y-87950500D01*
X136370788Y-87969454D01*
X136451570Y-88023430D01*
X136505546Y-88104212D01*
X136524500Y-88199499D01*
X136524500Y-88664208D01*
X136524501Y-88664216D01*
X136534904Y-88796412D01*
X136555990Y-88880095D01*
X136589905Y-89014686D01*
X136618014Y-89076570D01*
X136682993Y-89219626D01*
X136682995Y-89219629D01*
X136682996Y-89219631D01*
X136811177Y-89404649D01*
X136811178Y-89404650D01*
X136811181Y-89404654D01*
X136970346Y-89563819D01*
X137042302Y-89613670D01*
X137109834Y-89683514D01*
X137145498Y-89773886D01*
X137149500Y-89818348D01*
X137149500Y-90978885D01*
X137130546Y-91074173D01*
X137076570Y-91154955D01*
X137076569Y-91154955D01*
X136679953Y-91551570D01*
X136599172Y-91605546D01*
X136503885Y-91624500D01*
X136035791Y-91624500D01*
X135903587Y-91634904D01*
X135685313Y-91689905D01*
X135575973Y-91739570D01*
X135480374Y-91782993D01*
X135480372Y-91782993D01*
X135480368Y-91782996D01*
X135295350Y-91911177D01*
X135136177Y-92070350D01*
X135007996Y-92255368D01*
X134914903Y-92460318D01*
X134911212Y-92470868D01*
X134908554Y-92469938D01*
X134875221Y-92540101D01*
X134803121Y-92605222D01*
X134711589Y-92637794D01*
X134614559Y-92632859D01*
X134526804Y-92591168D01*
X134463550Y-92522144D01*
X134392316Y-92406656D01*
X134392315Y-92406654D01*
X134268345Y-92282684D01*
X134268341Y-92282681D01*
X134119121Y-92190641D01*
X134119120Y-92190640D01*
X133952701Y-92135495D01*
X133952694Y-92135494D01*
X133849981Y-92125000D01*
X133650001Y-92125000D01*
X133650000Y-92125001D01*
X133650000Y-94874998D01*
X133650001Y-94874999D01*
X133849968Y-94874999D01*
X133849984Y-94874998D01*
X133952699Y-94864505D01*
X133952702Y-94864504D01*
X134119119Y-94809359D01*
X134119121Y-94809358D01*
X134268341Y-94717318D01*
X134268345Y-94717315D01*
X134392315Y-94593345D01*
X134392319Y-94593340D01*
X134463550Y-94477856D01*
X134529705Y-94406704D01*
X134618053Y-94366285D01*
X134715144Y-94362753D01*
X134806196Y-94396644D01*
X134877348Y-94462799D01*
X134908684Y-94530016D01*
X134911212Y-94529132D01*
X134914903Y-94539681D01*
X134914904Y-94539683D01*
X135007993Y-94744626D01*
X135007995Y-94744629D01*
X135007996Y-94744631D01*
X135136177Y-94929649D01*
X135136178Y-94929650D01*
X135136181Y-94929654D01*
X135295346Y-95088819D01*
X135480374Y-95217007D01*
X135685317Y-95310096D01*
X135903588Y-95365096D01*
X135903591Y-95365096D01*
X135903594Y-95365097D01*
X135969685Y-95370298D01*
X136035783Y-95375500D01*
X136964216Y-95375499D01*
X137096412Y-95365096D01*
X137314683Y-95310096D01*
X137396813Y-95272790D01*
X137491408Y-95250641D01*
X137499789Y-95250500D01*
X138878886Y-95250500D01*
X138974174Y-95269454D01*
X139054956Y-95323430D01*
X139555956Y-95824430D01*
X139609932Y-95905212D01*
X139628886Y-96000500D01*
X139609932Y-96095788D01*
X139555956Y-96176570D01*
X139475174Y-96230546D01*
X139379886Y-96249500D01*
X136901583Y-96249500D01*
X136901580Y-96249500D01*
X136901571Y-96249501D01*
X136707176Y-96280290D01*
X136519978Y-96341114D01*
X136344596Y-96430475D01*
X136344595Y-96430476D01*
X136291255Y-96469229D01*
X136203026Y-96509903D01*
X136105946Y-96513717D01*
X136030018Y-96487151D01*
X136029807Y-96487618D01*
X136024622Y-96485263D01*
X136022027Y-96484355D01*
X136019632Y-96482996D01*
X136019627Y-96482993D01*
X136019626Y-96482993D01*
X135904006Y-96430476D01*
X135814686Y-96389905D01*
X135814684Y-96389904D01*
X135814683Y-96389904D01*
X135596412Y-96334904D01*
X135596411Y-96334903D01*
X135596408Y-96334903D01*
X135596405Y-96334902D01*
X135464222Y-96324500D01*
X134535791Y-96324500D01*
X134403587Y-96334904D01*
X134185313Y-96389905D01*
X134095994Y-96430476D01*
X133980374Y-96482993D01*
X133980372Y-96482993D01*
X133980368Y-96482996D01*
X133795350Y-96611177D01*
X133795346Y-96611180D01*
X133795346Y-96611181D01*
X133636181Y-96770346D01*
X133636180Y-96770348D01*
X133628274Y-96778254D01*
X133626356Y-96776336D01*
X133565486Y-96825422D01*
X133472276Y-96852825D01*
X133375674Y-96842471D01*
X133290388Y-96795938D01*
X133272215Y-96777765D01*
X133271726Y-96778254D01*
X133263820Y-96770348D01*
X133263819Y-96770346D01*
X133104654Y-96611181D01*
X133104650Y-96611178D01*
X133104649Y-96611177D01*
X132919631Y-96482996D01*
X132919629Y-96482995D01*
X132919626Y-96482993D01*
X132782776Y-96420833D01*
X132714686Y-96389905D01*
X132714684Y-96389904D01*
X132714683Y-96389904D01*
X132496412Y-96334904D01*
X132496411Y-96334903D01*
X132496408Y-96334903D01*
X132496405Y-96334902D01*
X132364222Y-96324500D01*
X131435791Y-96324500D01*
X131303587Y-96334904D01*
X131085313Y-96389905D01*
X130995994Y-96430476D01*
X130880374Y-96482993D01*
X130880372Y-96482993D01*
X130880368Y-96482996D01*
X130695350Y-96611177D01*
X130536179Y-96770348D01*
X130532031Y-96776336D01*
X130498025Y-96825422D01*
X130486331Y-96842301D01*
X130470194Y-96857903D01*
X130457722Y-96876570D01*
X130435604Y-96891347D01*
X130416486Y-96909834D01*
X130395605Y-96918074D01*
X130376940Y-96930546D01*
X130350853Y-96935734D01*
X130326114Y-96945498D01*
X130281652Y-96949500D01*
X130021114Y-96949500D01*
X129925826Y-96930546D01*
X129845044Y-96876570D01*
X126718475Y-93750001D01*
X132250001Y-93750001D01*
X132250001Y-94174984D01*
X132260494Y-94277699D01*
X132260495Y-94277702D01*
X132315640Y-94444119D01*
X132315641Y-94444121D01*
X132407681Y-94593341D01*
X132407684Y-94593345D01*
X132531654Y-94717315D01*
X132531658Y-94717318D01*
X132680878Y-94809358D01*
X132680879Y-94809359D01*
X132847298Y-94864504D01*
X132847305Y-94864505D01*
X132950023Y-94874999D01*
X133149999Y-94874998D01*
X133150000Y-94874998D01*
X133150000Y-93750001D01*
X133149999Y-93750000D01*
X132250002Y-93750000D01*
X132250001Y-93750001D01*
X126718475Y-93750001D01*
X125793492Y-92825018D01*
X132250000Y-92825018D01*
X132250000Y-93249999D01*
X132250001Y-93250000D01*
X133149999Y-93250000D01*
X133150000Y-93249999D01*
X133150000Y-92124999D01*
X132950024Y-92125000D01*
X132847300Y-92135494D01*
X132847297Y-92135495D01*
X132680880Y-92190640D01*
X132680878Y-92190641D01*
X132531658Y-92282681D01*
X132531654Y-92282684D01*
X132407684Y-92406654D01*
X132407681Y-92406658D01*
X132315641Y-92555878D01*
X132315640Y-92555879D01*
X132260495Y-92722298D01*
X132260494Y-92722305D01*
X132250000Y-92825018D01*
X125793492Y-92825018D01*
X125523430Y-92554956D01*
X125469454Y-92474174D01*
X125450500Y-92378886D01*
X125450500Y-79721114D01*
X125469454Y-79625826D01*
X125523430Y-79545044D01*
X132445045Y-72623430D01*
X132525827Y-72569454D01*
X132621115Y-72550500D01*
X141431818Y-72550500D01*
X141527106Y-72569454D01*
G37*
%TD.AperFunction*%
%TA.AperFunction,Conductor*%
G36*
X152646930Y-94052895D02*
G01*
X152665190Y-94051973D01*
X152694143Y-94062286D01*
X152724288Y-94068283D01*
X152739488Y-94078439D01*
X152756712Y-94084575D01*
X152779513Y-94105182D01*
X152805070Y-94122259D01*
X152815227Y-94137461D01*
X152828790Y-94149719D01*
X152841970Y-94177484D01*
X152859046Y-94203041D01*
X152870450Y-94237480D01*
X152889904Y-94314683D01*
X152982993Y-94519626D01*
X152982995Y-94519629D01*
X152982996Y-94519631D01*
X153111177Y-94704649D01*
X153111178Y-94704650D01*
X153111181Y-94704654D01*
X153270346Y-94863819D01*
X153270349Y-94863821D01*
X153278254Y-94871726D01*
X153276336Y-94873643D01*
X153325422Y-94934514D01*
X153352825Y-95027724D01*
X153342471Y-95124326D01*
X153295938Y-95209612D01*
X153277765Y-95227785D01*
X153278254Y-95228274D01*
X153270349Y-95236178D01*
X153270346Y-95236181D01*
X153183097Y-95323430D01*
X153111177Y-95395350D01*
X152982996Y-95580368D01*
X152889905Y-95785313D01*
X152834903Y-96003591D01*
X152834903Y-96003593D01*
X152828920Y-96079612D01*
X152802548Y-96173119D01*
X152742400Y-96249416D01*
X152657632Y-96296887D01*
X152561150Y-96308306D01*
X152467643Y-96281934D01*
X152404618Y-96236144D01*
X151633430Y-95464956D01*
X151579454Y-95384174D01*
X151560500Y-95288886D01*
X151560500Y-95223678D01*
X151579454Y-95128390D01*
X151633430Y-95047608D01*
X151714212Y-94993632D01*
X151789972Y-94975445D01*
X151832492Y-94972100D01*
X151990193Y-94926283D01*
X151990195Y-94926283D01*
X152131553Y-94842684D01*
X152247684Y-94726553D01*
X152331283Y-94585195D01*
X152377098Y-94427498D01*
X152377100Y-94427486D01*
X152379999Y-94390650D01*
X152380000Y-94390639D01*
X152380000Y-94298329D01*
X152383566Y-94280398D01*
X152382644Y-94262139D01*
X152392957Y-94233185D01*
X152398954Y-94203041D01*
X152409110Y-94187840D01*
X152415246Y-94170617D01*
X152435853Y-94147815D01*
X152452930Y-94122259D01*
X152468132Y-94112101D01*
X152480390Y-94098539D01*
X152508155Y-94085358D01*
X152533712Y-94068283D01*
X152551641Y-94064716D01*
X152568159Y-94056876D01*
X152598857Y-94055324D01*
X152629000Y-94049329D01*
X152646930Y-94052895D01*
G37*
%TD.AperFunction*%
%TD*%
M02*
